M48
; DRILL file KiCad 10.0.4 date 2026-08-18T05:09:58
; FORMAT={-:-/ absolute / metric / decimal}
; #@! TF.CreationDate,2026-08-18T05:09:58+05:30
; #@! TF.GenerationSoftware,Kicad,Pcbnew,10.0.4
; #@! TF.FileFunction,MixedPlating,1,4
FMAT,2
METRIC
; #@! TA.AperFunction,Plated,PTH,ViaDrill
T1C0.350
; #@! TA.AperFunction,Plated,PTH,ViaDrill
T2C0.400
; #@! TA.AperFunction,Plated,PTH,ViaDrill
T3C0.500
; #@! TA.AperFunction,Plated,PTH,ComponentDrill
T4C0.600
; #@! TA.AperFunction,Plated,PTH,ComponentDrill
T5C0.650
; #@! TA.AperFunction,Plated,PTH,ComponentDrill
T6C0.660
; #@! TA.AperFunction,Plated,PTH,ComponentDrill
T7C0.800
; #@! TA.AperFunction,Plated,PTH,ComponentDrill
T8C0.890
; #@! TA.AperFunction,Plated,PTH,ComponentDrill
T9C0.900
; #@! TA.AperFunction,Plated,PTH,ComponentDrill
T10C1.000
; #@! TA.AperFunction,Plated,PTH,ComponentDrill
T11C1.020
; #@! TA.AperFunction,Plated,PTH,ComponentDrill
T12C1.050
; #@! TA.AperFunction,Plated,PTH,ComponentDrill
T13C1.100
; #@! TA.AperFunction,Plated,PTH,ComponentDrill
T14C1.630
; #@! TA.AperFunction,Plated,PTH,ComponentDrill
T15C3.700
; #@! TA.AperFunction,NonPlated,NPTH,ComponentDrill
T16C0.711
; #@! TA.AperFunction,NonPlated,NPTH,ComponentDrill
T17C1.100
; #@! TA.AperFunction,NonPlated,NPTH,ComponentDrill
T18C1.300
; #@! TA.AperFunction,NonPlated,NPTH,ComponentDrill
T19C3.250
%
G90
G05
T1
X153.898Y-81.063
X160.3Y-79.5
X174.154Y-95.6
X176.1Y-94.6
X177.8Y-97.2
X177.8Y-98.5
X177.8Y-99.8
X179.1Y-97.2
X179.1Y-98.5
X179.1Y-99.8
X182.6Y-97.9
X182.9Y-99.3
T2
X116.2Y-91.9
X120.8Y-85.6
X122.3Y-85.6
X123.7Y-85.6
X125.5Y-95.3
X126.6Y-85.9
X127.1Y-56.4
X128.0Y-85.9
X128.1Y-84.7
X137.2Y-58.1
X140.1Y-91.8
X145.9Y-91.6
X146.6Y-82.8
X146.6Y-84.4
X146.6Y-86.0
X146.6Y-87.5
X146.7Y-81.1
X149.3Y-92.7
X149.4Y-90.7
X150.1Y-68.0
X151.4Y-98.2
X152.4Y-78.12
X152.4Y-79.883
X152.4Y-81.5
X152.4Y-83.2
X152.4Y-85.0
X152.4Y-86.9
X153.4Y-92.7
X153.9Y-62.2
X154.2Y-91.6
X154.9Y-84.9
X163.737Y-75.938
X168.0Y-73.8
X169.898Y-115.191
X169.998Y-113.391
X173.898Y-109.391
X177.2Y-94.3
X177.4Y-105.0
X177.798Y-115.191
X178.4Y-71.7
X178.4Y-93.3
X178.6Y-104.5
X179.1Y-103.3
X180.998Y-108.291
X181.4Y-70.9
X181.6Y-105.6
X182.398Y-111.391
X182.6Y-97.9
X182.7Y-103.545
X183.198Y-114.191
X185.698Y-108.691
X186.3Y-105.2
X190.098Y-114.391
T3
X101.2Y-83.0
X101.2Y-85.0
X101.6Y-78.8
X107.8Y-77.8
X107.8Y-79.4
X107.8Y-81.0
X109.5Y-77.8
X109.5Y-79.4
X109.5Y-81.0
X110.0Y-90.8
X110.9Y-57.4
X111.2Y-77.8
X111.2Y-79.4
X111.2Y-81.0
X112.3Y-74.1
X112.8Y-60.8
X112.8Y-112.1
X113.3Y-113.0
X113.3Y-114.0
X113.8Y-112.1
X114.3Y-113.0
X114.3Y-114.0
X114.4Y-66.4
X114.4Y-68.4
X115.273Y-113.0
X115.273Y-114.0
X115.3Y-75.3
X115.4Y-70.4
X116.0Y-73.3
X116.1Y-74.5
X116.3Y-84.1
X116.3Y-113.3
X116.3Y-114.3
X116.9Y-76.4
X117.3Y-113.3
X117.3Y-114.3
X118.297Y-113.0
X118.297Y-114.0
X118.775Y-78.038
X118.8Y-65.6
X118.8Y-79.5
X118.9Y-70.9
X119.3Y-85.5
X119.698Y-113.0
X119.698Y-114.0
X120.6Y-114.5
X121.3Y-61.0
X121.6Y-114.5
X121.7Y-55.6
X122.7Y-114.2
X122.9Y-112.0
X122.9Y-113.0
X123.4Y-65.7
X123.4Y-71.1
X123.481Y-84.15
X123.6Y-63.4
X124.3Y-75.8
X125.1Y-85.5
X125.7Y-80.4
X127.8Y-104.7
X127.8Y-105.9
X128.4Y-103.7
X129.0Y-104.7
X129.0Y-105.9
X129.4Y-84.6
X129.5Y-63.6
X129.6Y-103.7
X129.7Y-59.4
X130.2Y-104.7
X130.8Y-102.5
X130.8Y-103.7
X134.6Y-59.4
X135.45Y-84.4
X135.5Y-80.2
X139.8Y-80.2
X140.0Y-64.2
X140.0Y-75.1
X140.8Y-80.9
X141.125Y-82.601
X143.1Y-62.0
X143.2Y-58.2
X144.2Y-75.1
X144.3Y-69.6
X145.7Y-60.6
X146.5Y-89.0
X146.8Y-92.9
X148.4Y-87.8
X148.4Y-89.0
X149.243Y-81.46
X151.8Y-90.6
X152.6Y-100.134
X152.6Y-115.2
X152.8Y-89.9
X153.4Y-94.1
X153.8Y-100.134
X153.8Y-115.2
X154.9Y-114.8
X155.3Y-78.5
X157.7Y-107.5
X158.9Y-107.5
X159.0Y-100.8
X160.2Y-108.5
X161.3Y-109.6
X161.4Y-115.8
X161.4Y-117.4
X161.4Y-119.3
X161.6Y-101.1
X162.1Y-99.3
X162.2Y-114.7
X162.3Y-87.0
X162.3Y-88.17
X163.4Y-86.93
X163.4Y-88.1
X166.7Y-75.4
X166.7Y-77.5
X166.7Y-86.9
X167.8Y-96.7
X169.4Y-94.6
X170.3Y-93.7
X170.3Y-95.6
X170.4Y-103.0
X170.8Y-92.3
X171.2Y-94.6
X174.0Y-90.0
X174.8Y-102.6
X175.7Y-79.1
X176.508Y-90.888
X177.388Y-92.092
X177.4Y-56.0
X177.898Y-112.291
X178.4Y-68.3
X179.2Y-117.7
X179.844Y-56.975
X180.5Y-68.3
X184.5Y-59.0
X186.8Y-66.7
X186.9Y-69.7
X187.0Y-80.5
X188.2Y-66.7
X188.572Y-95.328
X188.572Y-97.426
X188.588Y-93.192
X188.7Y-99.5
X190.298Y-109.291
X190.423Y-106.391
X191.2Y-68.8
X192.6Y-99.487
X192.663Y-97.415
X192.674Y-93.268
X192.674Y-95.291
X192.7Y-101.6
T4
X110.75Y-112.0
X113.05Y-107.0
T5
X133.85Y-53.83
X133.85Y-55.1
X135.12Y-53.83
X135.12Y-55.1
X136.39Y-53.83
X136.39Y-55.1
X137.66Y-53.83
X137.66Y-55.1
X138.93Y-53.83
X138.93Y-55.1
X140.2Y-53.83
X140.2Y-55.1
X141.47Y-53.83
X141.47Y-55.1
T7
X103.6Y-81.8
X111.7Y-95.553
X111.7Y-99.053
X111.72Y-122.6
X121.88Y-122.6
X153.3Y-67.9
X158.9Y-97.5
T8
X179.644Y-76.66
X179.644Y-79.2
X179.644Y-81.74
X179.644Y-84.28
X182.184Y-77.92
X182.184Y-80.46
X182.184Y-83.0
X182.184Y-85.54
T9
X103.4Y-106.5
X103.4Y-109.0
X103.4Y-111.5
X158.483Y-120.9
X160.983Y-120.9
X163.483Y-120.9
T10
X101.96Y-91.13
X101.96Y-93.67
X101.96Y-96.21
X101.96Y-98.74
X111.53Y-53.7
X112.0Y-117.6
X114.07Y-53.7
X120.33Y-92.3
X122.0Y-117.6
X122.87Y-92.3
X132.58Y-107.725
X132.6Y-97.986
X133.86Y-116.96
X135.12Y-107.725
X135.14Y-97.986
X136.39Y-116.96
X138.93Y-116.96
X140.2Y-107.725
X140.22Y-97.986
X141.47Y-116.96
X145.28Y-107.725
X145.3Y-97.986
T11
X193.444Y-74.475
X193.444Y-77.015
X193.444Y-85.185
X193.444Y-87.725
T12
X173.037Y-120.988
X175.537Y-120.988
X184.7Y-120.988
X187.2Y-120.988
T13
X102.546Y-69.239
X102.546Y-73.739
X102.55Y-61.15
X102.55Y-65.65
X109.046Y-69.239
X109.046Y-73.739
X109.05Y-61.15
X109.05Y-65.65
T14
X185.494Y-73.355
X185.494Y-88.845
T15
X105.0Y-55.0
X105.0Y-120.0
X150.0Y-55.0
X150.0Y-120.0
X193.994Y-55.0
X195.0Y-120.0
T16
X193.7Y-68.29
X193.7Y-62.51
T17
X105.4Y-113.1
X165.083Y-118.9
T18
X177.137Y-118.988
X188.8Y-118.988
T19
X188.544Y-75.385
X188.544Y-86.815
T6
X192.654Y-61.08G85X193.746Y-61.08
G05
X192.654Y-69.72G85X193.746Y-69.72
G05
X196.986Y-61.08G85X197.773Y-61.08
G05
X196.986Y-69.72G85X197.773Y-69.72
G05
M30
