%TF.GenerationSoftware,KiCad,Pcbnew,10.0.4*%
%TF.CreationDate,2026-08-18T05:09:38+05:30*%
%TF.ProjectId,cryonano-nano-stage,6372796f-6e61-46e6-9f2d-6e616e6f2d73,rev?*%
%TF.SameCoordinates,Original*%
%TF.FileFunction,Drillmap*%
%TF.FilePolarity,Positive*%
%FSLAX45Y45*%
G04 Gerber Fmt 4.5, Leading zero omitted, Abs format (unit mm)*
G04 Created by KiCad (PCBNEW 10.0.4) date 2026-08-18 05:09:38*
%MOMM*%
%LPD*%
G01*
G04 APERTURE LIST*
%ADD10C,0.050000*%
%ADD11C,0.200000*%
%ADD12C,0.100000*%
%ADD13C,0.110000*%
%ADD14C,0.130000*%
%ADD15C,0.325000*%
G04 APERTURE END LIST*
D10*
X10000000Y-5000000D02*
X10000000Y-12500000D01*
X10000000Y-5000000D02*
X20000000Y-5000000D01*
X15130000Y-10380000D02*
X15820000Y-10380000D01*
X15820000Y-10560000D01*
X15130000Y-10560000D01*
X15130000Y-10380000D01*
X20000000Y-5000000D02*
X20000000Y-12500000D01*
X20000000Y-12500000D02*
X10000000Y-12500000D01*
D11*
D12*
X19334410Y-6793440D02*
X19405530Y-6864560D01*
X19405530Y-6793440D02*
X19334410Y-6864560D01*
X19334420Y-6215439D02*
X19405540Y-6286559D01*
X19405540Y-6215439D02*
X19334420Y-6286559D01*
D13*
X10595000Y-11310000D02*
G75*
G02*
X10485000Y-11310000I-55000J0D01*
G01*
X10485000Y-11310000D02*
G75*
G02*
X10595000Y-11310000I55000J0D01*
G01*
X16563329Y-11890000D02*
G75*
G02*
X16453329Y-11890000I-55000J0D01*
G01*
X16453329Y-11890000D02*
G75*
G02*
X16563329Y-11890000I55000J0D01*
G01*
D14*
X17713724Y-11833784D02*
X17713724Y-11963784D01*
X17648724Y-11898784D02*
X17778724Y-11898784D01*
X18880000Y-11833784D02*
X18880000Y-11963784D01*
X18815000Y-11898784D02*
X18945000Y-11898784D01*
D15*
X18969258Y-7653406D02*
X18969258Y-7423594D01*
X18739446Y-7423594D01*
X18739446Y-7653406D01*
X18969258Y-7653406D01*
X18969258Y-8796406D02*
X18969258Y-8566594D01*
X18739446Y-8566594D01*
X18739446Y-8796406D01*
X18969258Y-8796406D01*
D11*
X10258277Y-12813984D02*
X10258277Y-12613984D01*
X10258277Y-12613984D02*
X10305896Y-12613984D01*
X10305896Y-12613984D02*
X10334467Y-12623508D01*
X10334467Y-12623508D02*
X10353515Y-12642555D01*
X10353515Y-12642555D02*
X10363039Y-12661603D01*
X10363039Y-12661603D02*
X10372563Y-12699698D01*
X10372563Y-12699698D02*
X10372563Y-12728269D01*
X10372563Y-12728269D02*
X10363039Y-12766365D01*
X10363039Y-12766365D02*
X10353515Y-12785412D01*
X10353515Y-12785412D02*
X10334467Y-12804460D01*
X10334467Y-12804460D02*
X10305896Y-12813984D01*
X10305896Y-12813984D02*
X10258277Y-12813984D01*
X10458277Y-12813984D02*
X10458277Y-12680650D01*
X10458277Y-12718746D02*
X10467801Y-12699698D01*
X10467801Y-12699698D02*
X10477324Y-12690174D01*
X10477324Y-12690174D02*
X10496372Y-12680650D01*
X10496372Y-12680650D02*
X10515420Y-12680650D01*
X10582086Y-12813984D02*
X10582086Y-12680650D01*
X10582086Y-12613984D02*
X10572563Y-12623508D01*
X10572563Y-12623508D02*
X10582086Y-12633031D01*
X10582086Y-12633031D02*
X10591610Y-12623508D01*
X10591610Y-12623508D02*
X10582086Y-12613984D01*
X10582086Y-12613984D02*
X10582086Y-12633031D01*
X10705896Y-12813984D02*
X10686848Y-12804460D01*
X10686848Y-12804460D02*
X10677324Y-12785412D01*
X10677324Y-12785412D02*
X10677324Y-12613984D01*
X10810658Y-12813984D02*
X10791610Y-12804460D01*
X10791610Y-12804460D02*
X10782086Y-12785412D01*
X10782086Y-12785412D02*
X10782086Y-12613984D01*
X11039229Y-12813984D02*
X11039229Y-12613984D01*
X11039229Y-12613984D02*
X11105896Y-12756841D01*
X11105896Y-12756841D02*
X11172563Y-12613984D01*
X11172563Y-12613984D02*
X11172563Y-12813984D01*
X11353515Y-12813984D02*
X11353515Y-12709222D01*
X11353515Y-12709222D02*
X11343991Y-12690174D01*
X11343991Y-12690174D02*
X11324943Y-12680650D01*
X11324943Y-12680650D02*
X11286848Y-12680650D01*
X11286848Y-12680650D02*
X11267801Y-12690174D01*
X11353515Y-12804460D02*
X11334467Y-12813984D01*
X11334467Y-12813984D02*
X11286848Y-12813984D01*
X11286848Y-12813984D02*
X11267801Y-12804460D01*
X11267801Y-12804460D02*
X11258277Y-12785412D01*
X11258277Y-12785412D02*
X11258277Y-12766365D01*
X11258277Y-12766365D02*
X11267801Y-12747317D01*
X11267801Y-12747317D02*
X11286848Y-12737793D01*
X11286848Y-12737793D02*
X11334467Y-12737793D01*
X11334467Y-12737793D02*
X11353515Y-12728269D01*
X11448753Y-12680650D02*
X11448753Y-12880650D01*
X11448753Y-12690174D02*
X11467801Y-12680650D01*
X11467801Y-12680650D02*
X11505896Y-12680650D01*
X11505896Y-12680650D02*
X11524943Y-12690174D01*
X11524943Y-12690174D02*
X11534467Y-12699698D01*
X11534467Y-12699698D02*
X11543991Y-12718746D01*
X11543991Y-12718746D02*
X11543991Y-12775888D01*
X11543991Y-12775888D02*
X11534467Y-12794936D01*
X11534467Y-12794936D02*
X11524943Y-12804460D01*
X11524943Y-12804460D02*
X11505896Y-12813984D01*
X11505896Y-12813984D02*
X11467801Y-12813984D01*
X11467801Y-12813984D02*
X11448753Y-12804460D01*
X11629705Y-12794936D02*
X11639229Y-12804460D01*
X11639229Y-12804460D02*
X11629705Y-12813984D01*
X11629705Y-12813984D02*
X11620182Y-12804460D01*
X11620182Y-12804460D02*
X11629705Y-12794936D01*
X11629705Y-12794936D02*
X11629705Y-12813984D01*
X11629705Y-12690174D02*
X11639229Y-12699698D01*
X11639229Y-12699698D02*
X11629705Y-12709222D01*
X11629705Y-12709222D02*
X11620182Y-12699698D01*
X11620182Y-12699698D02*
X11629705Y-12690174D01*
X11629705Y-12690174D02*
X11629705Y-12709222D01*
D12*
X9926380Y-13106940D02*
X9997500Y-13178060D01*
X9997500Y-13106940D02*
X9926380Y-13178060D01*
D11*
X10296372Y-13033984D02*
X10315420Y-13033984D01*
X10315420Y-13033984D02*
X10334467Y-13043508D01*
X10334467Y-13043508D02*
X10343991Y-13053031D01*
X10343991Y-13053031D02*
X10353515Y-13072079D01*
X10353515Y-13072079D02*
X10363039Y-13110174D01*
X10363039Y-13110174D02*
X10363039Y-13157793D01*
X10363039Y-13157793D02*
X10353515Y-13195888D01*
X10353515Y-13195888D02*
X10343991Y-13214936D01*
X10343991Y-13214936D02*
X10334467Y-13224460D01*
X10334467Y-13224460D02*
X10315420Y-13233984D01*
X10315420Y-13233984D02*
X10296372Y-13233984D01*
X10296372Y-13233984D02*
X10277324Y-13224460D01*
X10277324Y-13224460D02*
X10267801Y-13214936D01*
X10267801Y-13214936D02*
X10258277Y-13195888D01*
X10258277Y-13195888D02*
X10248753Y-13157793D01*
X10248753Y-13157793D02*
X10248753Y-13110174D01*
X10248753Y-13110174D02*
X10258277Y-13072079D01*
X10258277Y-13072079D02*
X10267801Y-13053031D01*
X10267801Y-13053031D02*
X10277324Y-13043508D01*
X10277324Y-13043508D02*
X10296372Y-13033984D01*
X10448753Y-13214936D02*
X10458277Y-13224460D01*
X10458277Y-13224460D02*
X10448753Y-13233984D01*
X10448753Y-13233984D02*
X10439229Y-13224460D01*
X10439229Y-13224460D02*
X10448753Y-13214936D01*
X10448753Y-13214936D02*
X10448753Y-13233984D01*
X10524944Y-13033984D02*
X10658277Y-13033984D01*
X10658277Y-13033984D02*
X10572563Y-13233984D01*
X10839229Y-13233984D02*
X10724944Y-13233984D01*
X10782086Y-13233984D02*
X10782086Y-13033984D01*
X10782086Y-13033984D02*
X10763039Y-13062555D01*
X10763039Y-13062555D02*
X10743991Y-13081603D01*
X10743991Y-13081603D02*
X10724944Y-13091127D01*
X11029705Y-13233984D02*
X10915420Y-13233984D01*
X10972563Y-13233984D02*
X10972563Y-13033984D01*
X10972563Y-13033984D02*
X10953515Y-13062555D01*
X10953515Y-13062555D02*
X10934467Y-13081603D01*
X10934467Y-13081603D02*
X10915420Y-13091127D01*
X11115420Y-13233984D02*
X11115420Y-13100650D01*
X11115420Y-13119698D02*
X11124944Y-13110174D01*
X11124944Y-13110174D02*
X11143991Y-13100650D01*
X11143991Y-13100650D02*
X11172563Y-13100650D01*
X11172563Y-13100650D02*
X11191610Y-13110174D01*
X11191610Y-13110174D02*
X11201134Y-13129222D01*
X11201134Y-13129222D02*
X11201134Y-13233984D01*
X11201134Y-13129222D02*
X11210658Y-13110174D01*
X11210658Y-13110174D02*
X11229705Y-13100650D01*
X11229705Y-13100650D02*
X11258277Y-13100650D01*
X11258277Y-13100650D02*
X11277324Y-13110174D01*
X11277324Y-13110174D02*
X11286848Y-13129222D01*
X11286848Y-13129222D02*
X11286848Y-13233984D01*
X11382086Y-13233984D02*
X11382086Y-13100650D01*
X11382086Y-13119698D02*
X11391610Y-13110174D01*
X11391610Y-13110174D02*
X11410658Y-13100650D01*
X11410658Y-13100650D02*
X11439229Y-13100650D01*
X11439229Y-13100650D02*
X11458277Y-13110174D01*
X11458277Y-13110174D02*
X11467801Y-13129222D01*
X11467801Y-13129222D02*
X11467801Y-13233984D01*
X11467801Y-13129222D02*
X11477324Y-13110174D01*
X11477324Y-13110174D02*
X11496372Y-13100650D01*
X11496372Y-13100650D02*
X11524943Y-13100650D01*
X11524943Y-13100650D02*
X11543991Y-13110174D01*
X11543991Y-13110174D02*
X11553515Y-13129222D01*
X11553515Y-13129222D02*
X11553515Y-13233984D01*
X11943991Y-13024460D02*
X11772563Y-13281603D01*
X12201134Y-13033984D02*
X12220182Y-13033984D01*
X12220182Y-13033984D02*
X12239229Y-13043508D01*
X12239229Y-13043508D02*
X12248753Y-13053031D01*
X12248753Y-13053031D02*
X12258277Y-13072079D01*
X12258277Y-13072079D02*
X12267801Y-13110174D01*
X12267801Y-13110174D02*
X12267801Y-13157793D01*
X12267801Y-13157793D02*
X12258277Y-13195888D01*
X12258277Y-13195888D02*
X12248753Y-13214936D01*
X12248753Y-13214936D02*
X12239229Y-13224460D01*
X12239229Y-13224460D02*
X12220182Y-13233984D01*
X12220182Y-13233984D02*
X12201134Y-13233984D01*
X12201134Y-13233984D02*
X12182086Y-13224460D01*
X12182086Y-13224460D02*
X12172563Y-13214936D01*
X12172563Y-13214936D02*
X12163039Y-13195888D01*
X12163039Y-13195888D02*
X12153515Y-13157793D01*
X12153515Y-13157793D02*
X12153515Y-13110174D01*
X12153515Y-13110174D02*
X12163039Y-13072079D01*
X12163039Y-13072079D02*
X12172563Y-13053031D01*
X12172563Y-13053031D02*
X12182086Y-13043508D01*
X12182086Y-13043508D02*
X12201134Y-13033984D01*
X12353515Y-13214936D02*
X12363039Y-13224460D01*
X12363039Y-13224460D02*
X12353515Y-13233984D01*
X12353515Y-13233984D02*
X12343991Y-13224460D01*
X12343991Y-13224460D02*
X12353515Y-13214936D01*
X12353515Y-13214936D02*
X12353515Y-13233984D01*
X12486848Y-13033984D02*
X12505896Y-13033984D01*
X12505896Y-13033984D02*
X12524944Y-13043508D01*
X12524944Y-13043508D02*
X12534467Y-13053031D01*
X12534467Y-13053031D02*
X12543991Y-13072079D01*
X12543991Y-13072079D02*
X12553515Y-13110174D01*
X12553515Y-13110174D02*
X12553515Y-13157793D01*
X12553515Y-13157793D02*
X12543991Y-13195888D01*
X12543991Y-13195888D02*
X12534467Y-13214936D01*
X12534467Y-13214936D02*
X12524944Y-13224460D01*
X12524944Y-13224460D02*
X12505896Y-13233984D01*
X12505896Y-13233984D02*
X12486848Y-13233984D01*
X12486848Y-13233984D02*
X12467801Y-13224460D01*
X12467801Y-13224460D02*
X12458277Y-13214936D01*
X12458277Y-13214936D02*
X12448753Y-13195888D01*
X12448753Y-13195888D02*
X12439229Y-13157793D01*
X12439229Y-13157793D02*
X12439229Y-13110174D01*
X12439229Y-13110174D02*
X12448753Y-13072079D01*
X12448753Y-13072079D02*
X12458277Y-13053031D01*
X12458277Y-13053031D02*
X12467801Y-13043508D01*
X12467801Y-13043508D02*
X12486848Y-13033984D01*
X12629706Y-13053031D02*
X12639229Y-13043508D01*
X12639229Y-13043508D02*
X12658277Y-13033984D01*
X12658277Y-13033984D02*
X12705896Y-13033984D01*
X12705896Y-13033984D02*
X12724944Y-13043508D01*
X12724944Y-13043508D02*
X12734467Y-13053031D01*
X12734467Y-13053031D02*
X12743991Y-13072079D01*
X12743991Y-13072079D02*
X12743991Y-13091127D01*
X12743991Y-13091127D02*
X12734467Y-13119698D01*
X12734467Y-13119698D02*
X12620182Y-13233984D01*
X12620182Y-13233984D02*
X12743991Y-13233984D01*
X12858277Y-13119698D02*
X12839229Y-13110174D01*
X12839229Y-13110174D02*
X12829706Y-13100650D01*
X12829706Y-13100650D02*
X12820182Y-13081603D01*
X12820182Y-13081603D02*
X12820182Y-13072079D01*
X12820182Y-13072079D02*
X12829706Y-13053031D01*
X12829706Y-13053031D02*
X12839229Y-13043508D01*
X12839229Y-13043508D02*
X12858277Y-13033984D01*
X12858277Y-13033984D02*
X12896372Y-13033984D01*
X12896372Y-13033984D02*
X12915420Y-13043508D01*
X12915420Y-13043508D02*
X12924944Y-13053031D01*
X12924944Y-13053031D02*
X12934467Y-13072079D01*
X12934467Y-13072079D02*
X12934467Y-13081603D01*
X12934467Y-13081603D02*
X12924944Y-13100650D01*
X12924944Y-13100650D02*
X12915420Y-13110174D01*
X12915420Y-13110174D02*
X12896372Y-13119698D01*
X12896372Y-13119698D02*
X12858277Y-13119698D01*
X12858277Y-13119698D02*
X12839229Y-13129222D01*
X12839229Y-13129222D02*
X12829706Y-13138746D01*
X12829706Y-13138746D02*
X12820182Y-13157793D01*
X12820182Y-13157793D02*
X12820182Y-13195888D01*
X12820182Y-13195888D02*
X12829706Y-13214936D01*
X12829706Y-13214936D02*
X12839229Y-13224460D01*
X12839229Y-13224460D02*
X12858277Y-13233984D01*
X12858277Y-13233984D02*
X12896372Y-13233984D01*
X12896372Y-13233984D02*
X12915420Y-13224460D01*
X12915420Y-13224460D02*
X12924944Y-13214936D01*
X12924944Y-13214936D02*
X12934467Y-13195888D01*
X12934467Y-13195888D02*
X12934467Y-13157793D01*
X12934467Y-13157793D02*
X12924944Y-13138746D01*
X12924944Y-13138746D02*
X12915420Y-13129222D01*
X12915420Y-13129222D02*
X12896372Y-13119698D01*
X13058277Y-13033984D02*
X13077325Y-13033984D01*
X13077325Y-13033984D02*
X13096372Y-13043508D01*
X13096372Y-13043508D02*
X13105896Y-13053031D01*
X13105896Y-13053031D02*
X13115420Y-13072079D01*
X13115420Y-13072079D02*
X13124944Y-13110174D01*
X13124944Y-13110174D02*
X13124944Y-13157793D01*
X13124944Y-13157793D02*
X13115420Y-13195888D01*
X13115420Y-13195888D02*
X13105896Y-13214936D01*
X13105896Y-13214936D02*
X13096372Y-13224460D01*
X13096372Y-13224460D02*
X13077325Y-13233984D01*
X13077325Y-13233984D02*
X13058277Y-13233984D01*
X13058277Y-13233984D02*
X13039229Y-13224460D01*
X13039229Y-13224460D02*
X13029706Y-13214936D01*
X13029706Y-13214936D02*
X13020182Y-13195888D01*
X13020182Y-13195888D02*
X13010658Y-13157793D01*
X13010658Y-13157793D02*
X13010658Y-13110174D01*
X13010658Y-13110174D02*
X13020182Y-13072079D01*
X13020182Y-13072079D02*
X13029706Y-13053031D01*
X13029706Y-13053031D02*
X13039229Y-13043508D01*
X13039229Y-13043508D02*
X13058277Y-13033984D01*
X13201134Y-13033984D02*
X13201134Y-13072079D01*
X13277325Y-13033984D02*
X13277325Y-13072079D01*
X13572563Y-13310174D02*
X13563039Y-13300650D01*
X13563039Y-13300650D02*
X13543991Y-13272079D01*
X13543991Y-13272079D02*
X13534468Y-13253031D01*
X13534468Y-13253031D02*
X13524944Y-13224460D01*
X13524944Y-13224460D02*
X13515420Y-13176841D01*
X13515420Y-13176841D02*
X13515420Y-13138746D01*
X13515420Y-13138746D02*
X13524944Y-13091127D01*
X13524944Y-13091127D02*
X13534468Y-13062555D01*
X13534468Y-13062555D02*
X13543991Y-13043508D01*
X13543991Y-13043508D02*
X13563039Y-13014936D01*
X13563039Y-13014936D02*
X13572563Y-13005412D01*
X13639229Y-13053031D02*
X13648753Y-13043508D01*
X13648753Y-13043508D02*
X13667801Y-13033984D01*
X13667801Y-13033984D02*
X13715420Y-13033984D01*
X13715420Y-13033984D02*
X13734468Y-13043508D01*
X13734468Y-13043508D02*
X13743991Y-13053031D01*
X13743991Y-13053031D02*
X13753515Y-13072079D01*
X13753515Y-13072079D02*
X13753515Y-13091127D01*
X13753515Y-13091127D02*
X13743991Y-13119698D01*
X13743991Y-13119698D02*
X13629706Y-13233984D01*
X13629706Y-13233984D02*
X13753515Y-13233984D01*
X13991610Y-13233984D02*
X13991610Y-13033984D01*
X14077325Y-13233984D02*
X14077325Y-13129222D01*
X14077325Y-13129222D02*
X14067801Y-13110174D01*
X14067801Y-13110174D02*
X14048753Y-13100650D01*
X14048753Y-13100650D02*
X14020182Y-13100650D01*
X14020182Y-13100650D02*
X14001134Y-13110174D01*
X14001134Y-13110174D02*
X13991610Y-13119698D01*
X14201134Y-13233984D02*
X14182087Y-13224460D01*
X14182087Y-13224460D02*
X14172563Y-13214936D01*
X14172563Y-13214936D02*
X14163039Y-13195888D01*
X14163039Y-13195888D02*
X14163039Y-13138746D01*
X14163039Y-13138746D02*
X14172563Y-13119698D01*
X14172563Y-13119698D02*
X14182087Y-13110174D01*
X14182087Y-13110174D02*
X14201134Y-13100650D01*
X14201134Y-13100650D02*
X14229706Y-13100650D01*
X14229706Y-13100650D02*
X14248753Y-13110174D01*
X14248753Y-13110174D02*
X14258277Y-13119698D01*
X14258277Y-13119698D02*
X14267801Y-13138746D01*
X14267801Y-13138746D02*
X14267801Y-13195888D01*
X14267801Y-13195888D02*
X14258277Y-13214936D01*
X14258277Y-13214936D02*
X14248753Y-13224460D01*
X14248753Y-13224460D02*
X14229706Y-13233984D01*
X14229706Y-13233984D02*
X14201134Y-13233984D01*
X14382087Y-13233984D02*
X14363039Y-13224460D01*
X14363039Y-13224460D02*
X14353515Y-13205412D01*
X14353515Y-13205412D02*
X14353515Y-13033984D01*
X14534468Y-13224460D02*
X14515420Y-13233984D01*
X14515420Y-13233984D02*
X14477325Y-13233984D01*
X14477325Y-13233984D02*
X14458277Y-13224460D01*
X14458277Y-13224460D02*
X14448753Y-13205412D01*
X14448753Y-13205412D02*
X14448753Y-13129222D01*
X14448753Y-13129222D02*
X14458277Y-13110174D01*
X14458277Y-13110174D02*
X14477325Y-13100650D01*
X14477325Y-13100650D02*
X14515420Y-13100650D01*
X14515420Y-13100650D02*
X14534468Y-13110174D01*
X14534468Y-13110174D02*
X14543991Y-13129222D01*
X14543991Y-13129222D02*
X14543991Y-13148269D01*
X14543991Y-13148269D02*
X14448753Y-13167317D01*
X14620182Y-13224460D02*
X14639230Y-13233984D01*
X14639230Y-13233984D02*
X14677325Y-13233984D01*
X14677325Y-13233984D02*
X14696372Y-13224460D01*
X14696372Y-13224460D02*
X14705896Y-13205412D01*
X14705896Y-13205412D02*
X14705896Y-13195888D01*
X14705896Y-13195888D02*
X14696372Y-13176841D01*
X14696372Y-13176841D02*
X14677325Y-13167317D01*
X14677325Y-13167317D02*
X14648753Y-13167317D01*
X14648753Y-13167317D02*
X14629706Y-13157793D01*
X14629706Y-13157793D02*
X14620182Y-13138746D01*
X14620182Y-13138746D02*
X14620182Y-13129222D01*
X14620182Y-13129222D02*
X14629706Y-13110174D01*
X14629706Y-13110174D02*
X14648753Y-13100650D01*
X14648753Y-13100650D02*
X14677325Y-13100650D01*
X14677325Y-13100650D02*
X14696372Y-13110174D01*
X14772563Y-13310174D02*
X14782087Y-13300650D01*
X14782087Y-13300650D02*
X14801134Y-13272079D01*
X14801134Y-13272079D02*
X14810658Y-13253031D01*
X14810658Y-13253031D02*
X14820182Y-13224460D01*
X14820182Y-13224460D02*
X14829706Y-13176841D01*
X14829706Y-13176841D02*
X14829706Y-13138746D01*
X14829706Y-13138746D02*
X14820182Y-13091127D01*
X14820182Y-13091127D02*
X14810658Y-13062555D01*
X14810658Y-13062555D02*
X14801134Y-13043508D01*
X14801134Y-13043508D02*
X14782087Y-13014936D01*
X14782087Y-13014936D02*
X14772563Y-13005412D01*
X15134468Y-13310174D02*
X15124944Y-13300650D01*
X15124944Y-13300650D02*
X15105896Y-13272079D01*
X15105896Y-13272079D02*
X15096372Y-13253031D01*
X15096372Y-13253031D02*
X15086849Y-13224460D01*
X15086849Y-13224460D02*
X15077325Y-13176841D01*
X15077325Y-13176841D02*
X15077325Y-13138746D01*
X15077325Y-13138746D02*
X15086849Y-13091127D01*
X15086849Y-13091127D02*
X15096372Y-13062555D01*
X15096372Y-13062555D02*
X15105896Y-13043508D01*
X15105896Y-13043508D02*
X15124944Y-13014936D01*
X15124944Y-13014936D02*
X15134468Y-13005412D01*
X15210658Y-13100650D02*
X15210658Y-13233984D01*
X15210658Y-13119698D02*
X15220182Y-13110174D01*
X15220182Y-13110174D02*
X15239230Y-13100650D01*
X15239230Y-13100650D02*
X15267801Y-13100650D01*
X15267801Y-13100650D02*
X15286849Y-13110174D01*
X15286849Y-13110174D02*
X15296372Y-13129222D01*
X15296372Y-13129222D02*
X15296372Y-13233984D01*
X15420182Y-13233984D02*
X15401134Y-13224460D01*
X15401134Y-13224460D02*
X15391611Y-13214936D01*
X15391611Y-13214936D02*
X15382087Y-13195888D01*
X15382087Y-13195888D02*
X15382087Y-13138746D01*
X15382087Y-13138746D02*
X15391611Y-13119698D01*
X15391611Y-13119698D02*
X15401134Y-13110174D01*
X15401134Y-13110174D02*
X15420182Y-13100650D01*
X15420182Y-13100650D02*
X15448753Y-13100650D01*
X15448753Y-13100650D02*
X15467801Y-13110174D01*
X15467801Y-13110174D02*
X15477325Y-13119698D01*
X15477325Y-13119698D02*
X15486849Y-13138746D01*
X15486849Y-13138746D02*
X15486849Y-13195888D01*
X15486849Y-13195888D02*
X15477325Y-13214936D01*
X15477325Y-13214936D02*
X15467801Y-13224460D01*
X15467801Y-13224460D02*
X15448753Y-13233984D01*
X15448753Y-13233984D02*
X15420182Y-13233984D01*
X15543992Y-13100650D02*
X15620182Y-13100650D01*
X15572563Y-13033984D02*
X15572563Y-13205412D01*
X15572563Y-13205412D02*
X15582087Y-13224460D01*
X15582087Y-13224460D02*
X15601134Y-13233984D01*
X15601134Y-13233984D02*
X15620182Y-13233984D01*
X15839230Y-13100650D02*
X15839230Y-13300650D01*
X15839230Y-13110174D02*
X15858277Y-13100650D01*
X15858277Y-13100650D02*
X15896373Y-13100650D01*
X15896373Y-13100650D02*
X15915420Y-13110174D01*
X15915420Y-13110174D02*
X15924944Y-13119698D01*
X15924944Y-13119698D02*
X15934468Y-13138746D01*
X15934468Y-13138746D02*
X15934468Y-13195888D01*
X15934468Y-13195888D02*
X15924944Y-13214936D01*
X15924944Y-13214936D02*
X15915420Y-13224460D01*
X15915420Y-13224460D02*
X15896373Y-13233984D01*
X15896373Y-13233984D02*
X15858277Y-13233984D01*
X15858277Y-13233984D02*
X15839230Y-13224460D01*
X16048753Y-13233984D02*
X16029706Y-13224460D01*
X16029706Y-13224460D02*
X16020182Y-13205412D01*
X16020182Y-13205412D02*
X16020182Y-13033984D01*
X16210658Y-13233984D02*
X16210658Y-13129222D01*
X16210658Y-13129222D02*
X16201134Y-13110174D01*
X16201134Y-13110174D02*
X16182087Y-13100650D01*
X16182087Y-13100650D02*
X16143992Y-13100650D01*
X16143992Y-13100650D02*
X16124944Y-13110174D01*
X16210658Y-13224460D02*
X16191611Y-13233984D01*
X16191611Y-13233984D02*
X16143992Y-13233984D01*
X16143992Y-13233984D02*
X16124944Y-13224460D01*
X16124944Y-13224460D02*
X16115420Y-13205412D01*
X16115420Y-13205412D02*
X16115420Y-13186365D01*
X16115420Y-13186365D02*
X16124944Y-13167317D01*
X16124944Y-13167317D02*
X16143992Y-13157793D01*
X16143992Y-13157793D02*
X16191611Y-13157793D01*
X16191611Y-13157793D02*
X16210658Y-13148269D01*
X16277325Y-13100650D02*
X16353515Y-13100650D01*
X16305896Y-13033984D02*
X16305896Y-13205412D01*
X16305896Y-13205412D02*
X16315420Y-13224460D01*
X16315420Y-13224460D02*
X16334468Y-13233984D01*
X16334468Y-13233984D02*
X16353515Y-13233984D01*
X16496373Y-13224460D02*
X16477325Y-13233984D01*
X16477325Y-13233984D02*
X16439230Y-13233984D01*
X16439230Y-13233984D02*
X16420182Y-13224460D01*
X16420182Y-13224460D02*
X16410658Y-13205412D01*
X16410658Y-13205412D02*
X16410658Y-13129222D01*
X16410658Y-13129222D02*
X16420182Y-13110174D01*
X16420182Y-13110174D02*
X16439230Y-13100650D01*
X16439230Y-13100650D02*
X16477325Y-13100650D01*
X16477325Y-13100650D02*
X16496373Y-13110174D01*
X16496373Y-13110174D02*
X16505896Y-13129222D01*
X16505896Y-13129222D02*
X16505896Y-13148269D01*
X16505896Y-13148269D02*
X16410658Y-13167317D01*
X16677325Y-13233984D02*
X16677325Y-13033984D01*
X16677325Y-13224460D02*
X16658277Y-13233984D01*
X16658277Y-13233984D02*
X16620182Y-13233984D01*
X16620182Y-13233984D02*
X16601134Y-13224460D01*
X16601134Y-13224460D02*
X16591611Y-13214936D01*
X16591611Y-13214936D02*
X16582087Y-13195888D01*
X16582087Y-13195888D02*
X16582087Y-13138746D01*
X16582087Y-13138746D02*
X16591611Y-13119698D01*
X16591611Y-13119698D02*
X16601134Y-13110174D01*
X16601134Y-13110174D02*
X16620182Y-13100650D01*
X16620182Y-13100650D02*
X16658277Y-13100650D01*
X16658277Y-13100650D02*
X16677325Y-13110174D01*
X16753515Y-13310174D02*
X16763039Y-13300650D01*
X16763039Y-13300650D02*
X16782087Y-13272079D01*
X16782087Y-13272079D02*
X16791611Y-13253031D01*
X16791611Y-13253031D02*
X16801135Y-13224460D01*
X16801135Y-13224460D02*
X16810658Y-13176841D01*
X16810658Y-13176841D02*
X16810658Y-13138746D01*
X16810658Y-13138746D02*
X16801135Y-13091127D01*
X16801135Y-13091127D02*
X16791611Y-13062555D01*
X16791611Y-13062555D02*
X16782087Y-13043508D01*
X16782087Y-13043508D02*
X16763039Y-13014936D01*
X16763039Y-13014936D02*
X16753515Y-13005412D01*
D13*
X9997500Y-13406500D02*
G75*
G02*
X9887500Y-13406500I-55000J0D01*
G01*
X9887500Y-13406500D02*
G75*
G02*
X9997500Y-13406500I55000J0D01*
G01*
D11*
X10363039Y-13497984D02*
X10248753Y-13497984D01*
X10305896Y-13497984D02*
X10305896Y-13297984D01*
X10305896Y-13297984D02*
X10286848Y-13326555D01*
X10286848Y-13326555D02*
X10267801Y-13345603D01*
X10267801Y-13345603D02*
X10248753Y-13355127D01*
X10448753Y-13478936D02*
X10458277Y-13488460D01*
X10458277Y-13488460D02*
X10448753Y-13497984D01*
X10448753Y-13497984D02*
X10439229Y-13488460D01*
X10439229Y-13488460D02*
X10448753Y-13478936D01*
X10448753Y-13478936D02*
X10448753Y-13497984D01*
X10648753Y-13497984D02*
X10534467Y-13497984D01*
X10591610Y-13497984D02*
X10591610Y-13297984D01*
X10591610Y-13297984D02*
X10572563Y-13326555D01*
X10572563Y-13326555D02*
X10553515Y-13345603D01*
X10553515Y-13345603D02*
X10534467Y-13355127D01*
X10772563Y-13297984D02*
X10791610Y-13297984D01*
X10791610Y-13297984D02*
X10810658Y-13307508D01*
X10810658Y-13307508D02*
X10820182Y-13317031D01*
X10820182Y-13317031D02*
X10829705Y-13336079D01*
X10829705Y-13336079D02*
X10839229Y-13374174D01*
X10839229Y-13374174D02*
X10839229Y-13421793D01*
X10839229Y-13421793D02*
X10829705Y-13459888D01*
X10829705Y-13459888D02*
X10820182Y-13478936D01*
X10820182Y-13478936D02*
X10810658Y-13488460D01*
X10810658Y-13488460D02*
X10791610Y-13497984D01*
X10791610Y-13497984D02*
X10772563Y-13497984D01*
X10772563Y-13497984D02*
X10753515Y-13488460D01*
X10753515Y-13488460D02*
X10743991Y-13478936D01*
X10743991Y-13478936D02*
X10734467Y-13459888D01*
X10734467Y-13459888D02*
X10724944Y-13421793D01*
X10724944Y-13421793D02*
X10724944Y-13374174D01*
X10724944Y-13374174D02*
X10734467Y-13336079D01*
X10734467Y-13336079D02*
X10743991Y-13317031D01*
X10743991Y-13317031D02*
X10753515Y-13307508D01*
X10753515Y-13307508D02*
X10772563Y-13297984D01*
X10963039Y-13297984D02*
X10982086Y-13297984D01*
X10982086Y-13297984D02*
X11001134Y-13307508D01*
X11001134Y-13307508D02*
X11010658Y-13317031D01*
X11010658Y-13317031D02*
X11020182Y-13336079D01*
X11020182Y-13336079D02*
X11029705Y-13374174D01*
X11029705Y-13374174D02*
X11029705Y-13421793D01*
X11029705Y-13421793D02*
X11020182Y-13459888D01*
X11020182Y-13459888D02*
X11010658Y-13478936D01*
X11010658Y-13478936D02*
X11001134Y-13488460D01*
X11001134Y-13488460D02*
X10982086Y-13497984D01*
X10982086Y-13497984D02*
X10963039Y-13497984D01*
X10963039Y-13497984D02*
X10943991Y-13488460D01*
X10943991Y-13488460D02*
X10934467Y-13478936D01*
X10934467Y-13478936D02*
X10924944Y-13459888D01*
X10924944Y-13459888D02*
X10915420Y-13421793D01*
X10915420Y-13421793D02*
X10915420Y-13374174D01*
X10915420Y-13374174D02*
X10924944Y-13336079D01*
X10924944Y-13336079D02*
X10934467Y-13317031D01*
X10934467Y-13317031D02*
X10943991Y-13307508D01*
X10943991Y-13307508D02*
X10963039Y-13297984D01*
X11115420Y-13497984D02*
X11115420Y-13364650D01*
X11115420Y-13383698D02*
X11124944Y-13374174D01*
X11124944Y-13374174D02*
X11143991Y-13364650D01*
X11143991Y-13364650D02*
X11172563Y-13364650D01*
X11172563Y-13364650D02*
X11191610Y-13374174D01*
X11191610Y-13374174D02*
X11201134Y-13393222D01*
X11201134Y-13393222D02*
X11201134Y-13497984D01*
X11201134Y-13393222D02*
X11210658Y-13374174D01*
X11210658Y-13374174D02*
X11229705Y-13364650D01*
X11229705Y-13364650D02*
X11258277Y-13364650D01*
X11258277Y-13364650D02*
X11277324Y-13374174D01*
X11277324Y-13374174D02*
X11286848Y-13393222D01*
X11286848Y-13393222D02*
X11286848Y-13497984D01*
X11382086Y-13497984D02*
X11382086Y-13364650D01*
X11382086Y-13383698D02*
X11391610Y-13374174D01*
X11391610Y-13374174D02*
X11410658Y-13364650D01*
X11410658Y-13364650D02*
X11439229Y-13364650D01*
X11439229Y-13364650D02*
X11458277Y-13374174D01*
X11458277Y-13374174D02*
X11467801Y-13393222D01*
X11467801Y-13393222D02*
X11467801Y-13497984D01*
X11467801Y-13393222D02*
X11477324Y-13374174D01*
X11477324Y-13374174D02*
X11496372Y-13364650D01*
X11496372Y-13364650D02*
X11524943Y-13364650D01*
X11524943Y-13364650D02*
X11543991Y-13374174D01*
X11543991Y-13374174D02*
X11553515Y-13393222D01*
X11553515Y-13393222D02*
X11553515Y-13497984D01*
X11943991Y-13288460D02*
X11772563Y-13545603D01*
X12201134Y-13297984D02*
X12220182Y-13297984D01*
X12220182Y-13297984D02*
X12239229Y-13307508D01*
X12239229Y-13307508D02*
X12248753Y-13317031D01*
X12248753Y-13317031D02*
X12258277Y-13336079D01*
X12258277Y-13336079D02*
X12267801Y-13374174D01*
X12267801Y-13374174D02*
X12267801Y-13421793D01*
X12267801Y-13421793D02*
X12258277Y-13459888D01*
X12258277Y-13459888D02*
X12248753Y-13478936D01*
X12248753Y-13478936D02*
X12239229Y-13488460D01*
X12239229Y-13488460D02*
X12220182Y-13497984D01*
X12220182Y-13497984D02*
X12201134Y-13497984D01*
X12201134Y-13497984D02*
X12182086Y-13488460D01*
X12182086Y-13488460D02*
X12172563Y-13478936D01*
X12172563Y-13478936D02*
X12163039Y-13459888D01*
X12163039Y-13459888D02*
X12153515Y-13421793D01*
X12153515Y-13421793D02*
X12153515Y-13374174D01*
X12153515Y-13374174D02*
X12163039Y-13336079D01*
X12163039Y-13336079D02*
X12172563Y-13317031D01*
X12172563Y-13317031D02*
X12182086Y-13307508D01*
X12182086Y-13307508D02*
X12201134Y-13297984D01*
X12353515Y-13478936D02*
X12363039Y-13488460D01*
X12363039Y-13488460D02*
X12353515Y-13497984D01*
X12353515Y-13497984D02*
X12343991Y-13488460D01*
X12343991Y-13488460D02*
X12353515Y-13478936D01*
X12353515Y-13478936D02*
X12353515Y-13497984D01*
X12486848Y-13297984D02*
X12505896Y-13297984D01*
X12505896Y-13297984D02*
X12524944Y-13307508D01*
X12524944Y-13307508D02*
X12534467Y-13317031D01*
X12534467Y-13317031D02*
X12543991Y-13336079D01*
X12543991Y-13336079D02*
X12553515Y-13374174D01*
X12553515Y-13374174D02*
X12553515Y-13421793D01*
X12553515Y-13421793D02*
X12543991Y-13459888D01*
X12543991Y-13459888D02*
X12534467Y-13478936D01*
X12534467Y-13478936D02*
X12524944Y-13488460D01*
X12524944Y-13488460D02*
X12505896Y-13497984D01*
X12505896Y-13497984D02*
X12486848Y-13497984D01*
X12486848Y-13497984D02*
X12467801Y-13488460D01*
X12467801Y-13488460D02*
X12458277Y-13478936D01*
X12458277Y-13478936D02*
X12448753Y-13459888D01*
X12448753Y-13459888D02*
X12439229Y-13421793D01*
X12439229Y-13421793D02*
X12439229Y-13374174D01*
X12439229Y-13374174D02*
X12448753Y-13336079D01*
X12448753Y-13336079D02*
X12458277Y-13317031D01*
X12458277Y-13317031D02*
X12467801Y-13307508D01*
X12467801Y-13307508D02*
X12486848Y-13297984D01*
X12724944Y-13364650D02*
X12724944Y-13497984D01*
X12677325Y-13288460D02*
X12629706Y-13431317D01*
X12629706Y-13431317D02*
X12753515Y-13431317D01*
X12810658Y-13297984D02*
X12934467Y-13297984D01*
X12934467Y-13297984D02*
X12867801Y-13374174D01*
X12867801Y-13374174D02*
X12896372Y-13374174D01*
X12896372Y-13374174D02*
X12915420Y-13383698D01*
X12915420Y-13383698D02*
X12924944Y-13393222D01*
X12924944Y-13393222D02*
X12934467Y-13412269D01*
X12934467Y-13412269D02*
X12934467Y-13459888D01*
X12934467Y-13459888D02*
X12924944Y-13478936D01*
X12924944Y-13478936D02*
X12915420Y-13488460D01*
X12915420Y-13488460D02*
X12896372Y-13497984D01*
X12896372Y-13497984D02*
X12839229Y-13497984D01*
X12839229Y-13497984D02*
X12820182Y-13488460D01*
X12820182Y-13488460D02*
X12810658Y-13478936D01*
X13001134Y-13297984D02*
X13124944Y-13297984D01*
X13124944Y-13297984D02*
X13058277Y-13374174D01*
X13058277Y-13374174D02*
X13086848Y-13374174D01*
X13086848Y-13374174D02*
X13105896Y-13383698D01*
X13105896Y-13383698D02*
X13115420Y-13393222D01*
X13115420Y-13393222D02*
X13124944Y-13412269D01*
X13124944Y-13412269D02*
X13124944Y-13459888D01*
X13124944Y-13459888D02*
X13115420Y-13478936D01*
X13115420Y-13478936D02*
X13105896Y-13488460D01*
X13105896Y-13488460D02*
X13086848Y-13497984D01*
X13086848Y-13497984D02*
X13029706Y-13497984D01*
X13029706Y-13497984D02*
X13010658Y-13488460D01*
X13010658Y-13488460D02*
X13001134Y-13478936D01*
X13201134Y-13297984D02*
X13201134Y-13336079D01*
X13277325Y-13297984D02*
X13277325Y-13336079D01*
X13572563Y-13574174D02*
X13563039Y-13564650D01*
X13563039Y-13564650D02*
X13543991Y-13536079D01*
X13543991Y-13536079D02*
X13534468Y-13517031D01*
X13534468Y-13517031D02*
X13524944Y-13488460D01*
X13524944Y-13488460D02*
X13515420Y-13440841D01*
X13515420Y-13440841D02*
X13515420Y-13402746D01*
X13515420Y-13402746D02*
X13524944Y-13355127D01*
X13524944Y-13355127D02*
X13534468Y-13326555D01*
X13534468Y-13326555D02*
X13543991Y-13307508D01*
X13543991Y-13307508D02*
X13563039Y-13278936D01*
X13563039Y-13278936D02*
X13572563Y-13269412D01*
X13639229Y-13317031D02*
X13648753Y-13307508D01*
X13648753Y-13307508D02*
X13667801Y-13297984D01*
X13667801Y-13297984D02*
X13715420Y-13297984D01*
X13715420Y-13297984D02*
X13734468Y-13307508D01*
X13734468Y-13307508D02*
X13743991Y-13317031D01*
X13743991Y-13317031D02*
X13753515Y-13336079D01*
X13753515Y-13336079D02*
X13753515Y-13355127D01*
X13753515Y-13355127D02*
X13743991Y-13383698D01*
X13743991Y-13383698D02*
X13629706Y-13497984D01*
X13629706Y-13497984D02*
X13753515Y-13497984D01*
X13991610Y-13497984D02*
X13991610Y-13297984D01*
X14077325Y-13497984D02*
X14077325Y-13393222D01*
X14077325Y-13393222D02*
X14067801Y-13374174D01*
X14067801Y-13374174D02*
X14048753Y-13364650D01*
X14048753Y-13364650D02*
X14020182Y-13364650D01*
X14020182Y-13364650D02*
X14001134Y-13374174D01*
X14001134Y-13374174D02*
X13991610Y-13383698D01*
X14201134Y-13497984D02*
X14182087Y-13488460D01*
X14182087Y-13488460D02*
X14172563Y-13478936D01*
X14172563Y-13478936D02*
X14163039Y-13459888D01*
X14163039Y-13459888D02*
X14163039Y-13402746D01*
X14163039Y-13402746D02*
X14172563Y-13383698D01*
X14172563Y-13383698D02*
X14182087Y-13374174D01*
X14182087Y-13374174D02*
X14201134Y-13364650D01*
X14201134Y-13364650D02*
X14229706Y-13364650D01*
X14229706Y-13364650D02*
X14248753Y-13374174D01*
X14248753Y-13374174D02*
X14258277Y-13383698D01*
X14258277Y-13383698D02*
X14267801Y-13402746D01*
X14267801Y-13402746D02*
X14267801Y-13459888D01*
X14267801Y-13459888D02*
X14258277Y-13478936D01*
X14258277Y-13478936D02*
X14248753Y-13488460D01*
X14248753Y-13488460D02*
X14229706Y-13497984D01*
X14229706Y-13497984D02*
X14201134Y-13497984D01*
X14382087Y-13497984D02*
X14363039Y-13488460D01*
X14363039Y-13488460D02*
X14353515Y-13469412D01*
X14353515Y-13469412D02*
X14353515Y-13297984D01*
X14534468Y-13488460D02*
X14515420Y-13497984D01*
X14515420Y-13497984D02*
X14477325Y-13497984D01*
X14477325Y-13497984D02*
X14458277Y-13488460D01*
X14458277Y-13488460D02*
X14448753Y-13469412D01*
X14448753Y-13469412D02*
X14448753Y-13393222D01*
X14448753Y-13393222D02*
X14458277Y-13374174D01*
X14458277Y-13374174D02*
X14477325Y-13364650D01*
X14477325Y-13364650D02*
X14515420Y-13364650D01*
X14515420Y-13364650D02*
X14534468Y-13374174D01*
X14534468Y-13374174D02*
X14543991Y-13393222D01*
X14543991Y-13393222D02*
X14543991Y-13412269D01*
X14543991Y-13412269D02*
X14448753Y-13431317D01*
X14620182Y-13488460D02*
X14639230Y-13497984D01*
X14639230Y-13497984D02*
X14677325Y-13497984D01*
X14677325Y-13497984D02*
X14696372Y-13488460D01*
X14696372Y-13488460D02*
X14705896Y-13469412D01*
X14705896Y-13469412D02*
X14705896Y-13459888D01*
X14705896Y-13459888D02*
X14696372Y-13440841D01*
X14696372Y-13440841D02*
X14677325Y-13431317D01*
X14677325Y-13431317D02*
X14648753Y-13431317D01*
X14648753Y-13431317D02*
X14629706Y-13421793D01*
X14629706Y-13421793D02*
X14620182Y-13402746D01*
X14620182Y-13402746D02*
X14620182Y-13393222D01*
X14620182Y-13393222D02*
X14629706Y-13374174D01*
X14629706Y-13374174D02*
X14648753Y-13364650D01*
X14648753Y-13364650D02*
X14677325Y-13364650D01*
X14677325Y-13364650D02*
X14696372Y-13374174D01*
X14772563Y-13574174D02*
X14782087Y-13564650D01*
X14782087Y-13564650D02*
X14801134Y-13536079D01*
X14801134Y-13536079D02*
X14810658Y-13517031D01*
X14810658Y-13517031D02*
X14820182Y-13488460D01*
X14820182Y-13488460D02*
X14829706Y-13440841D01*
X14829706Y-13440841D02*
X14829706Y-13402746D01*
X14829706Y-13402746D02*
X14820182Y-13355127D01*
X14820182Y-13355127D02*
X14810658Y-13326555D01*
X14810658Y-13326555D02*
X14801134Y-13307508D01*
X14801134Y-13307508D02*
X14782087Y-13278936D01*
X14782087Y-13278936D02*
X14772563Y-13269412D01*
X15134468Y-13574174D02*
X15124944Y-13564650D01*
X15124944Y-13564650D02*
X15105896Y-13536079D01*
X15105896Y-13536079D02*
X15096372Y-13517031D01*
X15096372Y-13517031D02*
X15086849Y-13488460D01*
X15086849Y-13488460D02*
X15077325Y-13440841D01*
X15077325Y-13440841D02*
X15077325Y-13402746D01*
X15077325Y-13402746D02*
X15086849Y-13355127D01*
X15086849Y-13355127D02*
X15096372Y-13326555D01*
X15096372Y-13326555D02*
X15105896Y-13307508D01*
X15105896Y-13307508D02*
X15124944Y-13278936D01*
X15124944Y-13278936D02*
X15134468Y-13269412D01*
X15210658Y-13364650D02*
X15210658Y-13497984D01*
X15210658Y-13383698D02*
X15220182Y-13374174D01*
X15220182Y-13374174D02*
X15239230Y-13364650D01*
X15239230Y-13364650D02*
X15267801Y-13364650D01*
X15267801Y-13364650D02*
X15286849Y-13374174D01*
X15286849Y-13374174D02*
X15296372Y-13393222D01*
X15296372Y-13393222D02*
X15296372Y-13497984D01*
X15420182Y-13497984D02*
X15401134Y-13488460D01*
X15401134Y-13488460D02*
X15391611Y-13478936D01*
X15391611Y-13478936D02*
X15382087Y-13459888D01*
X15382087Y-13459888D02*
X15382087Y-13402746D01*
X15382087Y-13402746D02*
X15391611Y-13383698D01*
X15391611Y-13383698D02*
X15401134Y-13374174D01*
X15401134Y-13374174D02*
X15420182Y-13364650D01*
X15420182Y-13364650D02*
X15448753Y-13364650D01*
X15448753Y-13364650D02*
X15467801Y-13374174D01*
X15467801Y-13374174D02*
X15477325Y-13383698D01*
X15477325Y-13383698D02*
X15486849Y-13402746D01*
X15486849Y-13402746D02*
X15486849Y-13459888D01*
X15486849Y-13459888D02*
X15477325Y-13478936D01*
X15477325Y-13478936D02*
X15467801Y-13488460D01*
X15467801Y-13488460D02*
X15448753Y-13497984D01*
X15448753Y-13497984D02*
X15420182Y-13497984D01*
X15543992Y-13364650D02*
X15620182Y-13364650D01*
X15572563Y-13297984D02*
X15572563Y-13469412D01*
X15572563Y-13469412D02*
X15582087Y-13488460D01*
X15582087Y-13488460D02*
X15601134Y-13497984D01*
X15601134Y-13497984D02*
X15620182Y-13497984D01*
X15839230Y-13364650D02*
X15839230Y-13564650D01*
X15839230Y-13374174D02*
X15858277Y-13364650D01*
X15858277Y-13364650D02*
X15896373Y-13364650D01*
X15896373Y-13364650D02*
X15915420Y-13374174D01*
X15915420Y-13374174D02*
X15924944Y-13383698D01*
X15924944Y-13383698D02*
X15934468Y-13402746D01*
X15934468Y-13402746D02*
X15934468Y-13459888D01*
X15934468Y-13459888D02*
X15924944Y-13478936D01*
X15924944Y-13478936D02*
X15915420Y-13488460D01*
X15915420Y-13488460D02*
X15896373Y-13497984D01*
X15896373Y-13497984D02*
X15858277Y-13497984D01*
X15858277Y-13497984D02*
X15839230Y-13488460D01*
X16048753Y-13497984D02*
X16029706Y-13488460D01*
X16029706Y-13488460D02*
X16020182Y-13469412D01*
X16020182Y-13469412D02*
X16020182Y-13297984D01*
X16210658Y-13497984D02*
X16210658Y-13393222D01*
X16210658Y-13393222D02*
X16201134Y-13374174D01*
X16201134Y-13374174D02*
X16182087Y-13364650D01*
X16182087Y-13364650D02*
X16143992Y-13364650D01*
X16143992Y-13364650D02*
X16124944Y-13374174D01*
X16210658Y-13488460D02*
X16191611Y-13497984D01*
X16191611Y-13497984D02*
X16143992Y-13497984D01*
X16143992Y-13497984D02*
X16124944Y-13488460D01*
X16124944Y-13488460D02*
X16115420Y-13469412D01*
X16115420Y-13469412D02*
X16115420Y-13450365D01*
X16115420Y-13450365D02*
X16124944Y-13431317D01*
X16124944Y-13431317D02*
X16143992Y-13421793D01*
X16143992Y-13421793D02*
X16191611Y-13421793D01*
X16191611Y-13421793D02*
X16210658Y-13412269D01*
X16277325Y-13364650D02*
X16353515Y-13364650D01*
X16305896Y-13297984D02*
X16305896Y-13469412D01*
X16305896Y-13469412D02*
X16315420Y-13488460D01*
X16315420Y-13488460D02*
X16334468Y-13497984D01*
X16334468Y-13497984D02*
X16353515Y-13497984D01*
X16496373Y-13488460D02*
X16477325Y-13497984D01*
X16477325Y-13497984D02*
X16439230Y-13497984D01*
X16439230Y-13497984D02*
X16420182Y-13488460D01*
X16420182Y-13488460D02*
X16410658Y-13469412D01*
X16410658Y-13469412D02*
X16410658Y-13393222D01*
X16410658Y-13393222D02*
X16420182Y-13374174D01*
X16420182Y-13374174D02*
X16439230Y-13364650D01*
X16439230Y-13364650D02*
X16477325Y-13364650D01*
X16477325Y-13364650D02*
X16496373Y-13374174D01*
X16496373Y-13374174D02*
X16505896Y-13393222D01*
X16505896Y-13393222D02*
X16505896Y-13412269D01*
X16505896Y-13412269D02*
X16410658Y-13431317D01*
X16677325Y-13497984D02*
X16677325Y-13297984D01*
X16677325Y-13488460D02*
X16658277Y-13497984D01*
X16658277Y-13497984D02*
X16620182Y-13497984D01*
X16620182Y-13497984D02*
X16601134Y-13488460D01*
X16601134Y-13488460D02*
X16591611Y-13478936D01*
X16591611Y-13478936D02*
X16582087Y-13459888D01*
X16582087Y-13459888D02*
X16582087Y-13402746D01*
X16582087Y-13402746D02*
X16591611Y-13383698D01*
X16591611Y-13383698D02*
X16601134Y-13374174D01*
X16601134Y-13374174D02*
X16620182Y-13364650D01*
X16620182Y-13364650D02*
X16658277Y-13364650D01*
X16658277Y-13364650D02*
X16677325Y-13374174D01*
X16753515Y-13574174D02*
X16763039Y-13564650D01*
X16763039Y-13564650D02*
X16782087Y-13536079D01*
X16782087Y-13536079D02*
X16791611Y-13517031D01*
X16791611Y-13517031D02*
X16801135Y-13488460D01*
X16801135Y-13488460D02*
X16810658Y-13440841D01*
X16810658Y-13440841D02*
X16810658Y-13402746D01*
X16810658Y-13402746D02*
X16801135Y-13355127D01*
X16801135Y-13355127D02*
X16791611Y-13326555D01*
X16791611Y-13326555D02*
X16782087Y-13307508D01*
X16782087Y-13307508D02*
X16763039Y-13278936D01*
X16763039Y-13278936D02*
X16753515Y-13269412D01*
D14*
X9932500Y-13605500D02*
X9932500Y-13735500D01*
X9867500Y-13670500D02*
X9997500Y-13670500D01*
D11*
X10363039Y-13761984D02*
X10248753Y-13761984D01*
X10305896Y-13761984D02*
X10305896Y-13561984D01*
X10305896Y-13561984D02*
X10286848Y-13590555D01*
X10286848Y-13590555D02*
X10267801Y-13609603D01*
X10267801Y-13609603D02*
X10248753Y-13619127D01*
X10448753Y-13742936D02*
X10458277Y-13752460D01*
X10458277Y-13752460D02*
X10448753Y-13761984D01*
X10448753Y-13761984D02*
X10439229Y-13752460D01*
X10439229Y-13752460D02*
X10448753Y-13742936D01*
X10448753Y-13742936D02*
X10448753Y-13761984D01*
X10524944Y-13561984D02*
X10648753Y-13561984D01*
X10648753Y-13561984D02*
X10582086Y-13638174D01*
X10582086Y-13638174D02*
X10610658Y-13638174D01*
X10610658Y-13638174D02*
X10629705Y-13647698D01*
X10629705Y-13647698D02*
X10639229Y-13657222D01*
X10639229Y-13657222D02*
X10648753Y-13676269D01*
X10648753Y-13676269D02*
X10648753Y-13723888D01*
X10648753Y-13723888D02*
X10639229Y-13742936D01*
X10639229Y-13742936D02*
X10629705Y-13752460D01*
X10629705Y-13752460D02*
X10610658Y-13761984D01*
X10610658Y-13761984D02*
X10553515Y-13761984D01*
X10553515Y-13761984D02*
X10534467Y-13752460D01*
X10534467Y-13752460D02*
X10524944Y-13742936D01*
X10772563Y-13561984D02*
X10791610Y-13561984D01*
X10791610Y-13561984D02*
X10810658Y-13571508D01*
X10810658Y-13571508D02*
X10820182Y-13581031D01*
X10820182Y-13581031D02*
X10829705Y-13600079D01*
X10829705Y-13600079D02*
X10839229Y-13638174D01*
X10839229Y-13638174D02*
X10839229Y-13685793D01*
X10839229Y-13685793D02*
X10829705Y-13723888D01*
X10829705Y-13723888D02*
X10820182Y-13742936D01*
X10820182Y-13742936D02*
X10810658Y-13752460D01*
X10810658Y-13752460D02*
X10791610Y-13761984D01*
X10791610Y-13761984D02*
X10772563Y-13761984D01*
X10772563Y-13761984D02*
X10753515Y-13752460D01*
X10753515Y-13752460D02*
X10743991Y-13742936D01*
X10743991Y-13742936D02*
X10734467Y-13723888D01*
X10734467Y-13723888D02*
X10724944Y-13685793D01*
X10724944Y-13685793D02*
X10724944Y-13638174D01*
X10724944Y-13638174D02*
X10734467Y-13600079D01*
X10734467Y-13600079D02*
X10743991Y-13581031D01*
X10743991Y-13581031D02*
X10753515Y-13571508D01*
X10753515Y-13571508D02*
X10772563Y-13561984D01*
X10963039Y-13561984D02*
X10982086Y-13561984D01*
X10982086Y-13561984D02*
X11001134Y-13571508D01*
X11001134Y-13571508D02*
X11010658Y-13581031D01*
X11010658Y-13581031D02*
X11020182Y-13600079D01*
X11020182Y-13600079D02*
X11029705Y-13638174D01*
X11029705Y-13638174D02*
X11029705Y-13685793D01*
X11029705Y-13685793D02*
X11020182Y-13723888D01*
X11020182Y-13723888D02*
X11010658Y-13742936D01*
X11010658Y-13742936D02*
X11001134Y-13752460D01*
X11001134Y-13752460D02*
X10982086Y-13761984D01*
X10982086Y-13761984D02*
X10963039Y-13761984D01*
X10963039Y-13761984D02*
X10943991Y-13752460D01*
X10943991Y-13752460D02*
X10934467Y-13742936D01*
X10934467Y-13742936D02*
X10924944Y-13723888D01*
X10924944Y-13723888D02*
X10915420Y-13685793D01*
X10915420Y-13685793D02*
X10915420Y-13638174D01*
X10915420Y-13638174D02*
X10924944Y-13600079D01*
X10924944Y-13600079D02*
X10934467Y-13581031D01*
X10934467Y-13581031D02*
X10943991Y-13571508D01*
X10943991Y-13571508D02*
X10963039Y-13561984D01*
X11115420Y-13761984D02*
X11115420Y-13628650D01*
X11115420Y-13647698D02*
X11124944Y-13638174D01*
X11124944Y-13638174D02*
X11143991Y-13628650D01*
X11143991Y-13628650D02*
X11172563Y-13628650D01*
X11172563Y-13628650D02*
X11191610Y-13638174D01*
X11191610Y-13638174D02*
X11201134Y-13657222D01*
X11201134Y-13657222D02*
X11201134Y-13761984D01*
X11201134Y-13657222D02*
X11210658Y-13638174D01*
X11210658Y-13638174D02*
X11229705Y-13628650D01*
X11229705Y-13628650D02*
X11258277Y-13628650D01*
X11258277Y-13628650D02*
X11277324Y-13638174D01*
X11277324Y-13638174D02*
X11286848Y-13657222D01*
X11286848Y-13657222D02*
X11286848Y-13761984D01*
X11382086Y-13761984D02*
X11382086Y-13628650D01*
X11382086Y-13647698D02*
X11391610Y-13638174D01*
X11391610Y-13638174D02*
X11410658Y-13628650D01*
X11410658Y-13628650D02*
X11439229Y-13628650D01*
X11439229Y-13628650D02*
X11458277Y-13638174D01*
X11458277Y-13638174D02*
X11467801Y-13657222D01*
X11467801Y-13657222D02*
X11467801Y-13761984D01*
X11467801Y-13657222D02*
X11477324Y-13638174D01*
X11477324Y-13638174D02*
X11496372Y-13628650D01*
X11496372Y-13628650D02*
X11524943Y-13628650D01*
X11524943Y-13628650D02*
X11543991Y-13638174D01*
X11543991Y-13638174D02*
X11553515Y-13657222D01*
X11553515Y-13657222D02*
X11553515Y-13761984D01*
X11943991Y-13552460D02*
X11772563Y-13809603D01*
X12201134Y-13561984D02*
X12220182Y-13561984D01*
X12220182Y-13561984D02*
X12239229Y-13571508D01*
X12239229Y-13571508D02*
X12248753Y-13581031D01*
X12248753Y-13581031D02*
X12258277Y-13600079D01*
X12258277Y-13600079D02*
X12267801Y-13638174D01*
X12267801Y-13638174D02*
X12267801Y-13685793D01*
X12267801Y-13685793D02*
X12258277Y-13723888D01*
X12258277Y-13723888D02*
X12248753Y-13742936D01*
X12248753Y-13742936D02*
X12239229Y-13752460D01*
X12239229Y-13752460D02*
X12220182Y-13761984D01*
X12220182Y-13761984D02*
X12201134Y-13761984D01*
X12201134Y-13761984D02*
X12182086Y-13752460D01*
X12182086Y-13752460D02*
X12172563Y-13742936D01*
X12172563Y-13742936D02*
X12163039Y-13723888D01*
X12163039Y-13723888D02*
X12153515Y-13685793D01*
X12153515Y-13685793D02*
X12153515Y-13638174D01*
X12153515Y-13638174D02*
X12163039Y-13600079D01*
X12163039Y-13600079D02*
X12172563Y-13581031D01*
X12172563Y-13581031D02*
X12182086Y-13571508D01*
X12182086Y-13571508D02*
X12201134Y-13561984D01*
X12353515Y-13742936D02*
X12363039Y-13752460D01*
X12363039Y-13752460D02*
X12353515Y-13761984D01*
X12353515Y-13761984D02*
X12343991Y-13752460D01*
X12343991Y-13752460D02*
X12353515Y-13742936D01*
X12353515Y-13742936D02*
X12353515Y-13761984D01*
X12486848Y-13561984D02*
X12505896Y-13561984D01*
X12505896Y-13561984D02*
X12524944Y-13571508D01*
X12524944Y-13571508D02*
X12534467Y-13581031D01*
X12534467Y-13581031D02*
X12543991Y-13600079D01*
X12543991Y-13600079D02*
X12553515Y-13638174D01*
X12553515Y-13638174D02*
X12553515Y-13685793D01*
X12553515Y-13685793D02*
X12543991Y-13723888D01*
X12543991Y-13723888D02*
X12534467Y-13742936D01*
X12534467Y-13742936D02*
X12524944Y-13752460D01*
X12524944Y-13752460D02*
X12505896Y-13761984D01*
X12505896Y-13761984D02*
X12486848Y-13761984D01*
X12486848Y-13761984D02*
X12467801Y-13752460D01*
X12467801Y-13752460D02*
X12458277Y-13742936D01*
X12458277Y-13742936D02*
X12448753Y-13723888D01*
X12448753Y-13723888D02*
X12439229Y-13685793D01*
X12439229Y-13685793D02*
X12439229Y-13638174D01*
X12439229Y-13638174D02*
X12448753Y-13600079D01*
X12448753Y-13600079D02*
X12458277Y-13581031D01*
X12458277Y-13581031D02*
X12467801Y-13571508D01*
X12467801Y-13571508D02*
X12486848Y-13561984D01*
X12734467Y-13561984D02*
X12639229Y-13561984D01*
X12639229Y-13561984D02*
X12629706Y-13657222D01*
X12629706Y-13657222D02*
X12639229Y-13647698D01*
X12639229Y-13647698D02*
X12658277Y-13638174D01*
X12658277Y-13638174D02*
X12705896Y-13638174D01*
X12705896Y-13638174D02*
X12724944Y-13647698D01*
X12724944Y-13647698D02*
X12734467Y-13657222D01*
X12734467Y-13657222D02*
X12743991Y-13676269D01*
X12743991Y-13676269D02*
X12743991Y-13723888D01*
X12743991Y-13723888D02*
X12734467Y-13742936D01*
X12734467Y-13742936D02*
X12724944Y-13752460D01*
X12724944Y-13752460D02*
X12705896Y-13761984D01*
X12705896Y-13761984D02*
X12658277Y-13761984D01*
X12658277Y-13761984D02*
X12639229Y-13752460D01*
X12639229Y-13752460D02*
X12629706Y-13742936D01*
X12934467Y-13761984D02*
X12820182Y-13761984D01*
X12877325Y-13761984D02*
X12877325Y-13561984D01*
X12877325Y-13561984D02*
X12858277Y-13590555D01*
X12858277Y-13590555D02*
X12839229Y-13609603D01*
X12839229Y-13609603D02*
X12820182Y-13619127D01*
X13010658Y-13581031D02*
X13020182Y-13571508D01*
X13020182Y-13571508D02*
X13039229Y-13561984D01*
X13039229Y-13561984D02*
X13086848Y-13561984D01*
X13086848Y-13561984D02*
X13105896Y-13571508D01*
X13105896Y-13571508D02*
X13115420Y-13581031D01*
X13115420Y-13581031D02*
X13124944Y-13600079D01*
X13124944Y-13600079D02*
X13124944Y-13619127D01*
X13124944Y-13619127D02*
X13115420Y-13647698D01*
X13115420Y-13647698D02*
X13001134Y-13761984D01*
X13001134Y-13761984D02*
X13124944Y-13761984D01*
X13201134Y-13561984D02*
X13201134Y-13600079D01*
X13277325Y-13561984D02*
X13277325Y-13600079D01*
X13572563Y-13838174D02*
X13563039Y-13828650D01*
X13563039Y-13828650D02*
X13543991Y-13800079D01*
X13543991Y-13800079D02*
X13534468Y-13781031D01*
X13534468Y-13781031D02*
X13524944Y-13752460D01*
X13524944Y-13752460D02*
X13515420Y-13704841D01*
X13515420Y-13704841D02*
X13515420Y-13666746D01*
X13515420Y-13666746D02*
X13524944Y-13619127D01*
X13524944Y-13619127D02*
X13534468Y-13590555D01*
X13534468Y-13590555D02*
X13543991Y-13571508D01*
X13543991Y-13571508D02*
X13563039Y-13542936D01*
X13563039Y-13542936D02*
X13572563Y-13533412D01*
X13639229Y-13581031D02*
X13648753Y-13571508D01*
X13648753Y-13571508D02*
X13667801Y-13561984D01*
X13667801Y-13561984D02*
X13715420Y-13561984D01*
X13715420Y-13561984D02*
X13734468Y-13571508D01*
X13734468Y-13571508D02*
X13743991Y-13581031D01*
X13743991Y-13581031D02*
X13753515Y-13600079D01*
X13753515Y-13600079D02*
X13753515Y-13619127D01*
X13753515Y-13619127D02*
X13743991Y-13647698D01*
X13743991Y-13647698D02*
X13629706Y-13761984D01*
X13629706Y-13761984D02*
X13753515Y-13761984D01*
X13991610Y-13761984D02*
X13991610Y-13561984D01*
X14077325Y-13761984D02*
X14077325Y-13657222D01*
X14077325Y-13657222D02*
X14067801Y-13638174D01*
X14067801Y-13638174D02*
X14048753Y-13628650D01*
X14048753Y-13628650D02*
X14020182Y-13628650D01*
X14020182Y-13628650D02*
X14001134Y-13638174D01*
X14001134Y-13638174D02*
X13991610Y-13647698D01*
X14201134Y-13761984D02*
X14182087Y-13752460D01*
X14182087Y-13752460D02*
X14172563Y-13742936D01*
X14172563Y-13742936D02*
X14163039Y-13723888D01*
X14163039Y-13723888D02*
X14163039Y-13666746D01*
X14163039Y-13666746D02*
X14172563Y-13647698D01*
X14172563Y-13647698D02*
X14182087Y-13638174D01*
X14182087Y-13638174D02*
X14201134Y-13628650D01*
X14201134Y-13628650D02*
X14229706Y-13628650D01*
X14229706Y-13628650D02*
X14248753Y-13638174D01*
X14248753Y-13638174D02*
X14258277Y-13647698D01*
X14258277Y-13647698D02*
X14267801Y-13666746D01*
X14267801Y-13666746D02*
X14267801Y-13723888D01*
X14267801Y-13723888D02*
X14258277Y-13742936D01*
X14258277Y-13742936D02*
X14248753Y-13752460D01*
X14248753Y-13752460D02*
X14229706Y-13761984D01*
X14229706Y-13761984D02*
X14201134Y-13761984D01*
X14382087Y-13761984D02*
X14363039Y-13752460D01*
X14363039Y-13752460D02*
X14353515Y-13733412D01*
X14353515Y-13733412D02*
X14353515Y-13561984D01*
X14534468Y-13752460D02*
X14515420Y-13761984D01*
X14515420Y-13761984D02*
X14477325Y-13761984D01*
X14477325Y-13761984D02*
X14458277Y-13752460D01*
X14458277Y-13752460D02*
X14448753Y-13733412D01*
X14448753Y-13733412D02*
X14448753Y-13657222D01*
X14448753Y-13657222D02*
X14458277Y-13638174D01*
X14458277Y-13638174D02*
X14477325Y-13628650D01*
X14477325Y-13628650D02*
X14515420Y-13628650D01*
X14515420Y-13628650D02*
X14534468Y-13638174D01*
X14534468Y-13638174D02*
X14543991Y-13657222D01*
X14543991Y-13657222D02*
X14543991Y-13676269D01*
X14543991Y-13676269D02*
X14448753Y-13695317D01*
X14620182Y-13752460D02*
X14639230Y-13761984D01*
X14639230Y-13761984D02*
X14677325Y-13761984D01*
X14677325Y-13761984D02*
X14696372Y-13752460D01*
X14696372Y-13752460D02*
X14705896Y-13733412D01*
X14705896Y-13733412D02*
X14705896Y-13723888D01*
X14705896Y-13723888D02*
X14696372Y-13704841D01*
X14696372Y-13704841D02*
X14677325Y-13695317D01*
X14677325Y-13695317D02*
X14648753Y-13695317D01*
X14648753Y-13695317D02*
X14629706Y-13685793D01*
X14629706Y-13685793D02*
X14620182Y-13666746D01*
X14620182Y-13666746D02*
X14620182Y-13657222D01*
X14620182Y-13657222D02*
X14629706Y-13638174D01*
X14629706Y-13638174D02*
X14648753Y-13628650D01*
X14648753Y-13628650D02*
X14677325Y-13628650D01*
X14677325Y-13628650D02*
X14696372Y-13638174D01*
X14772563Y-13838174D02*
X14782087Y-13828650D01*
X14782087Y-13828650D02*
X14801134Y-13800079D01*
X14801134Y-13800079D02*
X14810658Y-13781031D01*
X14810658Y-13781031D02*
X14820182Y-13752460D01*
X14820182Y-13752460D02*
X14829706Y-13704841D01*
X14829706Y-13704841D02*
X14829706Y-13666746D01*
X14829706Y-13666746D02*
X14820182Y-13619127D01*
X14820182Y-13619127D02*
X14810658Y-13590555D01*
X14810658Y-13590555D02*
X14801134Y-13571508D01*
X14801134Y-13571508D02*
X14782087Y-13542936D01*
X14782087Y-13542936D02*
X14772563Y-13533412D01*
X15134468Y-13838174D02*
X15124944Y-13828650D01*
X15124944Y-13828650D02*
X15105896Y-13800079D01*
X15105896Y-13800079D02*
X15096372Y-13781031D01*
X15096372Y-13781031D02*
X15086849Y-13752460D01*
X15086849Y-13752460D02*
X15077325Y-13704841D01*
X15077325Y-13704841D02*
X15077325Y-13666746D01*
X15077325Y-13666746D02*
X15086849Y-13619127D01*
X15086849Y-13619127D02*
X15096372Y-13590555D01*
X15096372Y-13590555D02*
X15105896Y-13571508D01*
X15105896Y-13571508D02*
X15124944Y-13542936D01*
X15124944Y-13542936D02*
X15134468Y-13533412D01*
X15210658Y-13628650D02*
X15210658Y-13761984D01*
X15210658Y-13647698D02*
X15220182Y-13638174D01*
X15220182Y-13638174D02*
X15239230Y-13628650D01*
X15239230Y-13628650D02*
X15267801Y-13628650D01*
X15267801Y-13628650D02*
X15286849Y-13638174D01*
X15286849Y-13638174D02*
X15296372Y-13657222D01*
X15296372Y-13657222D02*
X15296372Y-13761984D01*
X15420182Y-13761984D02*
X15401134Y-13752460D01*
X15401134Y-13752460D02*
X15391611Y-13742936D01*
X15391611Y-13742936D02*
X15382087Y-13723888D01*
X15382087Y-13723888D02*
X15382087Y-13666746D01*
X15382087Y-13666746D02*
X15391611Y-13647698D01*
X15391611Y-13647698D02*
X15401134Y-13638174D01*
X15401134Y-13638174D02*
X15420182Y-13628650D01*
X15420182Y-13628650D02*
X15448753Y-13628650D01*
X15448753Y-13628650D02*
X15467801Y-13638174D01*
X15467801Y-13638174D02*
X15477325Y-13647698D01*
X15477325Y-13647698D02*
X15486849Y-13666746D01*
X15486849Y-13666746D02*
X15486849Y-13723888D01*
X15486849Y-13723888D02*
X15477325Y-13742936D01*
X15477325Y-13742936D02*
X15467801Y-13752460D01*
X15467801Y-13752460D02*
X15448753Y-13761984D01*
X15448753Y-13761984D02*
X15420182Y-13761984D01*
X15543992Y-13628650D02*
X15620182Y-13628650D01*
X15572563Y-13561984D02*
X15572563Y-13733412D01*
X15572563Y-13733412D02*
X15582087Y-13752460D01*
X15582087Y-13752460D02*
X15601134Y-13761984D01*
X15601134Y-13761984D02*
X15620182Y-13761984D01*
X15839230Y-13628650D02*
X15839230Y-13828650D01*
X15839230Y-13638174D02*
X15858277Y-13628650D01*
X15858277Y-13628650D02*
X15896373Y-13628650D01*
X15896373Y-13628650D02*
X15915420Y-13638174D01*
X15915420Y-13638174D02*
X15924944Y-13647698D01*
X15924944Y-13647698D02*
X15934468Y-13666746D01*
X15934468Y-13666746D02*
X15934468Y-13723888D01*
X15934468Y-13723888D02*
X15924944Y-13742936D01*
X15924944Y-13742936D02*
X15915420Y-13752460D01*
X15915420Y-13752460D02*
X15896373Y-13761984D01*
X15896373Y-13761984D02*
X15858277Y-13761984D01*
X15858277Y-13761984D02*
X15839230Y-13752460D01*
X16048753Y-13761984D02*
X16029706Y-13752460D01*
X16029706Y-13752460D02*
X16020182Y-13733412D01*
X16020182Y-13733412D02*
X16020182Y-13561984D01*
X16210658Y-13761984D02*
X16210658Y-13657222D01*
X16210658Y-13657222D02*
X16201134Y-13638174D01*
X16201134Y-13638174D02*
X16182087Y-13628650D01*
X16182087Y-13628650D02*
X16143992Y-13628650D01*
X16143992Y-13628650D02*
X16124944Y-13638174D01*
X16210658Y-13752460D02*
X16191611Y-13761984D01*
X16191611Y-13761984D02*
X16143992Y-13761984D01*
X16143992Y-13761984D02*
X16124944Y-13752460D01*
X16124944Y-13752460D02*
X16115420Y-13733412D01*
X16115420Y-13733412D02*
X16115420Y-13714365D01*
X16115420Y-13714365D02*
X16124944Y-13695317D01*
X16124944Y-13695317D02*
X16143992Y-13685793D01*
X16143992Y-13685793D02*
X16191611Y-13685793D01*
X16191611Y-13685793D02*
X16210658Y-13676269D01*
X16277325Y-13628650D02*
X16353515Y-13628650D01*
X16305896Y-13561984D02*
X16305896Y-13733412D01*
X16305896Y-13733412D02*
X16315420Y-13752460D01*
X16315420Y-13752460D02*
X16334468Y-13761984D01*
X16334468Y-13761984D02*
X16353515Y-13761984D01*
X16496373Y-13752460D02*
X16477325Y-13761984D01*
X16477325Y-13761984D02*
X16439230Y-13761984D01*
X16439230Y-13761984D02*
X16420182Y-13752460D01*
X16420182Y-13752460D02*
X16410658Y-13733412D01*
X16410658Y-13733412D02*
X16410658Y-13657222D01*
X16410658Y-13657222D02*
X16420182Y-13638174D01*
X16420182Y-13638174D02*
X16439230Y-13628650D01*
X16439230Y-13628650D02*
X16477325Y-13628650D01*
X16477325Y-13628650D02*
X16496373Y-13638174D01*
X16496373Y-13638174D02*
X16505896Y-13657222D01*
X16505896Y-13657222D02*
X16505896Y-13676269D01*
X16505896Y-13676269D02*
X16410658Y-13695317D01*
X16677325Y-13761984D02*
X16677325Y-13561984D01*
X16677325Y-13752460D02*
X16658277Y-13761984D01*
X16658277Y-13761984D02*
X16620182Y-13761984D01*
X16620182Y-13761984D02*
X16601134Y-13752460D01*
X16601134Y-13752460D02*
X16591611Y-13742936D01*
X16591611Y-13742936D02*
X16582087Y-13723888D01*
X16582087Y-13723888D02*
X16582087Y-13666746D01*
X16582087Y-13666746D02*
X16591611Y-13647698D01*
X16591611Y-13647698D02*
X16601134Y-13638174D01*
X16601134Y-13638174D02*
X16620182Y-13628650D01*
X16620182Y-13628650D02*
X16658277Y-13628650D01*
X16658277Y-13628650D02*
X16677325Y-13638174D01*
X16753515Y-13838174D02*
X16763039Y-13828650D01*
X16763039Y-13828650D02*
X16782087Y-13800079D01*
X16782087Y-13800079D02*
X16791611Y-13781031D01*
X16791611Y-13781031D02*
X16801135Y-13752460D01*
X16801135Y-13752460D02*
X16810658Y-13704841D01*
X16810658Y-13704841D02*
X16810658Y-13666746D01*
X16810658Y-13666746D02*
X16801135Y-13619127D01*
X16801135Y-13619127D02*
X16791611Y-13590555D01*
X16791611Y-13590555D02*
X16782087Y-13571508D01*
X16782087Y-13571508D02*
X16763039Y-13542936D01*
X16763039Y-13542936D02*
X16753515Y-13533412D01*
X9968211Y-14005211D02*
X9968211Y-13863789D01*
X9826789Y-13863789D01*
X9826789Y-14005211D01*
X9968211Y-14005211D01*
X10239229Y-13825984D02*
X10363039Y-13825984D01*
X10363039Y-13825984D02*
X10296372Y-13902174D01*
X10296372Y-13902174D02*
X10324944Y-13902174D01*
X10324944Y-13902174D02*
X10343991Y-13911698D01*
X10343991Y-13911698D02*
X10353515Y-13921222D01*
X10353515Y-13921222D02*
X10363039Y-13940269D01*
X10363039Y-13940269D02*
X10363039Y-13987888D01*
X10363039Y-13987888D02*
X10353515Y-14006936D01*
X10353515Y-14006936D02*
X10343991Y-14016460D01*
X10343991Y-14016460D02*
X10324944Y-14025984D01*
X10324944Y-14025984D02*
X10267801Y-14025984D01*
X10267801Y-14025984D02*
X10248753Y-14016460D01*
X10248753Y-14016460D02*
X10239229Y-14006936D01*
X10448753Y-14006936D02*
X10458277Y-14016460D01*
X10458277Y-14016460D02*
X10448753Y-14025984D01*
X10448753Y-14025984D02*
X10439229Y-14016460D01*
X10439229Y-14016460D02*
X10448753Y-14006936D01*
X10448753Y-14006936D02*
X10448753Y-14025984D01*
X10534467Y-13845031D02*
X10543991Y-13835508D01*
X10543991Y-13835508D02*
X10563039Y-13825984D01*
X10563039Y-13825984D02*
X10610658Y-13825984D01*
X10610658Y-13825984D02*
X10629705Y-13835508D01*
X10629705Y-13835508D02*
X10639229Y-13845031D01*
X10639229Y-13845031D02*
X10648753Y-13864079D01*
X10648753Y-13864079D02*
X10648753Y-13883127D01*
X10648753Y-13883127D02*
X10639229Y-13911698D01*
X10639229Y-13911698D02*
X10524944Y-14025984D01*
X10524944Y-14025984D02*
X10648753Y-14025984D01*
X10829705Y-13825984D02*
X10734467Y-13825984D01*
X10734467Y-13825984D02*
X10724944Y-13921222D01*
X10724944Y-13921222D02*
X10734467Y-13911698D01*
X10734467Y-13911698D02*
X10753515Y-13902174D01*
X10753515Y-13902174D02*
X10801134Y-13902174D01*
X10801134Y-13902174D02*
X10820182Y-13911698D01*
X10820182Y-13911698D02*
X10829705Y-13921222D01*
X10829705Y-13921222D02*
X10839229Y-13940269D01*
X10839229Y-13940269D02*
X10839229Y-13987888D01*
X10839229Y-13987888D02*
X10829705Y-14006936D01*
X10829705Y-14006936D02*
X10820182Y-14016460D01*
X10820182Y-14016460D02*
X10801134Y-14025984D01*
X10801134Y-14025984D02*
X10753515Y-14025984D01*
X10753515Y-14025984D02*
X10734467Y-14016460D01*
X10734467Y-14016460D02*
X10724944Y-14006936D01*
X10963039Y-13825984D02*
X10982086Y-13825984D01*
X10982086Y-13825984D02*
X11001134Y-13835508D01*
X11001134Y-13835508D02*
X11010658Y-13845031D01*
X11010658Y-13845031D02*
X11020182Y-13864079D01*
X11020182Y-13864079D02*
X11029705Y-13902174D01*
X11029705Y-13902174D02*
X11029705Y-13949793D01*
X11029705Y-13949793D02*
X11020182Y-13987888D01*
X11020182Y-13987888D02*
X11010658Y-14006936D01*
X11010658Y-14006936D02*
X11001134Y-14016460D01*
X11001134Y-14016460D02*
X10982086Y-14025984D01*
X10982086Y-14025984D02*
X10963039Y-14025984D01*
X10963039Y-14025984D02*
X10943991Y-14016460D01*
X10943991Y-14016460D02*
X10934467Y-14006936D01*
X10934467Y-14006936D02*
X10924944Y-13987888D01*
X10924944Y-13987888D02*
X10915420Y-13949793D01*
X10915420Y-13949793D02*
X10915420Y-13902174D01*
X10915420Y-13902174D02*
X10924944Y-13864079D01*
X10924944Y-13864079D02*
X10934467Y-13845031D01*
X10934467Y-13845031D02*
X10943991Y-13835508D01*
X10943991Y-13835508D02*
X10963039Y-13825984D01*
X11115420Y-14025984D02*
X11115420Y-13892650D01*
X11115420Y-13911698D02*
X11124944Y-13902174D01*
X11124944Y-13902174D02*
X11143991Y-13892650D01*
X11143991Y-13892650D02*
X11172563Y-13892650D01*
X11172563Y-13892650D02*
X11191610Y-13902174D01*
X11191610Y-13902174D02*
X11201134Y-13921222D01*
X11201134Y-13921222D02*
X11201134Y-14025984D01*
X11201134Y-13921222D02*
X11210658Y-13902174D01*
X11210658Y-13902174D02*
X11229705Y-13892650D01*
X11229705Y-13892650D02*
X11258277Y-13892650D01*
X11258277Y-13892650D02*
X11277324Y-13902174D01*
X11277324Y-13902174D02*
X11286848Y-13921222D01*
X11286848Y-13921222D02*
X11286848Y-14025984D01*
X11382086Y-14025984D02*
X11382086Y-13892650D01*
X11382086Y-13911698D02*
X11391610Y-13902174D01*
X11391610Y-13902174D02*
X11410658Y-13892650D01*
X11410658Y-13892650D02*
X11439229Y-13892650D01*
X11439229Y-13892650D02*
X11458277Y-13902174D01*
X11458277Y-13902174D02*
X11467801Y-13921222D01*
X11467801Y-13921222D02*
X11467801Y-14025984D01*
X11467801Y-13921222D02*
X11477324Y-13902174D01*
X11477324Y-13902174D02*
X11496372Y-13892650D01*
X11496372Y-13892650D02*
X11524943Y-13892650D01*
X11524943Y-13892650D02*
X11543991Y-13902174D01*
X11543991Y-13902174D02*
X11553515Y-13921222D01*
X11553515Y-13921222D02*
X11553515Y-14025984D01*
X11943991Y-13816460D02*
X11772563Y-14073603D01*
X12201134Y-13825984D02*
X12220182Y-13825984D01*
X12220182Y-13825984D02*
X12239229Y-13835508D01*
X12239229Y-13835508D02*
X12248753Y-13845031D01*
X12248753Y-13845031D02*
X12258277Y-13864079D01*
X12258277Y-13864079D02*
X12267801Y-13902174D01*
X12267801Y-13902174D02*
X12267801Y-13949793D01*
X12267801Y-13949793D02*
X12258277Y-13987888D01*
X12258277Y-13987888D02*
X12248753Y-14006936D01*
X12248753Y-14006936D02*
X12239229Y-14016460D01*
X12239229Y-14016460D02*
X12220182Y-14025984D01*
X12220182Y-14025984D02*
X12201134Y-14025984D01*
X12201134Y-14025984D02*
X12182086Y-14016460D01*
X12182086Y-14016460D02*
X12172563Y-14006936D01*
X12172563Y-14006936D02*
X12163039Y-13987888D01*
X12163039Y-13987888D02*
X12153515Y-13949793D01*
X12153515Y-13949793D02*
X12153515Y-13902174D01*
X12153515Y-13902174D02*
X12163039Y-13864079D01*
X12163039Y-13864079D02*
X12172563Y-13845031D01*
X12172563Y-13845031D02*
X12182086Y-13835508D01*
X12182086Y-13835508D02*
X12201134Y-13825984D01*
X12353515Y-14006936D02*
X12363039Y-14016460D01*
X12363039Y-14016460D02*
X12353515Y-14025984D01*
X12353515Y-14025984D02*
X12343991Y-14016460D01*
X12343991Y-14016460D02*
X12353515Y-14006936D01*
X12353515Y-14006936D02*
X12353515Y-14025984D01*
X12553515Y-14025984D02*
X12439229Y-14025984D01*
X12496372Y-14025984D02*
X12496372Y-13825984D01*
X12496372Y-13825984D02*
X12477325Y-13854555D01*
X12477325Y-13854555D02*
X12458277Y-13873603D01*
X12458277Y-13873603D02*
X12439229Y-13883127D01*
X12629706Y-13845031D02*
X12639229Y-13835508D01*
X12639229Y-13835508D02*
X12658277Y-13825984D01*
X12658277Y-13825984D02*
X12705896Y-13825984D01*
X12705896Y-13825984D02*
X12724944Y-13835508D01*
X12724944Y-13835508D02*
X12734467Y-13845031D01*
X12734467Y-13845031D02*
X12743991Y-13864079D01*
X12743991Y-13864079D02*
X12743991Y-13883127D01*
X12743991Y-13883127D02*
X12734467Y-13911698D01*
X12734467Y-13911698D02*
X12620182Y-14025984D01*
X12620182Y-14025984D02*
X12743991Y-14025984D01*
X12858277Y-13911698D02*
X12839229Y-13902174D01*
X12839229Y-13902174D02*
X12829706Y-13892650D01*
X12829706Y-13892650D02*
X12820182Y-13873603D01*
X12820182Y-13873603D02*
X12820182Y-13864079D01*
X12820182Y-13864079D02*
X12829706Y-13845031D01*
X12829706Y-13845031D02*
X12839229Y-13835508D01*
X12839229Y-13835508D02*
X12858277Y-13825984D01*
X12858277Y-13825984D02*
X12896372Y-13825984D01*
X12896372Y-13825984D02*
X12915420Y-13835508D01*
X12915420Y-13835508D02*
X12924944Y-13845031D01*
X12924944Y-13845031D02*
X12934467Y-13864079D01*
X12934467Y-13864079D02*
X12934467Y-13873603D01*
X12934467Y-13873603D02*
X12924944Y-13892650D01*
X12924944Y-13892650D02*
X12915420Y-13902174D01*
X12915420Y-13902174D02*
X12896372Y-13911698D01*
X12896372Y-13911698D02*
X12858277Y-13911698D01*
X12858277Y-13911698D02*
X12839229Y-13921222D01*
X12839229Y-13921222D02*
X12829706Y-13930746D01*
X12829706Y-13930746D02*
X12820182Y-13949793D01*
X12820182Y-13949793D02*
X12820182Y-13987888D01*
X12820182Y-13987888D02*
X12829706Y-14006936D01*
X12829706Y-14006936D02*
X12839229Y-14016460D01*
X12839229Y-14016460D02*
X12858277Y-14025984D01*
X12858277Y-14025984D02*
X12896372Y-14025984D01*
X12896372Y-14025984D02*
X12915420Y-14016460D01*
X12915420Y-14016460D02*
X12924944Y-14006936D01*
X12924944Y-14006936D02*
X12934467Y-13987888D01*
X12934467Y-13987888D02*
X12934467Y-13949793D01*
X12934467Y-13949793D02*
X12924944Y-13930746D01*
X12924944Y-13930746D02*
X12915420Y-13921222D01*
X12915420Y-13921222D02*
X12896372Y-13911698D01*
X13058277Y-13825984D02*
X13077325Y-13825984D01*
X13077325Y-13825984D02*
X13096372Y-13835508D01*
X13096372Y-13835508D02*
X13105896Y-13845031D01*
X13105896Y-13845031D02*
X13115420Y-13864079D01*
X13115420Y-13864079D02*
X13124944Y-13902174D01*
X13124944Y-13902174D02*
X13124944Y-13949793D01*
X13124944Y-13949793D02*
X13115420Y-13987888D01*
X13115420Y-13987888D02*
X13105896Y-14006936D01*
X13105896Y-14006936D02*
X13096372Y-14016460D01*
X13096372Y-14016460D02*
X13077325Y-14025984D01*
X13077325Y-14025984D02*
X13058277Y-14025984D01*
X13058277Y-14025984D02*
X13039229Y-14016460D01*
X13039229Y-14016460D02*
X13029706Y-14006936D01*
X13029706Y-14006936D02*
X13020182Y-13987888D01*
X13020182Y-13987888D02*
X13010658Y-13949793D01*
X13010658Y-13949793D02*
X13010658Y-13902174D01*
X13010658Y-13902174D02*
X13020182Y-13864079D01*
X13020182Y-13864079D02*
X13029706Y-13845031D01*
X13029706Y-13845031D02*
X13039229Y-13835508D01*
X13039229Y-13835508D02*
X13058277Y-13825984D01*
X13201134Y-13825984D02*
X13201134Y-13864079D01*
X13277325Y-13825984D02*
X13277325Y-13864079D01*
X13572563Y-14102174D02*
X13563039Y-14092650D01*
X13563039Y-14092650D02*
X13543991Y-14064079D01*
X13543991Y-14064079D02*
X13534468Y-14045031D01*
X13534468Y-14045031D02*
X13524944Y-14016460D01*
X13524944Y-14016460D02*
X13515420Y-13968841D01*
X13515420Y-13968841D02*
X13515420Y-13930746D01*
X13515420Y-13930746D02*
X13524944Y-13883127D01*
X13524944Y-13883127D02*
X13534468Y-13854555D01*
X13534468Y-13854555D02*
X13543991Y-13835508D01*
X13543991Y-13835508D02*
X13563039Y-13806936D01*
X13563039Y-13806936D02*
X13572563Y-13797412D01*
X13639229Y-13845031D02*
X13648753Y-13835508D01*
X13648753Y-13835508D02*
X13667801Y-13825984D01*
X13667801Y-13825984D02*
X13715420Y-13825984D01*
X13715420Y-13825984D02*
X13734468Y-13835508D01*
X13734468Y-13835508D02*
X13743991Y-13845031D01*
X13743991Y-13845031D02*
X13753515Y-13864079D01*
X13753515Y-13864079D02*
X13753515Y-13883127D01*
X13753515Y-13883127D02*
X13743991Y-13911698D01*
X13743991Y-13911698D02*
X13629706Y-14025984D01*
X13629706Y-14025984D02*
X13753515Y-14025984D01*
X13991610Y-14025984D02*
X13991610Y-13825984D01*
X14077325Y-14025984D02*
X14077325Y-13921222D01*
X14077325Y-13921222D02*
X14067801Y-13902174D01*
X14067801Y-13902174D02*
X14048753Y-13892650D01*
X14048753Y-13892650D02*
X14020182Y-13892650D01*
X14020182Y-13892650D02*
X14001134Y-13902174D01*
X14001134Y-13902174D02*
X13991610Y-13911698D01*
X14201134Y-14025984D02*
X14182087Y-14016460D01*
X14182087Y-14016460D02*
X14172563Y-14006936D01*
X14172563Y-14006936D02*
X14163039Y-13987888D01*
X14163039Y-13987888D02*
X14163039Y-13930746D01*
X14163039Y-13930746D02*
X14172563Y-13911698D01*
X14172563Y-13911698D02*
X14182087Y-13902174D01*
X14182087Y-13902174D02*
X14201134Y-13892650D01*
X14201134Y-13892650D02*
X14229706Y-13892650D01*
X14229706Y-13892650D02*
X14248753Y-13902174D01*
X14248753Y-13902174D02*
X14258277Y-13911698D01*
X14258277Y-13911698D02*
X14267801Y-13930746D01*
X14267801Y-13930746D02*
X14267801Y-13987888D01*
X14267801Y-13987888D02*
X14258277Y-14006936D01*
X14258277Y-14006936D02*
X14248753Y-14016460D01*
X14248753Y-14016460D02*
X14229706Y-14025984D01*
X14229706Y-14025984D02*
X14201134Y-14025984D01*
X14382087Y-14025984D02*
X14363039Y-14016460D01*
X14363039Y-14016460D02*
X14353515Y-13997412D01*
X14353515Y-13997412D02*
X14353515Y-13825984D01*
X14534468Y-14016460D02*
X14515420Y-14025984D01*
X14515420Y-14025984D02*
X14477325Y-14025984D01*
X14477325Y-14025984D02*
X14458277Y-14016460D01*
X14458277Y-14016460D02*
X14448753Y-13997412D01*
X14448753Y-13997412D02*
X14448753Y-13921222D01*
X14448753Y-13921222D02*
X14458277Y-13902174D01*
X14458277Y-13902174D02*
X14477325Y-13892650D01*
X14477325Y-13892650D02*
X14515420Y-13892650D01*
X14515420Y-13892650D02*
X14534468Y-13902174D01*
X14534468Y-13902174D02*
X14543991Y-13921222D01*
X14543991Y-13921222D02*
X14543991Y-13940269D01*
X14543991Y-13940269D02*
X14448753Y-13959317D01*
X14620182Y-14016460D02*
X14639230Y-14025984D01*
X14639230Y-14025984D02*
X14677325Y-14025984D01*
X14677325Y-14025984D02*
X14696372Y-14016460D01*
X14696372Y-14016460D02*
X14705896Y-13997412D01*
X14705896Y-13997412D02*
X14705896Y-13987888D01*
X14705896Y-13987888D02*
X14696372Y-13968841D01*
X14696372Y-13968841D02*
X14677325Y-13959317D01*
X14677325Y-13959317D02*
X14648753Y-13959317D01*
X14648753Y-13959317D02*
X14629706Y-13949793D01*
X14629706Y-13949793D02*
X14620182Y-13930746D01*
X14620182Y-13930746D02*
X14620182Y-13921222D01*
X14620182Y-13921222D02*
X14629706Y-13902174D01*
X14629706Y-13902174D02*
X14648753Y-13892650D01*
X14648753Y-13892650D02*
X14677325Y-13892650D01*
X14677325Y-13892650D02*
X14696372Y-13902174D01*
X14772563Y-14102174D02*
X14782087Y-14092650D01*
X14782087Y-14092650D02*
X14801134Y-14064079D01*
X14801134Y-14064079D02*
X14810658Y-14045031D01*
X14810658Y-14045031D02*
X14820182Y-14016460D01*
X14820182Y-14016460D02*
X14829706Y-13968841D01*
X14829706Y-13968841D02*
X14829706Y-13930746D01*
X14829706Y-13930746D02*
X14820182Y-13883127D01*
X14820182Y-13883127D02*
X14810658Y-13854555D01*
X14810658Y-13854555D02*
X14801134Y-13835508D01*
X14801134Y-13835508D02*
X14782087Y-13806936D01*
X14782087Y-13806936D02*
X14772563Y-13797412D01*
X15134468Y-14102174D02*
X15124944Y-14092650D01*
X15124944Y-14092650D02*
X15105896Y-14064079D01*
X15105896Y-14064079D02*
X15096372Y-14045031D01*
X15096372Y-14045031D02*
X15086849Y-14016460D01*
X15086849Y-14016460D02*
X15077325Y-13968841D01*
X15077325Y-13968841D02*
X15077325Y-13930746D01*
X15077325Y-13930746D02*
X15086849Y-13883127D01*
X15086849Y-13883127D02*
X15096372Y-13854555D01*
X15096372Y-13854555D02*
X15105896Y-13835508D01*
X15105896Y-13835508D02*
X15124944Y-13806936D01*
X15124944Y-13806936D02*
X15134468Y-13797412D01*
X15210658Y-13892650D02*
X15210658Y-14025984D01*
X15210658Y-13911698D02*
X15220182Y-13902174D01*
X15220182Y-13902174D02*
X15239230Y-13892650D01*
X15239230Y-13892650D02*
X15267801Y-13892650D01*
X15267801Y-13892650D02*
X15286849Y-13902174D01*
X15286849Y-13902174D02*
X15296372Y-13921222D01*
X15296372Y-13921222D02*
X15296372Y-14025984D01*
X15420182Y-14025984D02*
X15401134Y-14016460D01*
X15401134Y-14016460D02*
X15391611Y-14006936D01*
X15391611Y-14006936D02*
X15382087Y-13987888D01*
X15382087Y-13987888D02*
X15382087Y-13930746D01*
X15382087Y-13930746D02*
X15391611Y-13911698D01*
X15391611Y-13911698D02*
X15401134Y-13902174D01*
X15401134Y-13902174D02*
X15420182Y-13892650D01*
X15420182Y-13892650D02*
X15448753Y-13892650D01*
X15448753Y-13892650D02*
X15467801Y-13902174D01*
X15467801Y-13902174D02*
X15477325Y-13911698D01*
X15477325Y-13911698D02*
X15486849Y-13930746D01*
X15486849Y-13930746D02*
X15486849Y-13987888D01*
X15486849Y-13987888D02*
X15477325Y-14006936D01*
X15477325Y-14006936D02*
X15467801Y-14016460D01*
X15467801Y-14016460D02*
X15448753Y-14025984D01*
X15448753Y-14025984D02*
X15420182Y-14025984D01*
X15543992Y-13892650D02*
X15620182Y-13892650D01*
X15572563Y-13825984D02*
X15572563Y-13997412D01*
X15572563Y-13997412D02*
X15582087Y-14016460D01*
X15582087Y-14016460D02*
X15601134Y-14025984D01*
X15601134Y-14025984D02*
X15620182Y-14025984D01*
X15839230Y-13892650D02*
X15839230Y-14092650D01*
X15839230Y-13902174D02*
X15858277Y-13892650D01*
X15858277Y-13892650D02*
X15896373Y-13892650D01*
X15896373Y-13892650D02*
X15915420Y-13902174D01*
X15915420Y-13902174D02*
X15924944Y-13911698D01*
X15924944Y-13911698D02*
X15934468Y-13930746D01*
X15934468Y-13930746D02*
X15934468Y-13987888D01*
X15934468Y-13987888D02*
X15924944Y-14006936D01*
X15924944Y-14006936D02*
X15915420Y-14016460D01*
X15915420Y-14016460D02*
X15896373Y-14025984D01*
X15896373Y-14025984D02*
X15858277Y-14025984D01*
X15858277Y-14025984D02*
X15839230Y-14016460D01*
X16048753Y-14025984D02*
X16029706Y-14016460D01*
X16029706Y-14016460D02*
X16020182Y-13997412D01*
X16020182Y-13997412D02*
X16020182Y-13825984D01*
X16210658Y-14025984D02*
X16210658Y-13921222D01*
X16210658Y-13921222D02*
X16201134Y-13902174D01*
X16201134Y-13902174D02*
X16182087Y-13892650D01*
X16182087Y-13892650D02*
X16143992Y-13892650D01*
X16143992Y-13892650D02*
X16124944Y-13902174D01*
X16210658Y-14016460D02*
X16191611Y-14025984D01*
X16191611Y-14025984D02*
X16143992Y-14025984D01*
X16143992Y-14025984D02*
X16124944Y-14016460D01*
X16124944Y-14016460D02*
X16115420Y-13997412D01*
X16115420Y-13997412D02*
X16115420Y-13978365D01*
X16115420Y-13978365D02*
X16124944Y-13959317D01*
X16124944Y-13959317D02*
X16143992Y-13949793D01*
X16143992Y-13949793D02*
X16191611Y-13949793D01*
X16191611Y-13949793D02*
X16210658Y-13940269D01*
X16277325Y-13892650D02*
X16353515Y-13892650D01*
X16305896Y-13825984D02*
X16305896Y-13997412D01*
X16305896Y-13997412D02*
X16315420Y-14016460D01*
X16315420Y-14016460D02*
X16334468Y-14025984D01*
X16334468Y-14025984D02*
X16353515Y-14025984D01*
X16496373Y-14016460D02*
X16477325Y-14025984D01*
X16477325Y-14025984D02*
X16439230Y-14025984D01*
X16439230Y-14025984D02*
X16420182Y-14016460D01*
X16420182Y-14016460D02*
X16410658Y-13997412D01*
X16410658Y-13997412D02*
X16410658Y-13921222D01*
X16410658Y-13921222D02*
X16420182Y-13902174D01*
X16420182Y-13902174D02*
X16439230Y-13892650D01*
X16439230Y-13892650D02*
X16477325Y-13892650D01*
X16477325Y-13892650D02*
X16496373Y-13902174D01*
X16496373Y-13902174D02*
X16505896Y-13921222D01*
X16505896Y-13921222D02*
X16505896Y-13940269D01*
X16505896Y-13940269D02*
X16410658Y-13959317D01*
X16677325Y-14025984D02*
X16677325Y-13825984D01*
X16677325Y-14016460D02*
X16658277Y-14025984D01*
X16658277Y-14025984D02*
X16620182Y-14025984D01*
X16620182Y-14025984D02*
X16601134Y-14016460D01*
X16601134Y-14016460D02*
X16591611Y-14006936D01*
X16591611Y-14006936D02*
X16582087Y-13987888D01*
X16582087Y-13987888D02*
X16582087Y-13930746D01*
X16582087Y-13930746D02*
X16591611Y-13911698D01*
X16591611Y-13911698D02*
X16601134Y-13902174D01*
X16601134Y-13902174D02*
X16620182Y-13892650D01*
X16620182Y-13892650D02*
X16658277Y-13892650D01*
X16658277Y-13892650D02*
X16677325Y-13902174D01*
X16753515Y-14102174D02*
X16763039Y-14092650D01*
X16763039Y-14092650D02*
X16782087Y-14064079D01*
X16782087Y-14064079D02*
X16791611Y-14045031D01*
X16791611Y-14045031D02*
X16801135Y-14016460D01*
X16801135Y-14016460D02*
X16810658Y-13968841D01*
X16810658Y-13968841D02*
X16810658Y-13930746D01*
X16810658Y-13930746D02*
X16801135Y-13883127D01*
X16801135Y-13883127D02*
X16791611Y-13854555D01*
X16791611Y-13854555D02*
X16782087Y-13835508D01*
X16782087Y-13835508D02*
X16763039Y-13806936D01*
X16763039Y-13806936D02*
X16753515Y-13797412D01*
M02*
