%TF.GenerationSoftware,KiCad,Pcbnew,10.0.4*%
%TF.CreationDate,2026-08-18T05:01:49+05:30*%
%TF.ProjectId,cryonano-nano-stage,6372796f-6e61-46e6-9f2d-6e616e6f2d73,rev?*%
%TF.SameCoordinates,Original*%
%TF.FileFunction,Soldermask,Bot*%
%TF.FilePolarity,Negative*%
%FSLAX46Y46*%
G04 Gerber Fmt 4.6, Leading zero omitted, Abs format (unit mm)*
G04 Created by KiCad (PCBNEW 10.0.4) date 2026-08-18 05:01:49*
%MOMM*%
%LPD*%
G01*
G04 APERTURE LIST*
G04 Aperture macros list*
%AMRoundRect*
0 Rectangle with rounded corners*
0 $1 Rounding radius*
0 $2 $3 $4 $5 $6 $7 $8 $9 X,Y pos of 4 corners*
0 Add a 4 corners polygon primitive as box body*
4,1,4,$2,$3,$4,$5,$6,$7,$8,$9,$2,$3,0*
0 Add four circle primitives for the rounded corners*
1,1,$1+$1,$2,$3*
1,1,$1+$1,$4,$5*
1,1,$1+$1,$6,$7*
1,1,$1+$1,$8,$9*
0 Add four rect primitives between the rounded corners*
20,1,$1+$1,$2,$3,$4,$5,0*
20,1,$1+$1,$4,$5,$6,$7,0*
20,1,$1+$1,$6,$7,$8,$9,0*
20,1,$1+$1,$8,$9,$2,$3,0*%
G04 Aperture macros list end*
%ADD10O,1.854200X1.041400*%
%ADD11C,0.711200*%
%ADD12O,2.159000X1.041400*%
%ADD13C,1.300000*%
%ADD14R,1.700000X1.700000*%
%ADD15C,1.700000*%
%ADD16C,7.000000*%
%ADD17C,1.400000*%
%ADD18R,1.400000X1.400000*%
%ADD19C,1.100000*%
%ADD20C,1.575000*%
%ADD21R,1.575000X1.575000*%
%ADD22C,2.500000*%
%ADD23C,1.500000*%
%ADD24RoundRect,0.250500X0.499500X-0.499500X0.499500X0.499500X-0.499500X0.499500X-0.499500X-0.499500X0*%
%ADD25C,3.250000*%
%ADD26C,1.000000*%
%ADD27R,1.000000X1.000000*%
%ADD28RoundRect,0.225000X-0.225000X-0.250000X0.225000X-0.250000X0.225000X0.250000X-0.225000X0.250000X0*%
%ADD29RoundRect,0.225000X0.250000X-0.225000X0.250000X0.225000X-0.250000X0.225000X-0.250000X-0.225000X0*%
%ADD30RoundRect,0.225000X0.225000X0.250000X-0.225000X0.250000X-0.225000X-0.250000X0.225000X-0.250000X0*%
%ADD31RoundRect,0.225000X-0.250000X0.225000X-0.250000X-0.225000X0.250000X-0.225000X0.250000X0.225000X0*%
%ADD32R,1.500000X1.500000*%
%ADD33RoundRect,0.250000X0.550000X-0.550000X0.550000X0.550000X-0.550000X0.550000X-0.550000X-0.550000X0*%
%ADD34C,1.600000*%
%ADD35C,2.000000*%
%ADD36O,2.000000X1.700000*%
%ADD37O,1.700000X2.000000*%
%ADD38RoundRect,0.200000X-0.200000X-0.275000X0.200000X-0.275000X0.200000X0.275000X-0.200000X0.275000X0*%
%ADD39RoundRect,0.200000X0.275000X-0.200000X0.275000X0.200000X-0.275000X0.200000X-0.275000X-0.200000X0*%
%ADD40RoundRect,0.200000X-0.275000X0.200000X-0.275000X-0.200000X0.275000X-0.200000X0.275000X0.200000X0*%
G04 APERTURE END LIST*
D10*
%TO.C,J9*%
X197379701Y-69720032D03*
D11*
X193699700Y-68289999D03*
X193699802Y-62509988D03*
D12*
X193199700Y-69720000D03*
D10*
X197379701Y-61079968D03*
D12*
X193199700Y-61080000D03*
%TD*%
D13*
%TO.C,TP2*%
X153300000Y-67900000D03*
%TD*%
D14*
%TO.C,TP5*%
X122870000Y-92300000D03*
D15*
X120330000Y-92300000D03*
%TD*%
D14*
%TO.C,TP3*%
X114070000Y-53700000D03*
D15*
X111530000Y-53700000D03*
%TD*%
D16*
%TO.C,H1*%
X105000000Y-55000000D03*
%TD*%
%TO.C,H2*%
X105000000Y-120000000D03*
%TD*%
%TO.C,H3*%
X150000000Y-120000000D03*
%TD*%
%TO.C,H4*%
X195000000Y-120000000D03*
%TD*%
%TO.C,H5*%
X193993517Y-55000000D03*
%TD*%
%TO.C,H6*%
X150000000Y-55000000D03*
%TD*%
D17*
%TO.C,J1*%
X103400000Y-106500000D03*
X103400000Y-109000000D03*
D18*
X103400000Y-111500000D03*
D19*
X105400000Y-113100000D03*
%TD*%
D20*
%TO.C,J2*%
X173037237Y-120987840D03*
D21*
X175537237Y-120987840D03*
D13*
X177137237Y-118987840D03*
%TD*%
D20*
%TO.C,J3*%
X184700000Y-120987840D03*
D21*
X187200000Y-120987840D03*
D13*
X188800000Y-118987840D03*
%TD*%
D17*
%TO.C,J5*%
X158483291Y-120900000D03*
X160983291Y-120900000D03*
D18*
X163483291Y-120900000D03*
D19*
X165083291Y-118900000D03*
%TD*%
D22*
%TO.C,J6*%
X185493516Y-73355000D03*
X185493516Y-88845000D03*
D23*
X193443516Y-74475000D03*
X193443516Y-77015000D03*
X193443516Y-85185000D03*
X193443516Y-87725000D03*
X179643516Y-76660000D03*
X182183516Y-77920000D03*
X179643516Y-79200000D03*
X182183516Y-80460000D03*
X179643516Y-81740000D03*
X182183516Y-83000000D03*
X179643516Y-84280000D03*
D24*
X182183516Y-85540000D03*
D25*
X188543516Y-75385000D03*
X188543516Y-86815000D03*
%TD*%
D26*
%TO.C,J8*%
X133850000Y-55100000D03*
X133850000Y-53830000D03*
X135120000Y-55100000D03*
X135120000Y-53830000D03*
X136390000Y-55100000D03*
X136390000Y-53830000D03*
X137660000Y-55100000D03*
X137660000Y-53830000D03*
X138930000Y-55100000D03*
X138930000Y-53830000D03*
X140200000Y-55100000D03*
X140200000Y-53830000D03*
X141470000Y-55100000D03*
D27*
X141470000Y-53830000D03*
%TD*%
D28*
%TO.C,C44*%
X124225000Y-84100000D03*
X125775000Y-84100000D03*
%TD*%
D29*
%TO.C,C55*%
X121400000Y-77975000D03*
X121400000Y-76425000D03*
%TD*%
D30*
%TO.C,C46*%
X142467337Y-75100000D03*
X140917337Y-75100000D03*
%TD*%
D29*
%TO.C,C56*%
X139800000Y-82675000D03*
X139800000Y-81125000D03*
%TD*%
%TO.C,C14*%
X142035250Y-62075000D03*
X142035250Y-60525000D03*
%TD*%
D31*
%TO.C,C47*%
X129500000Y-61115804D03*
X129500000Y-62665804D03*
%TD*%
D29*
%TO.C,C49*%
X144135250Y-62075000D03*
X144135250Y-60525000D03*
%TD*%
D28*
%TO.C,C51*%
X120901724Y-65688219D03*
X122451724Y-65688219D03*
%TD*%
D29*
%TO.C,C54*%
X123500000Y-77975000D03*
X123500000Y-76425000D03*
%TD*%
%TO.C,C43*%
X117800000Y-77975000D03*
X117800000Y-76425000D03*
%TD*%
D31*
%TO.C,C53*%
X121400000Y-80025000D03*
X121400000Y-81575000D03*
%TD*%
D29*
%TO.C,C48*%
X141900000Y-82675000D03*
X141900000Y-81125000D03*
%TD*%
D31*
%TO.C,C50*%
X122889653Y-61125000D03*
X122889653Y-62675000D03*
%TD*%
D28*
%TO.C,C15*%
X120909866Y-71096908D03*
X122459866Y-71096908D03*
%TD*%
D29*
%TO.C,C45*%
X135500000Y-82675000D03*
X135500000Y-81125000D03*
%TD*%
D31*
%TO.C,C52*%
X123500000Y-80025000D03*
X123500000Y-81575000D03*
%TD*%
D30*
%TO.C,C57*%
X142469337Y-64200000D03*
X140919337Y-64200000D03*
%TD*%
D32*
%TO.C,PS3*%
X132580000Y-107725000D03*
D23*
X135120000Y-107725000D03*
X140200000Y-107725000D03*
X145280000Y-107725000D03*
%TD*%
D13*
%TO.C,TP1*%
X103600000Y-81800000D03*
%TD*%
D33*
%TO.C,C1*%
X111700000Y-99052651D03*
D34*
X111700000Y-95552651D03*
%TD*%
D32*
%TO.C,PS4*%
X132600000Y-97986251D03*
D23*
X135140000Y-97986251D03*
X140220000Y-97986251D03*
X145300000Y-97986251D03*
%TD*%
D35*
%TO.C,SW2*%
X109046068Y-73739083D03*
X102546068Y-73739083D03*
X109046068Y-69239083D03*
X102546068Y-69239083D03*
%TD*%
D13*
%TO.C,TP4*%
X158900000Y-97500000D03*
%TD*%
D35*
%TO.C,C65*%
X122000000Y-117600000D03*
X112000000Y-117600000D03*
%TD*%
D34*
%TO.C,MOV1*%
X113050000Y-107000000D03*
X110750000Y-112000000D03*
%TD*%
D35*
%TO.C,SW1*%
X102550000Y-61150000D03*
X109050000Y-61150000D03*
X102550000Y-65650000D03*
X109050000Y-65650000D03*
%TD*%
D36*
%TO.C,PS2*%
X101960000Y-98740000D03*
X101960000Y-96210000D03*
X101960000Y-93670000D03*
X101960000Y-91130000D03*
%TD*%
D37*
%TO.C,PS1*%
X133860000Y-116960000D03*
X136390000Y-116960000D03*
X138930000Y-116960000D03*
X141470000Y-116960000D03*
%TD*%
D34*
%TO.C,R26*%
X121880000Y-122600000D03*
X111720000Y-122600000D03*
%TD*%
D28*
%TO.C,C23*%
X155325000Y-81600000D03*
X156875000Y-81600000D03*
%TD*%
D38*
%TO.C,R58*%
X150072297Y-78082665D03*
X151722297Y-78082665D03*
%TD*%
D39*
%TO.C,R72*%
X174500000Y-81325000D03*
X174500000Y-79675000D03*
%TD*%
D38*
%TO.C,R59*%
X150075000Y-83200000D03*
X151725000Y-83200000D03*
%TD*%
%TO.C,R64*%
X150075000Y-81500000D03*
X151725000Y-81500000D03*
%TD*%
D40*
%TO.C,R70*%
X172400000Y-83275000D03*
X172400000Y-84925000D03*
%TD*%
D30*
%TO.C,C22*%
X160475000Y-80700000D03*
X158925000Y-80700000D03*
%TD*%
D40*
%TO.C,R69*%
X174500000Y-83275000D03*
X174500000Y-84925000D03*
%TD*%
D38*
%TO.C,R57*%
X150075000Y-79800000D03*
X151725000Y-79800000D03*
%TD*%
D39*
%TO.C,R71*%
X172400000Y-81325000D03*
X172400000Y-79675000D03*
%TD*%
D30*
%TO.C,C19*%
X160475000Y-82800000D03*
X158925000Y-82800000D03*
%TD*%
D38*
%TO.C,R61*%
X150075000Y-87400000D03*
X151725000Y-87400000D03*
%TD*%
D29*
%TO.C,C26*%
X156610000Y-76800000D03*
X156610000Y-75250000D03*
%TD*%
%TO.C,C30*%
X154100000Y-76800000D03*
X154100000Y-75250000D03*
%TD*%
D38*
%TO.C,R60*%
X150075000Y-85300000D03*
X151725000Y-85300000D03*
%TD*%
D28*
%TO.C,C38*%
X184525000Y-80500000D03*
X186075000Y-80500000D03*
%TD*%
D29*
%TO.C,C31*%
X176600000Y-80675000D03*
X176600000Y-79125000D03*
%TD*%
M02*
