%TF.GenerationSoftware,KiCad,Pcbnew,10.0.4*%
%TF.CreationDate,2026-08-18T05:01:49+05:30*%
%TF.ProjectId,cryonano-nano-stage,6372796f-6e61-46e6-9f2d-6e616e6f2d73,rev?*%
%TF.SameCoordinates,Original*%
%TF.FileFunction,Paste,Top*%
%TF.FilePolarity,Positive*%
%FSLAX46Y46*%
G04 Gerber Fmt 4.6, Leading zero omitted, Abs format (unit mm)*
G04 Created by KiCad (PCBNEW 10.0.4) date 2026-08-18 05:01:49*
%MOMM*%
%LPD*%
G01*
G04 APERTURE LIST*
G04 Aperture macros list*
%AMRoundRect*
0 Rectangle with rounded corners*
0 $1 Rounding radius*
0 $2 $3 $4 $5 $6 $7 $8 $9 X,Y pos of 4 corners*
0 Add a 4 corners polygon primitive as box body*
4,1,4,$2,$3,$4,$5,$6,$7,$8,$9,$2,$3,0*
0 Add four circle primitives for the rounded corners*
1,1,$1+$1,$2,$3*
1,1,$1+$1,$4,$5*
1,1,$1+$1,$6,$7*
1,1,$1+$1,$8,$9*
0 Add four rect primitives between the rounded corners*
20,1,$1+$1,$2,$3,$4,$5,0*
20,1,$1+$1,$4,$5,$6,$7,0*
20,1,$1+$1,$6,$7,$8,$9,0*
20,1,$1+$1,$8,$9,$2,$3,0*%
G04 Aperture macros list end*
%ADD10C,0.000000*%
%ADD11R,0.127000X0.127000*%
%ADD12R,1.193800X0.330200*%
%ADD13RoundRect,0.200000X-0.275000X0.200000X-0.275000X-0.200000X0.275000X-0.200000X0.275000X0.200000X0*%
%ADD14RoundRect,0.050000X-0.100000X-0.250000X0.100000X-0.250000X0.100000X0.250000X-0.100000X0.250000X0*%
%ADD15R,0.320000X0.510000*%
%ADD16R,0.810000X0.980000*%
%ADD17R,3.750000X3.750000*%
%ADD18R,0.800000X0.300000*%
%ADD19R,0.300000X0.800000*%
%ADD20R,1.550000X0.650000*%
%ADD21R,0.650000X1.550000*%
%ADD22R,1.200000X0.600000*%
%ADD23RoundRect,0.062500X-0.375000X0.062500X-0.375000X-0.062500X0.375000X-0.062500X0.375000X0.062500X0*%
%ADD24RoundRect,0.062500X-0.062500X0.375000X-0.062500X-0.375000X0.062500X-0.375000X0.062500X0.375000X0*%
%ADD25RoundRect,0.232500X-0.232500X0.232500X-0.232500X-0.232500X0.232500X-0.232500X0.232500X0.232500X0*%
%ADD26RoundRect,0.075000X-0.075000X-0.662500X0.075000X-0.662500X0.075000X0.662500X-0.075000X0.662500X0*%
%ADD27RoundRect,0.075000X-0.662500X-0.075000X0.662500X-0.075000X0.662500X0.075000X-0.662500X0.075000X0*%
%ADD28RoundRect,0.218750X-0.218750X-0.381250X0.218750X-0.381250X0.218750X0.381250X-0.218750X0.381250X0*%
%ADD29RoundRect,0.062500X-0.350000X-0.062500X0.350000X-0.062500X0.350000X0.062500X-0.350000X0.062500X0*%
%ADD30RoundRect,0.250000X-1.025305X0.106066X0.106066X-1.025305X1.025305X-0.106066X-0.106066X1.025305X0*%
%ADD31RoundRect,0.250000X0.475000X-0.250000X0.475000X0.250000X-0.475000X0.250000X-0.475000X-0.250000X0*%
%ADD32RoundRect,0.250000X0.250000X0.475000X-0.250000X0.475000X-0.250000X-0.475000X0.250000X-0.475000X0*%
%ADD33RoundRect,0.218750X0.256250X-0.218750X0.256250X0.218750X-0.256250X0.218750X-0.256250X-0.218750X0*%
%ADD34R,1.250000X0.950000*%
%ADD35RoundRect,0.200000X0.200000X0.275000X-0.200000X0.275000X-0.200000X-0.275000X0.200000X-0.275000X0*%
%ADD36RoundRect,0.200000X-0.200000X-0.275000X0.200000X-0.275000X0.200000X0.275000X-0.200000X0.275000X0*%
%ADD37RoundRect,0.225000X0.225000X0.250000X-0.225000X0.250000X-0.225000X-0.250000X0.225000X-0.250000X0*%
%ADD38RoundRect,0.225000X-0.250000X0.225000X-0.250000X-0.225000X0.250000X-0.225000X0.250000X0.225000X0*%
%ADD39RoundRect,0.225000X-0.225000X-0.250000X0.225000X-0.250000X0.225000X0.250000X-0.225000X0.250000X0*%
%ADD40RoundRect,0.250000X-0.262500X-0.450000X0.262500X-0.450000X0.262500X0.450000X-0.262500X0.450000X0*%
%ADD41R,1.060000X2.600000*%
%ADD42R,5.632000X5.700000*%
%ADD43RoundRect,0.141304X-1.008696X0.508696X-1.008696X-0.508696X1.008696X-0.508696X1.008696X0.508696X0*%
%ADD44RoundRect,0.218750X-0.218750X-0.256250X0.218750X-0.256250X0.218750X0.256250X-0.218750X0.256250X0*%
%ADD45RoundRect,0.218750X0.218750X0.381250X-0.218750X0.381250X-0.218750X-0.381250X0.218750X-0.381250X0*%
%ADD46RoundRect,0.250000X-0.250000X-0.475000X0.250000X-0.475000X0.250000X0.475000X-0.250000X0.475000X0*%
%ADD47RoundRect,0.250000X0.262500X0.450000X-0.262500X0.450000X-0.262500X-0.450000X0.262500X-0.450000X0*%
%ADD48R,0.600000X1.050000*%
%ADD49RoundRect,0.225000X-0.225000X-0.375000X0.225000X-0.375000X0.225000X0.375000X-0.225000X0.375000X0*%
%ADD50RoundRect,0.112500X0.187500X0.112500X-0.187500X0.112500X-0.187500X-0.112500X0.187500X-0.112500X0*%
%ADD51RoundRect,0.250000X-0.325000X-0.650000X0.325000X-0.650000X0.325000X0.650000X-0.325000X0.650000X0*%
%ADD52RoundRect,0.200000X0.275000X-0.200000X0.275000X0.200000X-0.275000X0.200000X-0.275000X-0.200000X0*%
%ADD53RoundRect,0.250000X0.650000X-0.325000X0.650000X0.325000X-0.650000X0.325000X-0.650000X-0.325000X0*%
%ADD54RoundRect,0.250000X-0.475000X0.250000X-0.475000X-0.250000X0.475000X-0.250000X0.475000X0.250000X0*%
%ADD55RoundRect,0.250000X-0.900000X1.000000X-0.900000X-1.000000X0.900000X-1.000000X0.900000X1.000000X0*%
%ADD56RoundRect,0.125000X-0.125000X0.125000X-0.125000X-0.125000X0.125000X-0.125000X0.125000X0.125000X0*%
%ADD57R,1.100000X0.500000*%
G04 APERTURE END LIST*
D10*
%TO.C,J9*%
G36*
X193183420Y-68917392D02*
G01*
X192065820Y-68917392D01*
X192065820Y-68282392D01*
X193183420Y-68282392D01*
X193183420Y-68917392D01*
G37*
G36*
X193183420Y-68117546D02*
G01*
X192065820Y-68117546D01*
X192065820Y-67482546D01*
X193183420Y-67482546D01*
X193183420Y-68117546D01*
G37*
G36*
X193183420Y-63317546D02*
G01*
X192065820Y-63317546D01*
X192065820Y-62682546D01*
X193183420Y-62682546D01*
X193183420Y-63317546D01*
G37*
G36*
X193183420Y-62517392D02*
G01*
X192065820Y-62517392D01*
X192065820Y-61882392D01*
X193183420Y-61882392D01*
X193183420Y-62517392D01*
G37*
%TD*%
D11*
%TO.C,J9*%
X192624620Y-68749892D03*
X192624620Y-67950046D03*
D12*
X192624699Y-66650000D03*
X192624699Y-65650000D03*
X192624699Y-65150000D03*
X192624699Y-64150000D03*
D11*
X192624620Y-62850046D03*
X192624620Y-62049892D03*
X192624620Y-62349892D03*
X192624620Y-63150046D03*
D12*
X192624699Y-63650001D03*
X192624699Y-64649999D03*
X192624699Y-66150001D03*
X192624699Y-67149999D03*
D11*
X192624620Y-67650046D03*
X192624620Y-68449892D03*
%TD*%
D13*
%TO.C,R92*%
X129200000Y-55625000D03*
X129200000Y-53975000D03*
%TD*%
%TO.C,R95*%
X125000000Y-53975000D03*
X125000000Y-55625000D03*
%TD*%
%TO.C,R94*%
X127100000Y-53975000D03*
X127100000Y-55625000D03*
%TD*%
%TO.C,R93*%
X131300000Y-53975000D03*
X131300000Y-55625000D03*
%TD*%
D14*
%TO.C,D1*%
X113750000Y-68400000D03*
X113050000Y-68400000D03*
%TD*%
D15*
%TO.C,D5*%
X189900000Y-60800000D03*
X189900000Y-61800000D03*
%TD*%
D16*
%TO.C,F1*%
X111510000Y-103300000D03*
X109890000Y-103300000D03*
%TD*%
D17*
%TO.C,U1*%
X177800000Y-98500000D03*
D18*
X175300000Y-100250000D03*
X175300000Y-99750000D03*
X175300000Y-99250000D03*
X175300000Y-98750000D03*
X175300000Y-98250000D03*
X175300000Y-97750000D03*
X175300000Y-97250000D03*
X175300000Y-96750000D03*
D19*
X176050000Y-96000000D03*
X176550000Y-96000000D03*
X177050000Y-96000000D03*
X177550000Y-96000000D03*
X178050000Y-96000000D03*
X178550000Y-96000000D03*
X179050000Y-96000000D03*
X179550000Y-96000000D03*
D18*
X180300000Y-96750000D03*
X180300000Y-97250000D03*
X180300000Y-97750000D03*
X180300000Y-98250000D03*
X180300000Y-98750000D03*
X180300000Y-99250000D03*
X180300000Y-99750000D03*
X180300000Y-100250000D03*
D19*
X179550000Y-101000000D03*
X179050000Y-101000000D03*
X178550000Y-101000000D03*
X178050000Y-101000000D03*
X177550000Y-101000000D03*
X177050000Y-101000000D03*
X176550000Y-101000000D03*
X176050000Y-101000000D03*
%TD*%
D20*
%TO.C,U2*%
X170125000Y-80395000D03*
X170125000Y-81665000D03*
X170125000Y-82935000D03*
X170125000Y-84205000D03*
X164675000Y-84205000D03*
X164675000Y-82935000D03*
X164675000Y-81665000D03*
X164675000Y-80395000D03*
%TD*%
D21*
%TO.C,U3*%
X156705000Y-107525000D03*
X155435000Y-107525000D03*
X154165000Y-107525000D03*
X152895000Y-107525000D03*
X152895000Y-102075000D03*
X154165000Y-102075000D03*
X155435000Y-102075000D03*
X156705000Y-102075000D03*
%TD*%
D22*
%TO.C,U6*%
X172050000Y-89150000D03*
X172050000Y-91050000D03*
X169550000Y-91050000D03*
X169550000Y-90100000D03*
X169550000Y-89150000D03*
%TD*%
D23*
%TO.C,U10*%
X159812500Y-80475000D03*
X159812500Y-80975000D03*
X159812500Y-81475000D03*
X159812500Y-81975000D03*
X159812500Y-82475000D03*
X159812500Y-82975000D03*
D24*
X159125000Y-83662500D03*
X158625000Y-83662500D03*
X158125000Y-83662500D03*
X157625000Y-83662500D03*
X157125000Y-83662500D03*
X156625000Y-83662500D03*
D23*
X155937500Y-82975000D03*
X155937500Y-82475000D03*
X155937500Y-81975000D03*
X155937500Y-81475000D03*
X155937500Y-80975000D03*
X155937500Y-80475000D03*
D24*
X156625000Y-79787500D03*
X157125000Y-79787500D03*
X157625000Y-79787500D03*
X158125000Y-79787500D03*
X158625000Y-79787500D03*
X159125000Y-79787500D03*
D25*
X157250000Y-82350000D03*
X158500000Y-82350000D03*
X157250000Y-81100000D03*
X158500000Y-81100000D03*
%TD*%
D26*
%TO.C,U11*%
X122950000Y-61237500D03*
X123450000Y-61237500D03*
X123950000Y-61237500D03*
X124450000Y-61237500D03*
X124950000Y-61237500D03*
X125450000Y-61237500D03*
X125950000Y-61237500D03*
X126450000Y-61237500D03*
X126950000Y-61237500D03*
X127450000Y-61237500D03*
X127950000Y-61237500D03*
X128450000Y-61237500D03*
X128950000Y-61237500D03*
X129450000Y-61237500D03*
X129950000Y-61237500D03*
X130450000Y-61237500D03*
X130950000Y-61237500D03*
X131450000Y-61237500D03*
X131950000Y-61237500D03*
X132450000Y-61237500D03*
X132950000Y-61237500D03*
X133450000Y-61237500D03*
X133950000Y-61237500D03*
X134450000Y-61237500D03*
X134950000Y-61237500D03*
X135450000Y-61237500D03*
X135950000Y-61237500D03*
X136450000Y-61237500D03*
X136950000Y-61237500D03*
X137450000Y-61237500D03*
X137950000Y-61237500D03*
X138450000Y-61237500D03*
X138950000Y-61237500D03*
X139450000Y-61237500D03*
X139950000Y-61237500D03*
X140450000Y-61237500D03*
D27*
X142362500Y-63150000D03*
X142362500Y-63650000D03*
X142362500Y-64150000D03*
X142362500Y-64650000D03*
X142362500Y-65150000D03*
X142362500Y-65650000D03*
X142362500Y-66150000D03*
X142362500Y-66650000D03*
X142362500Y-67150000D03*
X142362500Y-67650000D03*
X142362500Y-68150000D03*
X142362500Y-68650000D03*
X142362500Y-69150000D03*
X142362500Y-69650000D03*
X142362500Y-70150000D03*
X142362500Y-70650000D03*
X142362500Y-71150000D03*
X142362500Y-71650000D03*
X142362500Y-72150000D03*
X142362500Y-72650000D03*
X142362500Y-73150000D03*
X142362500Y-73650000D03*
X142362500Y-74150000D03*
X142362500Y-74650000D03*
X142362500Y-75150000D03*
X142362500Y-75650000D03*
X142362500Y-76150000D03*
X142362500Y-76650000D03*
X142362500Y-77150000D03*
X142362500Y-77650000D03*
X142362500Y-78150000D03*
X142362500Y-78650000D03*
X142362500Y-79150000D03*
X142362500Y-79650000D03*
X142362500Y-80150000D03*
X142362500Y-80650000D03*
D26*
X140450000Y-82562500D03*
X139950000Y-82562500D03*
X139450000Y-82562500D03*
X138950000Y-82562500D03*
X138450000Y-82562500D03*
X137950000Y-82562500D03*
X137450000Y-82562500D03*
X136950000Y-82562500D03*
X136450000Y-82562500D03*
X135950000Y-82562500D03*
X135450000Y-82562500D03*
X134950000Y-82562500D03*
X134450000Y-82562500D03*
X133950000Y-82562500D03*
X133450000Y-82562500D03*
X132950000Y-82562500D03*
X132450000Y-82562500D03*
X131950000Y-82562500D03*
X131450000Y-82562500D03*
X130950000Y-82562500D03*
X130450000Y-82562500D03*
X129950000Y-82562500D03*
X129450000Y-82562500D03*
X128950000Y-82562500D03*
X128450000Y-82562500D03*
X127950000Y-82562500D03*
X127450000Y-82562500D03*
X126950000Y-82562500D03*
X126450000Y-82562500D03*
X125950000Y-82562500D03*
X125450000Y-82562500D03*
X124950000Y-82562500D03*
X124450000Y-82562500D03*
X123950000Y-82562500D03*
X123450000Y-82562500D03*
X122950000Y-82562500D03*
D27*
X121037500Y-80650000D03*
X121037500Y-80150000D03*
X121037500Y-79650000D03*
X121037500Y-79150000D03*
X121037500Y-78650000D03*
X121037500Y-78150000D03*
X121037500Y-77650000D03*
X121037500Y-77150000D03*
X121037500Y-76650000D03*
X121037500Y-76150000D03*
X121037500Y-75650000D03*
X121037500Y-75150000D03*
X121037500Y-74650000D03*
X121037500Y-74150000D03*
X121037500Y-73650000D03*
X121037500Y-73150000D03*
X121037500Y-72650000D03*
X121037500Y-72150000D03*
X121037500Y-71650000D03*
X121037500Y-71150000D03*
X121037500Y-70650000D03*
X121037500Y-70150000D03*
X121037500Y-69650000D03*
X121037500Y-69150000D03*
X121037500Y-68650000D03*
X121037500Y-68150000D03*
X121037500Y-67650000D03*
X121037500Y-67150000D03*
X121037500Y-66650000D03*
X121037500Y-66150000D03*
X121037500Y-65650000D03*
X121037500Y-65150000D03*
X121037500Y-64650000D03*
X121037500Y-64150000D03*
X121037500Y-63650000D03*
X121037500Y-63150000D03*
%TD*%
D28*
%TO.C,FB7*%
X187737500Y-69700000D03*
X189862500Y-69700000D03*
%TD*%
D29*
%TO.C,U5*%
X186812500Y-65150000D03*
X186812500Y-65650000D03*
X186812500Y-66150000D03*
X188187500Y-66150000D03*
X188187500Y-65650000D03*
X188187500Y-65150000D03*
%TD*%
D30*
%TO.C,Y3*%
X155161522Y-74187868D03*
X157212132Y-76238478D03*
X158838478Y-74612132D03*
X156787868Y-72561522D03*
%TD*%
D31*
%TO.C,C8*%
X115400000Y-84848017D03*
X115400000Y-86748017D03*
%TD*%
D32*
%TO.C,C11*%
X113250000Y-74100000D03*
X115150000Y-74100000D03*
%TD*%
D33*
%TO.C,FB3*%
X115200000Y-77012500D03*
X115200000Y-78587500D03*
%TD*%
D34*
%TO.C,FL2*%
X122618256Y-101587042D03*
X122618256Y-103587042D03*
X127368256Y-103587042D03*
X127368256Y-101587042D03*
%TD*%
D35*
%TO.C,R86*%
X113525000Y-62200000D03*
X111875000Y-62200000D03*
%TD*%
D36*
%TO.C,R1*%
X116275000Y-91200000D03*
X117925000Y-91200000D03*
%TD*%
D37*
%TO.C,C28*%
X172875000Y-93600000D03*
X171325000Y-93600000D03*
%TD*%
D38*
%TO.C,C40*%
X154900000Y-112325000D03*
X154900000Y-113875000D03*
%TD*%
D36*
%TO.C,R84*%
X186153684Y-93236080D03*
X187803684Y-93236080D03*
%TD*%
D39*
%TO.C,C12*%
X167725000Y-95700000D03*
X169275000Y-95700000D03*
%TD*%
D35*
%TO.C,R68*%
X179925000Y-53600000D03*
X178275000Y-53600000D03*
%TD*%
D39*
%TO.C,C2*%
X178325000Y-56000000D03*
X179875000Y-56000000D03*
%TD*%
D40*
%TO.C,R46*%
X175187500Y-112300000D03*
X177012500Y-112300000D03*
%TD*%
D41*
%TO.C,U4*%
X107214000Y-86000000D03*
X111786000Y-86000000D03*
D42*
X109500000Y-79450000D03*
%TD*%
D43*
%TO.C,GD1*%
X116800000Y-109150000D03*
X116800000Y-112250000D03*
%TD*%
D44*
%TO.C,FB4*%
X160312500Y-89500000D03*
X161887500Y-89500000D03*
%TD*%
D35*
%TO.C,R35*%
X113525000Y-66400000D03*
X111875000Y-66400000D03*
%TD*%
D36*
%TO.C,R85*%
X190153684Y-93236080D03*
X191803684Y-93236080D03*
%TD*%
D45*
%TO.C,FB8*%
X184057500Y-53700000D03*
X181932500Y-53700000D03*
%TD*%
D36*
%TO.C,R77*%
X190175000Y-101600000D03*
X191825000Y-101600000D03*
%TD*%
D35*
%TO.C,R90*%
X183625000Y-61475000D03*
X181975000Y-61475000D03*
%TD*%
D37*
%TO.C,C9*%
X176375000Y-103500000D03*
X174825000Y-103500000D03*
%TD*%
D46*
%TO.C,C10*%
X182070000Y-56205000D03*
X183970000Y-56205000D03*
%TD*%
D38*
%TO.C,C58*%
X130200000Y-116325000D03*
X130200000Y-117875000D03*
%TD*%
D35*
%TO.C,R38*%
X113525000Y-64300000D03*
X111875000Y-64300000D03*
%TD*%
D47*
%TO.C,R51*%
X185012500Y-112300000D03*
X183187500Y-112300000D03*
%TD*%
D48*
%TO.C,Q1*%
X124850000Y-95300000D03*
X122950000Y-95300000D03*
X123900000Y-97500000D03*
%TD*%
D47*
%TO.C,R52*%
X189410498Y-106390836D03*
X187585498Y-106390836D03*
%TD*%
%TO.C,R45*%
X177010498Y-106390836D03*
X175185498Y-106390836D03*
%TD*%
D49*
%TO.C,Z2*%
X158050000Y-114700000D03*
X161350000Y-114700000D03*
%TD*%
D47*
%TO.C,R41*%
X172610498Y-106390836D03*
X170785498Y-106390836D03*
%TD*%
D37*
%TO.C,C16*%
X111925000Y-57400000D03*
X113475000Y-57400000D03*
%TD*%
D36*
%TO.C,R40*%
X152275000Y-98200000D03*
X153925000Y-98200000D03*
%TD*%
D39*
%TO.C,C20*%
X174925000Y-90000000D03*
X176475000Y-90000000D03*
%TD*%
D36*
%TO.C,R81*%
X190153684Y-97436080D03*
X191803684Y-97436080D03*
%TD*%
D40*
%TO.C,R56*%
X187587500Y-112300000D03*
X189412500Y-112300000D03*
%TD*%
D36*
%TO.C,R63*%
X150072297Y-78482665D03*
X151722297Y-78482665D03*
%TD*%
D31*
%TO.C,C6*%
X108800000Y-90750000D03*
X108800000Y-92650000D03*
%TD*%
D36*
%TO.C,R82*%
X186153684Y-95336080D03*
X187803684Y-95336080D03*
%TD*%
D47*
%TO.C,R50*%
X189412500Y-115200000D03*
X187587500Y-115200000D03*
%TD*%
D50*
%TO.C,D2*%
X103650000Y-86600000D03*
X101550000Y-86600000D03*
%TD*%
D51*
%TO.C,C5*%
X116725000Y-104700000D03*
X119675000Y-104700000D03*
%TD*%
D36*
%TO.C,R66*%
X150075000Y-86600000D03*
X151725000Y-86600000D03*
%TD*%
D38*
%TO.C,C25*%
X160600000Y-70725000D03*
X160600000Y-72275000D03*
%TD*%
D52*
%TO.C,R27*%
X161250000Y-112225000D03*
X161250000Y-110575000D03*
%TD*%
D35*
%TO.C,R87*%
X165925000Y-75400000D03*
X164275000Y-75400000D03*
%TD*%
D36*
%TO.C,R83*%
X190153684Y-95336080D03*
X191803684Y-95336080D03*
%TD*%
D40*
%TO.C,R43*%
X175176347Y-109390836D03*
X177001347Y-109390836D03*
%TD*%
D38*
%TO.C,C24*%
X153000000Y-70725000D03*
X153000000Y-72275000D03*
%TD*%
D39*
%TO.C,C17*%
X113025000Y-70400000D03*
X114575000Y-70400000D03*
%TD*%
D53*
%TO.C,C4*%
X117500000Y-97875000D03*
X117500000Y-94925000D03*
%TD*%
D47*
%TO.C,R42*%
X172612500Y-115200000D03*
X170787500Y-115200000D03*
%TD*%
D39*
%TO.C,C21*%
X174925000Y-92100000D03*
X176475000Y-92100000D03*
%TD*%
%TO.C,C32*%
X164355000Y-86830000D03*
X165905000Y-86830000D03*
%TD*%
D37*
%TO.C,C29*%
X172875000Y-95700000D03*
X171325000Y-95700000D03*
%TD*%
D44*
%TO.C,FB5*%
X171212500Y-103500000D03*
X172787500Y-103500000D03*
%TD*%
D13*
%TO.C,R37*%
X159150000Y-110575000D03*
X159150000Y-112225000D03*
%TD*%
D40*
%TO.C,R89*%
X179185498Y-106390836D03*
X181010498Y-106390836D03*
%TD*%
D39*
%TO.C,C18*%
X167725000Y-93600000D03*
X169275000Y-93600000D03*
%TD*%
D47*
%TO.C,R47*%
X177012500Y-115200000D03*
X175187500Y-115200000D03*
%TD*%
D46*
%TO.C,C13*%
X163950000Y-89700000D03*
X165850000Y-89700000D03*
%TD*%
D52*
%TO.C,R74*%
X180500000Y-70825000D03*
X180500000Y-69175000D03*
%TD*%
D54*
%TO.C,C39*%
X152589515Y-112346749D03*
X152589515Y-114246749D03*
%TD*%
D46*
%TO.C,C41*%
X159350000Y-99500000D03*
X161250000Y-99500000D03*
%TD*%
D47*
%TO.C,R53*%
X185010498Y-106390836D03*
X183185498Y-106390836D03*
%TD*%
D39*
%TO.C,C42*%
X159325000Y-101900000D03*
X160875000Y-101900000D03*
%TD*%
D53*
%TO.C,C3*%
X120400000Y-97875000D03*
X120400000Y-94925000D03*
%TD*%
D36*
%TO.C,R80*%
X186153684Y-97436080D03*
X187803684Y-97436080D03*
%TD*%
D32*
%TO.C,C7*%
X103650000Y-84000000D03*
X101750000Y-84000000D03*
%TD*%
D37*
%TO.C,C27*%
X172766397Y-101389387D03*
X171216397Y-101389387D03*
%TD*%
D55*
%TO.C,D11*%
X121300000Y-108450000D03*
X121300000Y-112750000D03*
%TD*%
D35*
%TO.C,R76*%
X185125000Y-69600000D03*
X183475000Y-69600000D03*
%TD*%
D50*
%TO.C,D4*%
X103750000Y-79700000D03*
X101650000Y-79700000D03*
%TD*%
D38*
%TO.C,C35*%
X175800000Y-73225000D03*
X175800000Y-74775000D03*
%TD*%
D40*
%TO.C,R54*%
X187585498Y-109340836D03*
X189410498Y-109340836D03*
%TD*%
%TO.C,R55*%
X183185498Y-109390836D03*
X185010498Y-109390836D03*
%TD*%
D36*
%TO.C,R36*%
X113525000Y-59500000D03*
X111875000Y-59500000D03*
%TD*%
D40*
%TO.C,R48*%
X170787500Y-112300000D03*
X172612500Y-112300000D03*
%TD*%
D36*
%TO.C,R67*%
X150075000Y-88700000D03*
X151725000Y-88700000D03*
%TD*%
D40*
%TO.C,R49*%
X183187500Y-115250000D03*
X185012500Y-115250000D03*
%TD*%
D13*
%TO.C,R91*%
X122900000Y-53975000D03*
X122900000Y-55625000D03*
%TD*%
D52*
%TO.C,R73*%
X178400000Y-70825000D03*
X178400000Y-69175000D03*
%TD*%
D36*
%TO.C,R65*%
X150075000Y-82900000D03*
X151725000Y-82900000D03*
%TD*%
%TO.C,R79*%
X186175000Y-99500000D03*
X187825000Y-99500000D03*
%TD*%
D56*
%TO.C,D8*%
X124477654Y-121386007D03*
X124477654Y-123586007D03*
%TD*%
D57*
%TO.C,Z1*%
X111850000Y-91600000D03*
X114150000Y-91600000D03*
%TD*%
D36*
%TO.C,R78*%
X190175000Y-99500000D03*
X191825000Y-99500000D03*
%TD*%
D13*
%TO.C,R39*%
X157050000Y-110575000D03*
X157050000Y-112225000D03*
%TD*%
D36*
%TO.C,R62*%
X150072297Y-80182665D03*
X151722297Y-80182665D03*
%TD*%
D40*
%TO.C,R44*%
X170785498Y-109390836D03*
X172610498Y-109390836D03*
%TD*%
%TO.C,R88*%
X179185498Y-109390836D03*
X181010498Y-109390836D03*
%TD*%
D36*
%TO.C,R75*%
X164275000Y-77500000D03*
X165925000Y-77500000D03*
%TD*%
M02*
