%TF.GenerationSoftware,KiCad,Pcbnew,10.0.4*%
%TF.CreationDate,2026-08-18T05:01:49+05:30*%
%TF.ProjectId,cryonano-nano-stage,6372796f-6e61-46e6-9f2d-6e616e6f2d73,rev?*%
%TF.SameCoordinates,Original*%
%TF.FileFunction,Paste,Bot*%
%TF.FilePolarity,Positive*%
%FSLAX46Y46*%
G04 Gerber Fmt 4.6, Leading zero omitted, Abs format (unit mm)*
G04 Created by KiCad (PCBNEW 10.0.4) date 2026-08-18 05:01:49*
%MOMM*%
%LPD*%
G01*
G04 APERTURE LIST*
G04 Aperture macros list*
%AMRoundRect*
0 Rectangle with rounded corners*
0 $1 Rounding radius*
0 $2 $3 $4 $5 $6 $7 $8 $9 X,Y pos of 4 corners*
0 Add a 4 corners polygon primitive as box body*
4,1,4,$2,$3,$4,$5,$6,$7,$8,$9,$2,$3,0*
0 Add four circle primitives for the rounded corners*
1,1,$1+$1,$2,$3*
1,1,$1+$1,$4,$5*
1,1,$1+$1,$6,$7*
1,1,$1+$1,$8,$9*
0 Add four rect primitives between the rounded corners*
20,1,$1+$1,$2,$3,$4,$5,0*
20,1,$1+$1,$4,$5,$6,$7,0*
20,1,$1+$1,$6,$7,$8,$9,0*
20,1,$1+$1,$8,$9,$2,$3,0*%
G04 Aperture macros list end*
%ADD10RoundRect,0.225000X-0.225000X-0.250000X0.225000X-0.250000X0.225000X0.250000X-0.225000X0.250000X0*%
%ADD11RoundRect,0.225000X0.250000X-0.225000X0.250000X0.225000X-0.250000X0.225000X-0.250000X-0.225000X0*%
%ADD12RoundRect,0.225000X0.225000X0.250000X-0.225000X0.250000X-0.225000X-0.250000X0.225000X-0.250000X0*%
%ADD13RoundRect,0.225000X-0.250000X0.225000X-0.250000X-0.225000X0.250000X-0.225000X0.250000X0.225000X0*%
%ADD14RoundRect,0.200000X-0.200000X-0.275000X0.200000X-0.275000X0.200000X0.275000X-0.200000X0.275000X0*%
%ADD15RoundRect,0.200000X0.275000X-0.200000X0.275000X0.200000X-0.275000X0.200000X-0.275000X-0.200000X0*%
%ADD16RoundRect,0.200000X-0.275000X0.200000X-0.275000X-0.200000X0.275000X-0.200000X0.275000X0.200000X0*%
G04 APERTURE END LIST*
D10*
%TO.C,C44*%
X124225000Y-84100000D03*
X125775000Y-84100000D03*
%TD*%
D11*
%TO.C,C55*%
X121400000Y-77975000D03*
X121400000Y-76425000D03*
%TD*%
D12*
%TO.C,C46*%
X142467337Y-75100000D03*
X140917337Y-75100000D03*
%TD*%
D11*
%TO.C,C56*%
X139800000Y-82675000D03*
X139800000Y-81125000D03*
%TD*%
%TO.C,C14*%
X142035250Y-62075000D03*
X142035250Y-60525000D03*
%TD*%
D13*
%TO.C,C47*%
X129500000Y-61115804D03*
X129500000Y-62665804D03*
%TD*%
D11*
%TO.C,C49*%
X144135250Y-62075000D03*
X144135250Y-60525000D03*
%TD*%
D10*
%TO.C,C51*%
X120901724Y-65688219D03*
X122451724Y-65688219D03*
%TD*%
D11*
%TO.C,C54*%
X123500000Y-77975000D03*
X123500000Y-76425000D03*
%TD*%
%TO.C,C43*%
X117800000Y-77975000D03*
X117800000Y-76425000D03*
%TD*%
D13*
%TO.C,C53*%
X121400000Y-80025000D03*
X121400000Y-81575000D03*
%TD*%
D11*
%TO.C,C48*%
X141900000Y-82675000D03*
X141900000Y-81125000D03*
%TD*%
D13*
%TO.C,C50*%
X122889653Y-61125000D03*
X122889653Y-62675000D03*
%TD*%
D10*
%TO.C,C15*%
X120909866Y-71096908D03*
X122459866Y-71096908D03*
%TD*%
D11*
%TO.C,C45*%
X135500000Y-82675000D03*
X135500000Y-81125000D03*
%TD*%
D13*
%TO.C,C52*%
X123500000Y-80025000D03*
X123500000Y-81575000D03*
%TD*%
D12*
%TO.C,C57*%
X142469337Y-64200000D03*
X140919337Y-64200000D03*
%TD*%
D10*
%TO.C,C23*%
X155325000Y-81600000D03*
X156875000Y-81600000D03*
%TD*%
D14*
%TO.C,R58*%
X150072297Y-78082665D03*
X151722297Y-78082665D03*
%TD*%
D15*
%TO.C,R72*%
X174500000Y-81325000D03*
X174500000Y-79675000D03*
%TD*%
D14*
%TO.C,R59*%
X150075000Y-83200000D03*
X151725000Y-83200000D03*
%TD*%
%TO.C,R64*%
X150075000Y-81500000D03*
X151725000Y-81500000D03*
%TD*%
D16*
%TO.C,R70*%
X172400000Y-83275000D03*
X172400000Y-84925000D03*
%TD*%
D12*
%TO.C,C22*%
X160475000Y-80700000D03*
X158925000Y-80700000D03*
%TD*%
D16*
%TO.C,R69*%
X174500000Y-83275000D03*
X174500000Y-84925000D03*
%TD*%
D14*
%TO.C,R57*%
X150075000Y-79800000D03*
X151725000Y-79800000D03*
%TD*%
D15*
%TO.C,R71*%
X172400000Y-81325000D03*
X172400000Y-79675000D03*
%TD*%
D12*
%TO.C,C19*%
X160475000Y-82800000D03*
X158925000Y-82800000D03*
%TD*%
D14*
%TO.C,R61*%
X150075000Y-87400000D03*
X151725000Y-87400000D03*
%TD*%
D11*
%TO.C,C26*%
X156610000Y-76800000D03*
X156610000Y-75250000D03*
%TD*%
%TO.C,C30*%
X154100000Y-76800000D03*
X154100000Y-75250000D03*
%TD*%
D14*
%TO.C,R60*%
X150075000Y-85300000D03*
X151725000Y-85300000D03*
%TD*%
D10*
%TO.C,C38*%
X184525000Y-80500000D03*
X186075000Y-80500000D03*
%TD*%
D11*
%TO.C,C31*%
X176600000Y-80675000D03*
X176600000Y-79125000D03*
%TD*%
M02*
