%TF.GenerationSoftware,KiCad,Pcbnew,10.0.4*%
%TF.CreationDate,2026-08-18T05:01:49+05:30*%
%TF.ProjectId,cryonano-nano-stage,6372796f-6e61-46e6-9f2d-6e616e6f2d73,rev?*%
%TF.SameCoordinates,Original*%
%TF.FileFunction,Copper,L3,Inr*%
%TF.FilePolarity,Positive*%
%FSLAX46Y46*%
G04 Gerber Fmt 4.6, Leading zero omitted, Abs format (unit mm)*
G04 Created by KiCad (PCBNEW 10.0.4) date 2026-08-18 05:01:49*
%MOMM*%
%LPD*%
G01*
G04 APERTURE LIST*
G04 Aperture macros list*
%AMRoundRect*
0 Rectangle with rounded corners*
0 $1 Rounding radius*
0 $2 $3 $4 $5 $6 $7 $8 $9 X,Y pos of 4 corners*
0 Add a 4 corners polygon primitive as box body*
4,1,4,$2,$3,$4,$5,$6,$7,$8,$9,$2,$3,0*
0 Add four circle primitives for the rounded corners*
1,1,$1+$1,$2,$3*
1,1,$1+$1,$4,$5*
1,1,$1+$1,$6,$7*
1,1,$1+$1,$8,$9*
0 Add four rect primitives between the rounded corners*
20,1,$1+$1,$2,$3,$4,$5,0*
20,1,$1+$1,$4,$5,$6,$7,0*
20,1,$1+$1,$6,$7,$8,$9,0*
20,1,$1+$1,$8,$9,$2,$3,0*%
G04 Aperture macros list end*
%ADD10C,0.175000*%
%TA.AperFunction,NonConductor*%
%ADD11C,0.175000*%
%TD*%
%TA.AperFunction,ComponentPad*%
%ADD12O,1.854200X1.041400*%
%TD*%
%TA.AperFunction,ComponentPad*%
%ADD13O,2.159000X1.041400*%
%TD*%
%TA.AperFunction,ComponentPad*%
%ADD14C,1.300000*%
%TD*%
%TA.AperFunction,ComponentPad*%
%ADD15R,1.700000X1.700000*%
%TD*%
%TA.AperFunction,ComponentPad*%
%ADD16C,1.700000*%
%TD*%
%TA.AperFunction,ComponentPad*%
%ADD17C,7.000000*%
%TD*%
%TA.AperFunction,ComponentPad*%
%ADD18C,1.400000*%
%TD*%
%TA.AperFunction,ComponentPad*%
%ADD19R,1.400000X1.400000*%
%TD*%
%TA.AperFunction,ComponentPad*%
%ADD20C,1.575000*%
%TD*%
%TA.AperFunction,ComponentPad*%
%ADD21R,1.575000X1.575000*%
%TD*%
%TA.AperFunction,ComponentPad*%
%ADD22C,2.500000*%
%TD*%
%TA.AperFunction,ComponentPad*%
%ADD23C,1.500000*%
%TD*%
%TA.AperFunction,ComponentPad*%
%ADD24RoundRect,0.250500X0.499500X-0.499500X0.499500X0.499500X-0.499500X0.499500X-0.499500X-0.499500X0*%
%TD*%
%TA.AperFunction,ComponentPad*%
%ADD25C,1.000000*%
%TD*%
%TA.AperFunction,ComponentPad*%
%ADD26R,1.000000X1.000000*%
%TD*%
%TA.AperFunction,ComponentPad*%
%ADD27R,1.500000X1.500000*%
%TD*%
%TA.AperFunction,ComponentPad*%
%ADD28RoundRect,0.250000X0.550000X-0.550000X0.550000X0.550000X-0.550000X0.550000X-0.550000X-0.550000X0*%
%TD*%
%TA.AperFunction,ComponentPad*%
%ADD29C,1.600000*%
%TD*%
%TA.AperFunction,ComponentPad*%
%ADD30C,2.000000*%
%TD*%
%TA.AperFunction,ComponentPad*%
%ADD31O,2.000000X1.700000*%
%TD*%
%TA.AperFunction,ComponentPad*%
%ADD32O,1.700000X2.000000*%
%TD*%
%TA.AperFunction,ViaPad*%
%ADD33C,0.700000*%
%TD*%
%TA.AperFunction,ViaPad*%
%ADD34C,0.750000*%
%TD*%
%TA.AperFunction,ViaPad*%
%ADD35C,1.000000*%
%TD*%
%TA.AperFunction,Conductor*%
%ADD36C,0.200000*%
%TD*%
%TA.AperFunction,Conductor*%
%ADD37C,0.600000*%
%TD*%
G04 APERTURE END LIST*
D10*
D11*
X160415131Y-52580757D02*
X160848464Y-52580757D01*
X160848464Y-52580757D02*
X160615131Y-52923614D01*
X160615131Y-52923614D02*
X160715131Y-52923614D01*
X160715131Y-52923614D02*
X160781797Y-52966471D01*
X160781797Y-52966471D02*
X160815131Y-53009328D01*
X160815131Y-53009328D02*
X160848464Y-53095042D01*
X160848464Y-53095042D02*
X160848464Y-53309328D01*
X160848464Y-53309328D02*
X160815131Y-53395042D01*
X160815131Y-53395042D02*
X160781797Y-53437900D01*
X160781797Y-53437900D02*
X160715131Y-53480757D01*
X160715131Y-53480757D02*
X160515131Y-53480757D01*
X160515131Y-53480757D02*
X160448464Y-53437900D01*
X160448464Y-53437900D02*
X160415131Y-53395042D01*
D12*
%TO.N,Net-(FB7-Pad2)*%
%TO.C,J9*%
X197379701Y-69720032D03*
D13*
X193199700Y-69720000D03*
D12*
X197379701Y-61079968D03*
D13*
X193199700Y-61080000D03*
%TD*%
D14*
%TO.N,/Block Diagram/Controller/MCU GPIO/PA8*%
%TO.C,TP2*%
X153300000Y-67900000D03*
%TD*%
D15*
%TO.N,/Block Diagram/+24V0*%
%TO.C,TP5*%
X122870000Y-92300000D03*
D16*
%TO.N,/Block Diagram/M24V0*%
X120330000Y-92300000D03*
%TD*%
D15*
%TO.N,/Block Diagram/Controller/MCU GPIO/PB6*%
%TO.C,TP3*%
X114070000Y-53700000D03*
D16*
%TO.N,/Block Diagram/Controller/MCU GPIO/PB7*%
X111530000Y-53700000D03*
%TD*%
D17*
%TO.N,N/C*%
%TO.C,H1*%
X105000000Y-55000000D03*
%TD*%
%TO.N,N/C*%
%TO.C,H2*%
X105000000Y-120000000D03*
%TD*%
%TO.N,N/C*%
%TO.C,H3*%
X150000000Y-120000000D03*
%TD*%
%TO.N,N/C*%
%TO.C,H4*%
X195000000Y-120000000D03*
%TD*%
%TO.N,N/C*%
%TO.C,H5*%
X193993517Y-55000000D03*
%TD*%
%TO.N,N/C*%
%TO.C,H6*%
X150000000Y-55000000D03*
%TD*%
D18*
%TO.N,/Block Diagram/Power/+24V0IN*%
%TO.C,J1*%
X103400000Y-106500000D03*
%TO.N,/Block Diagram/Power/0V0IN*%
X103400000Y-109000000D03*
D19*
%TO.N,Earth*%
X103400000Y-111500000D03*
%TD*%
D20*
%TO.N,/Block Diagram/ADC/A0+*%
%TO.C,J2*%
X173037237Y-120987840D03*
D21*
%TO.N,/Block Diagram/Interface/RTD1_B*%
X175537237Y-120987840D03*
%TD*%
D20*
%TO.N,/Block Diagram/ADC/A1+*%
%TO.C,J3*%
X184700000Y-120987840D03*
D21*
%TO.N,/Block Diagram/Interface/RTD2_B*%
X187200000Y-120987840D03*
%TD*%
D18*
%TO.N,/Block Diagram/Heater Drive/SW_G*%
%TO.C,J5*%
X158483291Y-120900000D03*
%TO.N,/Block Diagram/Heater Drive/M15V0*%
X160983291Y-120900000D03*
D19*
%TO.N,/Block Diagram/Heater Drive/SW_D*%
X163483291Y-120900000D03*
%TD*%
D22*
%TO.N,Net-(C35-Pad1)*%
%TO.C,J6*%
X185493516Y-73355000D03*
X185493516Y-88845000D03*
D23*
%TO.N,/Block Diagram/Communication/LED1*%
X193443516Y-74475000D03*
%TO.N,Net-(J6-Pad11)*%
X193443516Y-77015000D03*
%TO.N,Net-(J6-Pad10)*%
X193443516Y-85185000D03*
%TO.N,/Block Diagram/Communication/LED2*%
X193443516Y-87725000D03*
%TO.N,GND_SHIELD*%
X179643516Y-76660000D03*
%TO.N,unconnected-(J6-NC-Pad7)*%
X182183516Y-77920000D03*
%TO.N,/Block Diagram/Communication/RD_N*%
X179643516Y-79200000D03*
%TO.N,/Block Diagram/Communication/+3V3V*%
X182183516Y-80460000D03*
X179643516Y-81740000D03*
%TO.N,/Block Diagram/Communication/RD_P*%
X182183516Y-83000000D03*
%TO.N,/Block Diagram/Communication/TD_N*%
X179643516Y-84280000D03*
D24*
%TO.N,/Block Diagram/Communication/TD_P*%
X182183516Y-85540000D03*
%TD*%
D25*
%TO.N,/Block Diagram/Controller/LOG_TX*%
%TO.C,J8*%
X133850000Y-55100000D03*
%TO.N,/Block Diagram/Controller/LOG_RX*%
X133850000Y-53830000D03*
%TO.N,/Block Diagram/Controller/NRST*%
X135120000Y-55100000D03*
%TO.N,/Block Diagram/Controller/GNDDETECT*%
X135120000Y-53830000D03*
%TO.N,unconnected-(J8-JTDI{slash}NC-Pad10)*%
X136390000Y-55100000D03*
%TO.N,unconnected-(J8-JRCLK{slash}NC-Pad9)*%
X136390000Y-53830000D03*
%TO.N,/Block Diagram/Controller/SWO*%
X137660000Y-55100000D03*
%TO.N,GND*%
X137660000Y-53830000D03*
%TO.N,/Block Diagram/Controller/SWCLK*%
X138930000Y-55100000D03*
%TO.N,GND*%
X138930000Y-53830000D03*
%TO.N,/Block Diagram/Controller/SWDIO*%
X140200000Y-55100000D03*
%TO.N,/Block Diagram/Controller/VDD*%
X140200000Y-53830000D03*
%TO.N,unconnected-(J8-NC-Pad2)*%
X141470000Y-55100000D03*
D26*
%TO.N,unconnected-(J8-NC-Pad1)*%
X141470000Y-53830000D03*
%TD*%
D27*
%TO.N,/Block Diagram/+24V0*%
%TO.C,PS3*%
X132580000Y-107725000D03*
D23*
%TO.N,/Block Diagram/M24V0*%
X135120000Y-107725000D03*
%TO.N,/Block Diagram/Heater Drive/M15V0*%
X140200000Y-107725000D03*
%TO.N,/Block Diagram/Heater Drive/+15V0*%
X145280000Y-107725000D03*
%TD*%
D14*
%TO.N,/Block Diagram/+5V0*%
%TO.C,TP1*%
X103600000Y-81800000D03*
%TD*%
D28*
%TO.N,/Block Diagram/+24V0*%
%TO.C,C1*%
X111700000Y-99052651D03*
D29*
%TO.N,/Block Diagram/M24V0*%
X111700000Y-95552651D03*
%TD*%
D27*
%TO.N,/Block Diagram/+24V0*%
%TO.C,PS4*%
X132600000Y-97986251D03*
D23*
%TO.N,/Block Diagram/M24V0*%
X135140000Y-97986251D03*
%TO.N,GND*%
X140220000Y-97986251D03*
%TO.N,/Block Diagram/Power/+5V0*%
X145300000Y-97986251D03*
%TD*%
D30*
%TO.N,/Block Diagram/Controller/NRST*%
%TO.C,SW2*%
X109046068Y-73739083D03*
X102546068Y-73739083D03*
%TO.N,GND*%
X109046068Y-69239083D03*
X102546068Y-69239083D03*
%TD*%
D14*
%TO.N,/Block Diagram/+3V3*%
%TO.C,TP4*%
X158900000Y-97500000D03*
%TD*%
D30*
%TO.N,/Block Diagram/M24V0*%
%TO.C,C65*%
X122000000Y-117600000D03*
%TO.N,Earth*%
X112000000Y-117600000D03*
%TD*%
D29*
%TO.N,Net-(C5-Pad1)*%
%TO.C,MOV1*%
X113050000Y-107000000D03*
%TO.N,/Block Diagram/Power/0V0IN*%
X110750000Y-112000000D03*
%TD*%
D30*
%TO.N,/Block Diagram/Controller/MCU GPIO/BOOT0*%
%TO.C,SW1*%
X102550000Y-61150000D03*
X109050000Y-61150000D03*
%TO.N,Net-(R35-Pad2)*%
X102550000Y-65650000D03*
X109050000Y-65650000D03*
%TD*%
D31*
%TO.N,/Block Diagram/M24V0*%
%TO.C,PS2*%
X101960000Y-98740000D03*
%TO.N,/Block Diagram/+24V0*%
X101960000Y-96210000D03*
%TO.N,GND*%
X101960000Y-93670000D03*
%TO.N,/Block Diagram/Power/+5V0*%
X101960000Y-91130000D03*
%TD*%
D32*
%TO.N,/Block Diagram/M24V0*%
%TO.C,PS1*%
X133860000Y-116960000D03*
%TO.N,/Block Diagram/+24V0*%
X136390000Y-116960000D03*
%TO.N,/Block Diagram/Heater Drive/M15V0*%
X138930000Y-116960000D03*
%TO.N,/Block Diagram/Heater Drive/+15V0*%
X141470000Y-116960000D03*
%TD*%
D29*
%TO.N,/Block Diagram/M24V0*%
%TO.C,R26*%
X121880000Y-122600000D03*
%TO.N,Earth*%
X111720000Y-122600000D03*
%TD*%
D33*
%TO.N,/Block Diagram/ADC/RTD1_REF-*%
X182600000Y-97900000D03*
D34*
%TO.N,Net-(J6-Pad11)*%
X181400000Y-70900000D03*
%TO.N,/Block Diagram/Communication/LED2*%
X163737500Y-75937500D03*
%TO.N,/Block Diagram/Communication/LED1*%
X168000000Y-73800000D03*
%TO.N,Net-(J6-Pad10)*%
X178400000Y-71700000D03*
D35*
%TO.N,GND*%
X121700000Y-55600000D03*
D34*
%TO.N,/Block Diagram/Controller/MCU GPIO/PE9*%
X151400000Y-98200000D03*
X140100000Y-91800000D03*
D35*
%TO.N,/Block Diagram/Communication/+3V3V*%
X162300000Y-88170000D03*
X163400000Y-88100000D03*
X162300000Y-87000000D03*
X163400000Y-86930000D03*
%TO.N,GND*%
X148400000Y-87800000D03*
X148400000Y-89000000D03*
X146500000Y-89000000D03*
X151800000Y-90600000D03*
%TO.N,/Block Diagram/Controller/VDD*%
X115300000Y-75300000D03*
X116000000Y-73300000D03*
X116100000Y-74500000D03*
%TO.N,GND*%
X112300000Y-74100000D03*
D34*
%TO.N,/Block Diagram/Controller/NRST*%
X149400000Y-90700000D03*
%TO.N,/Block Diagram/Controller/MCU GPIO/PB13*%
X149300000Y-92700000D03*
X153400000Y-92700000D03*
%TO.N,/Block Diagram/Controller/MCU GPIO/PB12*%
X154200000Y-91600000D03*
X145900000Y-91600000D03*
D35*
%TO.N,GND*%
X153400000Y-94100000D03*
X152800000Y-89900000D03*
X146800000Y-92900000D03*
X129400000Y-84600000D03*
X125100000Y-85500000D03*
X119300000Y-85500000D03*
D33*
%TO.N,/Block Diagram/ADC/RTD1_REF-*%
X174153627Y-95717590D03*
D35*
%TO.N,/Block Diagram/ADC/A+3V3*%
X190422997Y-106390836D03*
X174000000Y-90000000D03*
X179200000Y-117700000D03*
%TO.N,GND*%
X110900000Y-57400000D03*
X112800000Y-60800000D03*
%TO.N,/Block Diagram/Controller/VDD*%
X114400000Y-66400000D03*
X141125000Y-82601477D03*
X135450000Y-84400000D03*
X129700000Y-59400000D03*
X121300000Y-61000000D03*
X144200000Y-75100000D03*
X143100000Y-62000000D03*
X118800000Y-79500000D03*
X144300000Y-69600000D03*
X118774999Y-78037915D03*
X118800000Y-65600000D03*
X123481361Y-84150000D03*
X134600000Y-59400000D03*
X118900000Y-70900000D03*
%TO.N,GND*%
X149243035Y-81460209D03*
D34*
%TO.N,/Block Diagram/ADC/RTD1_REF-*%
X177200000Y-94300000D03*
X190097998Y-114390836D03*
X177797998Y-115190836D03*
D35*
%TO.N,V_BUS*%
X179843792Y-56974999D03*
X101600000Y-78800000D03*
%TO.N,/Block Diagram/+3V3*%
X159000000Y-100800000D03*
X170400000Y-103000000D03*
%TO.N,/Block Diagram/Power/0V0IN*%
X115273003Y-113000000D03*
X114300000Y-113000000D03*
X115273003Y-114000000D03*
X114300000Y-114000000D03*
%TO.N,/Block Diagram/+5V0*%
X167800000Y-96700000D03*
%TO.N,/Block Diagram/Controller/VDD*%
X143200000Y-58200000D03*
D34*
%TO.N,/Block Diagram/ADC/RTD1_REF-*%
X182600000Y-97900000D03*
%TD*%
%TO.N,/Block Diagram/Communication/LED1*%
D36*
X191268516Y-72300000D02*
X193443516Y-74475000D01*
X187200000Y-70900000D02*
X188600000Y-72300000D01*
X181000000Y-73800000D02*
X183900000Y-70900000D01*
X168000000Y-73800000D02*
X181000000Y-73800000D01*
X183900000Y-70900000D02*
X187200000Y-70900000D01*
X188600000Y-72300000D02*
X191268516Y-72300000D01*
%TO.N,/Block Diagram/Communication/LED2*%
X191500000Y-85781484D02*
X193443516Y-87725000D01*
X191500000Y-83200000D02*
X191500000Y-85781484D01*
X183300000Y-75000000D02*
X191500000Y-83200000D01*
X178000000Y-75000000D02*
X183300000Y-75000000D01*
X176600000Y-76400000D02*
X178000000Y-75000000D01*
X165500000Y-76400000D02*
X176600000Y-76400000D01*
X165037500Y-75937500D02*
X165500000Y-76400000D01*
X163737500Y-75937500D02*
X165037500Y-75937500D01*
%TO.N,V_BUS*%
D37*
X176300000Y-60500000D02*
X179825001Y-56974999D01*
X147900000Y-60500000D02*
X176300000Y-60500000D01*
X144300000Y-56900000D02*
X147900000Y-60500000D01*
X179825001Y-56974999D02*
X179843792Y-56974999D01*
X132100000Y-56900000D02*
X144300000Y-56900000D01*
X128800000Y-53600000D02*
X132100000Y-56900000D01*
X119400000Y-53600000D02*
X128800000Y-53600000D01*
X115400000Y-62300000D02*
X115400000Y-57600000D01*
X107500000Y-63400000D02*
X114300000Y-63400000D01*
X114300000Y-63400000D02*
X115400000Y-62300000D01*
X115400000Y-57600000D02*
X119400000Y-53600000D01*
X105600000Y-74800000D02*
X105600000Y-65300000D01*
X105600000Y-65300000D02*
X107500000Y-63400000D01*
X101600000Y-78800000D02*
X105600000Y-74800000D01*
%TO.N,/Block Diagram/+5V0*%
X103600000Y-82800000D02*
X103600000Y-81800000D01*
X121000000Y-88200000D02*
X109000000Y-88200000D01*
X109000000Y-88200000D02*
X103600000Y-82800000D01*
X122400000Y-89600000D02*
X121000000Y-88200000D01*
X133000000Y-89600000D02*
X122400000Y-89600000D01*
X139300000Y-95900000D02*
X133000000Y-89600000D01*
X142600000Y-97300000D02*
X141200000Y-95900000D01*
X142600000Y-99500000D02*
X142600000Y-97300000D01*
X145850000Y-102750000D02*
X142600000Y-99500000D01*
X158950000Y-102750000D02*
X145850000Y-102750000D01*
X160600000Y-104400000D02*
X158950000Y-102750000D01*
X174900000Y-104400000D02*
X160600000Y-104400000D01*
X141200000Y-95900000D02*
X139300000Y-95900000D01*
X176500000Y-97600000D02*
X176500000Y-102800000D01*
X175900000Y-97000000D02*
X176500000Y-97600000D01*
X168100000Y-97000000D02*
X175900000Y-97000000D01*
X176500000Y-102800000D02*
X174900000Y-104400000D01*
X167800000Y-96700000D02*
X168100000Y-97000000D01*
%TO.N,/Block Diagram/ADC/A+3V3*%
X190424999Y-107000000D02*
X195000000Y-107000000D01*
X195000000Y-107000000D02*
X195000000Y-93300000D01*
X177100000Y-90000000D02*
X174000000Y-90000000D01*
X178900000Y-91800000D02*
X177100000Y-90000000D01*
X195000000Y-112800000D02*
X195000000Y-107000000D01*
X195000000Y-93300000D02*
X193500000Y-91800000D01*
X193500000Y-91800000D02*
X178900000Y-91800000D01*
X179900000Y-118400000D02*
X189400000Y-118400000D01*
X179200000Y-117700000D02*
X179900000Y-118400000D01*
X189400000Y-118400000D02*
X195000000Y-112800000D01*
%TO.N,/Block Diagram/Controller/VDD*%
X121300000Y-62500000D02*
X121300000Y-61000000D01*
X119500000Y-64300000D02*
X121300000Y-62500000D01*
X114450000Y-66400000D02*
X119550000Y-66400000D01*
X143200000Y-61900000D02*
X143100000Y-62000000D01*
%TO.N,/Block Diagram/+3V3*%
X159000000Y-97600000D02*
X159000000Y-100800000D01*
X159000000Y-100800000D02*
X161200000Y-103000000D01*
X161200000Y-103000000D02*
X170400000Y-103000000D01*
%TO.N,/Block Diagram/Controller/VDD*%
X143200000Y-58200000D02*
X143200000Y-61900000D01*
%TD*%
%TA.AperFunction,Conductor*%
%TO.N,GND*%
G36*
X152025056Y-77421674D02*
G01*
X152046730Y-77474000D01*
X152025056Y-77526326D01*
X152013844Y-77535526D01*
X151996460Y-77547142D01*
X151953461Y-77575873D01*
X151855883Y-77673451D01*
X151779223Y-77788181D01*
X151726421Y-77915657D01*
X151726418Y-77915667D01*
X151699500Y-78050998D01*
X151699500Y-78188981D01*
X151726418Y-78324312D01*
X151726421Y-78324322D01*
X151779223Y-78451798D01*
X151819334Y-78511829D01*
X151855886Y-78566532D01*
X151953458Y-78664104D01*
X152068189Y-78740765D01*
X152195672Y-78793570D01*
X152331007Y-78820490D01*
X152331009Y-78820490D01*
X152468991Y-78820490D01*
X152468993Y-78820490D01*
X152604328Y-78793570D01*
X152731811Y-78740765D01*
X152846542Y-78664104D01*
X152944114Y-78566532D01*
X153020775Y-78451801D01*
X153073580Y-78324318D01*
X153100500Y-78188983D01*
X153100500Y-78050997D01*
X153073580Y-77915662D01*
X153020775Y-77788179D01*
X152944114Y-77673448D01*
X152846542Y-77575876D01*
X152786157Y-77535528D01*
X152754692Y-77488437D01*
X152765741Y-77432888D01*
X152812833Y-77401422D01*
X152827270Y-77400000D01*
X156026000Y-77400000D01*
X156078326Y-77421674D01*
X156100000Y-77474000D01*
X156100000Y-78102475D01*
X156078326Y-78154801D01*
X156026000Y-78176475D01*
X155973674Y-78154801D01*
X155964471Y-78143587D01*
X155882951Y-78021584D01*
X155778415Y-77917048D01*
X155655494Y-77834915D01*
X155518917Y-77778343D01*
X155518907Y-77778340D01*
X155421811Y-77759026D01*
X155373918Y-77749500D01*
X155226082Y-77749500D01*
X155184977Y-77757676D01*
X155081092Y-77778340D01*
X155081082Y-77778343D01*
X154944505Y-77834915D01*
X154821584Y-77917048D01*
X154821583Y-77917050D01*
X154717050Y-78021583D01*
X154717048Y-78021584D01*
X154634915Y-78144505D01*
X154578343Y-78281082D01*
X154578340Y-78281092D01*
X154549500Y-78426083D01*
X154549500Y-78573916D01*
X154578340Y-78718907D01*
X154578343Y-78718917D01*
X154634915Y-78855494D01*
X154662999Y-78897524D01*
X154717049Y-78978416D01*
X154821584Y-79082951D01*
X154944505Y-79165084D01*
X155081087Y-79221658D01*
X155226082Y-79250500D01*
X155226084Y-79250500D01*
X155373916Y-79250500D01*
X155373918Y-79250500D01*
X155518913Y-79221658D01*
X155655495Y-79165084D01*
X155778416Y-79082951D01*
X155882951Y-78978416D01*
X155964471Y-78856411D01*
X156011563Y-78824946D01*
X156067112Y-78835995D01*
X156098578Y-78883087D01*
X156100000Y-78897524D01*
X156100000Y-92969348D01*
X156078326Y-93021674D01*
X154321674Y-94778326D01*
X154269348Y-94800000D01*
X139830652Y-94800000D01*
X139778326Y-94778326D01*
X136713771Y-91713771D01*
X139224500Y-91713771D01*
X139224500Y-91886228D01*
X139258143Y-92055367D01*
X139258146Y-92055378D01*
X139324140Y-92214702D01*
X139324141Y-92214704D01*
X139324142Y-92214705D01*
X139419955Y-92358099D01*
X139541901Y-92480045D01*
X139685295Y-92575858D01*
X139685296Y-92575858D01*
X139685297Y-92575859D01*
X139782793Y-92616243D01*
X139844626Y-92641855D01*
X140013771Y-92675500D01*
X140013772Y-92675500D01*
X140186228Y-92675500D01*
X140186229Y-92675500D01*
X140355374Y-92641855D01*
X140423175Y-92613771D01*
X148424500Y-92613771D01*
X148424500Y-92786228D01*
X148458143Y-92955367D01*
X148458146Y-92955378D01*
X148524140Y-93114702D01*
X148579712Y-93197872D01*
X148619955Y-93258099D01*
X148741901Y-93380045D01*
X148885295Y-93475858D01*
X148885296Y-93475858D01*
X148885297Y-93475859D01*
X149044621Y-93541853D01*
X149044626Y-93541855D01*
X149213771Y-93575500D01*
X149213772Y-93575500D01*
X149386228Y-93575500D01*
X149386229Y-93575500D01*
X149555374Y-93541855D01*
X149714705Y-93475858D01*
X149858099Y-93380045D01*
X149980045Y-93258099D01*
X150075858Y-93114705D01*
X150141855Y-92955374D01*
X150175500Y-92786229D01*
X150175500Y-92613771D01*
X152524500Y-92613771D01*
X152524500Y-92786228D01*
X152558143Y-92955367D01*
X152558146Y-92955378D01*
X152624140Y-93114702D01*
X152679712Y-93197872D01*
X152719955Y-93258099D01*
X152841901Y-93380045D01*
X152985295Y-93475858D01*
X152985296Y-93475858D01*
X152985297Y-93475859D01*
X153144621Y-93541853D01*
X153144626Y-93541855D01*
X153313771Y-93575500D01*
X153313772Y-93575500D01*
X153486228Y-93575500D01*
X153486229Y-93575500D01*
X153655374Y-93541855D01*
X153814705Y-93475858D01*
X153958099Y-93380045D01*
X154080045Y-93258099D01*
X154175858Y-93114705D01*
X154241855Y-92955374D01*
X154275500Y-92786229D01*
X154275500Y-92613771D01*
X154263887Y-92555390D01*
X154274936Y-92499844D01*
X154322025Y-92468379D01*
X154455374Y-92441855D01*
X154614705Y-92375858D01*
X154758099Y-92280045D01*
X154880045Y-92158099D01*
X154975858Y-92014705D01*
X155041855Y-91855374D01*
X155075500Y-91686229D01*
X155075500Y-91513771D01*
X155041855Y-91344626D01*
X155010901Y-91269896D01*
X154975859Y-91185297D01*
X154948899Y-91144949D01*
X154880045Y-91041901D01*
X154758099Y-90919955D01*
X154614705Y-90824142D01*
X154614704Y-90824141D01*
X154614702Y-90824140D01*
X154455378Y-90758146D01*
X154455367Y-90758143D01*
X154327942Y-90732797D01*
X154286229Y-90724500D01*
X154113771Y-90724500D01*
X154080309Y-90731155D01*
X153944632Y-90758143D01*
X153944621Y-90758146D01*
X153785297Y-90824140D01*
X153641904Y-90919952D01*
X153519952Y-91041904D01*
X153424140Y-91185297D01*
X153358146Y-91344621D01*
X153358143Y-91344632D01*
X153324500Y-91513771D01*
X153324500Y-91686228D01*
X153336112Y-91744607D01*
X153325063Y-91800155D01*
X153277971Y-91831621D01*
X153144631Y-91858143D01*
X153144621Y-91858146D01*
X152985297Y-91924140D01*
X152841904Y-92019952D01*
X152719952Y-92141904D01*
X152624140Y-92285297D01*
X152558146Y-92444621D01*
X152558143Y-92444632D01*
X152524500Y-92613771D01*
X150175500Y-92613771D01*
X150141855Y-92444626D01*
X150140706Y-92441853D01*
X150075859Y-92285297D01*
X149990865Y-92158095D01*
X149980045Y-92141901D01*
X149858099Y-92019955D01*
X149850237Y-92014702D01*
X149714702Y-91924140D01*
X149555378Y-91858146D01*
X149555367Y-91858143D01*
X149418942Y-91831007D01*
X149386229Y-91824500D01*
X149213771Y-91824500D01*
X149181058Y-91831007D01*
X149044632Y-91858143D01*
X149044621Y-91858146D01*
X148885297Y-91924140D01*
X148741904Y-92019952D01*
X148619952Y-92141904D01*
X148524140Y-92285297D01*
X148458146Y-92444621D01*
X148458143Y-92444632D01*
X148424500Y-92613771D01*
X140423175Y-92613771D01*
X140514705Y-92575858D01*
X140658099Y-92480045D01*
X140780045Y-92358099D01*
X140875858Y-92214705D01*
X140941855Y-92055374D01*
X140975500Y-91886229D01*
X140975500Y-91713771D01*
X140941855Y-91544626D01*
X140940707Y-91541855D01*
X140939298Y-91538452D01*
X140929075Y-91513771D01*
X145024500Y-91513771D01*
X145024500Y-91686229D01*
X145032797Y-91727942D01*
X145058143Y-91855367D01*
X145058146Y-91855378D01*
X145124140Y-92014702D01*
X145151311Y-92055367D01*
X145219955Y-92158099D01*
X145341901Y-92280045D01*
X145485295Y-92375858D01*
X145644626Y-92441855D01*
X145813771Y-92475500D01*
X145813772Y-92475500D01*
X145986228Y-92475500D01*
X145986229Y-92475500D01*
X146155374Y-92441855D01*
X146314705Y-92375858D01*
X146458099Y-92280045D01*
X146580045Y-92158099D01*
X146675858Y-92014705D01*
X146741855Y-91855374D01*
X146775500Y-91686229D01*
X146775500Y-91513771D01*
X146741855Y-91344626D01*
X146710901Y-91269896D01*
X146675859Y-91185297D01*
X146648899Y-91144949D01*
X146580045Y-91041901D01*
X146458099Y-90919955D01*
X146314705Y-90824142D01*
X146314704Y-90824141D01*
X146314702Y-90824140D01*
X146155378Y-90758146D01*
X146155367Y-90758143D01*
X146027942Y-90732797D01*
X145986229Y-90724500D01*
X145813771Y-90724500D01*
X145780309Y-90731155D01*
X145644632Y-90758143D01*
X145644621Y-90758146D01*
X145485297Y-90824140D01*
X145341904Y-90919952D01*
X145219952Y-91041904D01*
X145124140Y-91185297D01*
X145058146Y-91344621D01*
X145058143Y-91344632D01*
X145036497Y-91453458D01*
X145024500Y-91513771D01*
X140929075Y-91513771D01*
X140875858Y-91385295D01*
X140780047Y-91241904D01*
X140780045Y-91241901D01*
X140658099Y-91119955D01*
X140650237Y-91114702D01*
X140514702Y-91024140D01*
X140355378Y-90958146D01*
X140355367Y-90958143D01*
X140227942Y-90932797D01*
X140186229Y-90924500D01*
X140013771Y-90924500D01*
X139980309Y-90931155D01*
X139844632Y-90958143D01*
X139844621Y-90958146D01*
X139685297Y-91024140D01*
X139541904Y-91119952D01*
X139419952Y-91241904D01*
X139324140Y-91385297D01*
X139258146Y-91544621D01*
X139258143Y-91544632D01*
X139224500Y-91713771D01*
X136713771Y-91713771D01*
X135613771Y-90613771D01*
X148524500Y-90613771D01*
X148524500Y-90786228D01*
X148558143Y-90955367D01*
X148558146Y-90955378D01*
X148624140Y-91114702D01*
X148698787Y-91226420D01*
X148719955Y-91258099D01*
X148841901Y-91380045D01*
X148985295Y-91475858D01*
X149144626Y-91541855D01*
X149313771Y-91575500D01*
X149313772Y-91575500D01*
X149486228Y-91575500D01*
X149486229Y-91575500D01*
X149655374Y-91541855D01*
X149814705Y-91475858D01*
X149958099Y-91380045D01*
X150080045Y-91258099D01*
X150175858Y-91114705D01*
X150241855Y-90955374D01*
X150275500Y-90786229D01*
X150275500Y-90613771D01*
X150241855Y-90444626D01*
X150241853Y-90444621D01*
X150175859Y-90285297D01*
X150133424Y-90221789D01*
X150080045Y-90141901D01*
X149958099Y-90019955D01*
X149814705Y-89924142D01*
X149814704Y-89924141D01*
X149814702Y-89924140D01*
X149655378Y-89858146D01*
X149655367Y-89858143D01*
X149527942Y-89832797D01*
X149486229Y-89824500D01*
X149313771Y-89824500D01*
X149280309Y-89831155D01*
X149144632Y-89858143D01*
X149144621Y-89858146D01*
X148985297Y-89924140D01*
X148841904Y-90019952D01*
X148719952Y-90141904D01*
X148624140Y-90285297D01*
X148558146Y-90444621D01*
X148558143Y-90444632D01*
X148524500Y-90613771D01*
X135613771Y-90613771D01*
X133600000Y-88600000D01*
X123296338Y-88600000D01*
X123244012Y-88578326D01*
X121765686Y-87100000D01*
X117774000Y-87100000D01*
X117721674Y-87078326D01*
X117700000Y-87026000D01*
X117700000Y-85074000D01*
X117721674Y-85021674D01*
X117774000Y-85000000D01*
X120230693Y-85000000D01*
X120283019Y-85021674D01*
X120304693Y-85074000D01*
X120283019Y-85126324D01*
X120262806Y-85146538D01*
X120255884Y-85153460D01*
X120255883Y-85153461D01*
X120179223Y-85268191D01*
X120126421Y-85395667D01*
X120126418Y-85395677D01*
X120113211Y-85462078D01*
X120099500Y-85531007D01*
X120099500Y-85668993D01*
X120100413Y-85673581D01*
X120126418Y-85804322D01*
X120126421Y-85804332D01*
X120179223Y-85931808D01*
X120179224Y-85931810D01*
X120179225Y-85931811D01*
X120255886Y-86046542D01*
X120353458Y-86144114D01*
X120468189Y-86220775D01*
X120468190Y-86220775D01*
X120468191Y-86220776D01*
X120494825Y-86231808D01*
X120595672Y-86273580D01*
X120731007Y-86300500D01*
X120731009Y-86300500D01*
X120868991Y-86300500D01*
X120868993Y-86300500D01*
X121004328Y-86273580D01*
X121131811Y-86220775D01*
X121246542Y-86144114D01*
X121344114Y-86046542D01*
X121420775Y-85931811D01*
X121473580Y-85804328D01*
X121477422Y-85785014D01*
X121508888Y-85737921D01*
X121564436Y-85726872D01*
X121611529Y-85758338D01*
X121622578Y-85785014D01*
X121626418Y-85804321D01*
X121626421Y-85804332D01*
X121679223Y-85931808D01*
X121679224Y-85931810D01*
X121679225Y-85931811D01*
X121755886Y-86046542D01*
X121853458Y-86144114D01*
X121968189Y-86220775D01*
X121968190Y-86220775D01*
X121968191Y-86220776D01*
X121994825Y-86231808D01*
X122095672Y-86273580D01*
X122231007Y-86300500D01*
X122231009Y-86300500D01*
X122368991Y-86300500D01*
X122368993Y-86300500D01*
X122504328Y-86273580D01*
X122631811Y-86220775D01*
X122746542Y-86144114D01*
X122844114Y-86046542D01*
X122920775Y-85931811D01*
X122931633Y-85905598D01*
X122971681Y-85865549D01*
X123028318Y-85865549D01*
X123068367Y-85905597D01*
X123068367Y-85905598D01*
X123079223Y-85931808D01*
X123079224Y-85931810D01*
X123079225Y-85931811D01*
X123155886Y-86046542D01*
X123253458Y-86144114D01*
X123368189Y-86220775D01*
X123368190Y-86220775D01*
X123368191Y-86220776D01*
X123394825Y-86231808D01*
X123495672Y-86273580D01*
X123631007Y-86300500D01*
X123631009Y-86300500D01*
X123768991Y-86300500D01*
X123768993Y-86300500D01*
X123904328Y-86273580D01*
X124031811Y-86220775D01*
X124146542Y-86144114D01*
X124244114Y-86046542D01*
X124320775Y-85931811D01*
X124362529Y-85831008D01*
X125899500Y-85831008D01*
X125899500Y-85968991D01*
X125926418Y-86104322D01*
X125926421Y-86104332D01*
X125979223Y-86231808D01*
X126025121Y-86300500D01*
X126055886Y-86346542D01*
X126153458Y-86444114D01*
X126268189Y-86520775D01*
X126268190Y-86520775D01*
X126268191Y-86520776D01*
X126324539Y-86544116D01*
X126395672Y-86573580D01*
X126531007Y-86600500D01*
X126531009Y-86600500D01*
X126668991Y-86600500D01*
X126668993Y-86600500D01*
X126804328Y-86573580D01*
X126931811Y-86520775D01*
X127046542Y-86444114D01*
X127144114Y-86346542D01*
X127220775Y-86231811D01*
X127231633Y-86205598D01*
X127271681Y-86165549D01*
X127328318Y-86165549D01*
X127368367Y-86205597D01*
X127368367Y-86205598D01*
X127379223Y-86231808D01*
X127425121Y-86300500D01*
X127455886Y-86346542D01*
X127553458Y-86444114D01*
X127668189Y-86520775D01*
X127668190Y-86520775D01*
X127668191Y-86520776D01*
X127724539Y-86544116D01*
X127795672Y-86573580D01*
X127931007Y-86600500D01*
X127931009Y-86600500D01*
X128068991Y-86600500D01*
X128068993Y-86600500D01*
X128204328Y-86573580D01*
X128331811Y-86520775D01*
X128446542Y-86444114D01*
X128544114Y-86346542D01*
X128620775Y-86231811D01*
X128673580Y-86104328D01*
X128700500Y-85968993D01*
X128700500Y-85931007D01*
X145899500Y-85931007D01*
X145899500Y-86068993D01*
X145906529Y-86104328D01*
X145926418Y-86204322D01*
X145926421Y-86204332D01*
X145979223Y-86331808D01*
X146054263Y-86444114D01*
X146055886Y-86446542D01*
X146153458Y-86544114D01*
X146268189Y-86620775D01*
X146395672Y-86673580D01*
X146395676Y-86673580D01*
X146395677Y-86673581D01*
X146414986Y-86677422D01*
X146462078Y-86708888D01*
X146473127Y-86764437D01*
X146441661Y-86811529D01*
X146414986Y-86822578D01*
X146395677Y-86826418D01*
X146395667Y-86826421D01*
X146268191Y-86879223D01*
X146153461Y-86955883D01*
X146055883Y-87053461D01*
X145979223Y-87168191D01*
X145926421Y-87295667D01*
X145926418Y-87295677D01*
X145916301Y-87346542D01*
X145899500Y-87431007D01*
X145899500Y-87568993D01*
X145900413Y-87573581D01*
X145926418Y-87704322D01*
X145926421Y-87704332D01*
X145979223Y-87831808D01*
X145979224Y-87831810D01*
X145979225Y-87831811D01*
X146055886Y-87946542D01*
X146153458Y-88044114D01*
X146268189Y-88120775D01*
X146268190Y-88120775D01*
X146268191Y-88120776D01*
X146395667Y-88173578D01*
X146395672Y-88173580D01*
X146531007Y-88200500D01*
X146531009Y-88200500D01*
X146668991Y-88200500D01*
X146668993Y-88200500D01*
X146804328Y-88173580D01*
X146931811Y-88120775D01*
X147046542Y-88044114D01*
X147144114Y-87946542D01*
X147220775Y-87831811D01*
X147273580Y-87704328D01*
X147300500Y-87568993D01*
X147300500Y-87431007D01*
X147273580Y-87295672D01*
X147220775Y-87168189D01*
X147144114Y-87053458D01*
X147046542Y-86955886D01*
X146931811Y-86879225D01*
X146931810Y-86879224D01*
X146931808Y-86879223D01*
X146815406Y-86831008D01*
X151699500Y-86831008D01*
X151699500Y-86968991D01*
X151726418Y-87104322D01*
X151726421Y-87104332D01*
X151779223Y-87231808D01*
X151821895Y-87295672D01*
X151855886Y-87346542D01*
X151953458Y-87444114D01*
X152068189Y-87520775D01*
X152195672Y-87573580D01*
X152331007Y-87600500D01*
X152331009Y-87600500D01*
X152468991Y-87600500D01*
X152468993Y-87600500D01*
X152604328Y-87573580D01*
X152731811Y-87520775D01*
X152846542Y-87444114D01*
X152944114Y-87346542D01*
X153020775Y-87231811D01*
X153073580Y-87104328D01*
X153100500Y-86968993D01*
X153100500Y-86831007D01*
X153073580Y-86695672D01*
X153034159Y-86600500D01*
X153020776Y-86568191D01*
X153004688Y-86544114D01*
X152944114Y-86453458D01*
X152846542Y-86355886D01*
X152810511Y-86331811D01*
X152731808Y-86279223D01*
X152604332Y-86226421D01*
X152604322Y-86226418D01*
X152499644Y-86205597D01*
X152468993Y-86199500D01*
X152331007Y-86199500D01*
X152300356Y-86205597D01*
X152195677Y-86226418D01*
X152195667Y-86226421D01*
X152068191Y-86279223D01*
X151953461Y-86355883D01*
X151855883Y-86453461D01*
X151779223Y-86568191D01*
X151726421Y-86695667D01*
X151726418Y-86695677D01*
X151707436Y-86791112D01*
X151700413Y-86826420D01*
X151699500Y-86831008D01*
X146815406Y-86831008D01*
X146804332Y-86826421D01*
X146804321Y-86826418D01*
X146785014Y-86822578D01*
X146737921Y-86791112D01*
X146726872Y-86735564D01*
X146758338Y-86688471D01*
X146785014Y-86677422D01*
X146791056Y-86676219D01*
X146804328Y-86673580D01*
X146931811Y-86620775D01*
X147046542Y-86544114D01*
X147144114Y-86446542D01*
X147220775Y-86331811D01*
X147273580Y-86204328D01*
X147300500Y-86068993D01*
X147300500Y-85931007D01*
X147273580Y-85795672D01*
X147232157Y-85695667D01*
X147220776Y-85668191D01*
X147189094Y-85620776D01*
X147144114Y-85553458D01*
X147046542Y-85455886D01*
X147042908Y-85453458D01*
X146931808Y-85379223D01*
X146804332Y-85326421D01*
X146804322Y-85326418D01*
X146713694Y-85308391D01*
X146668993Y-85299500D01*
X146531007Y-85299500D01*
X146492642Y-85307131D01*
X146395677Y-85326418D01*
X146395667Y-85326421D01*
X146268191Y-85379223D01*
X146153461Y-85455883D01*
X146055883Y-85553461D01*
X145979223Y-85668191D01*
X145926421Y-85795667D01*
X145926418Y-85795677D01*
X145912520Y-85865549D01*
X145899500Y-85931007D01*
X128700500Y-85931007D01*
X128700500Y-85831007D01*
X128673580Y-85695672D01*
X128631633Y-85594402D01*
X128620776Y-85568191D01*
X128604688Y-85544114D01*
X128544114Y-85453458D01*
X128483351Y-85392695D01*
X128461678Y-85340371D01*
X128483352Y-85288045D01*
X128494562Y-85278845D01*
X128546542Y-85244114D01*
X128644114Y-85146542D01*
X128720775Y-85031811D01*
X128773580Y-84904328D01*
X128800500Y-84768993D01*
X128800500Y-84631007D01*
X128773580Y-84495672D01*
X128756096Y-84453461D01*
X128720776Y-84368191D01*
X128695930Y-84331007D01*
X128644114Y-84253458D01*
X128546542Y-84155886D01*
X128431811Y-84079225D01*
X128431810Y-84079224D01*
X128431808Y-84079223D01*
X128304332Y-84026421D01*
X128304322Y-84026418D01*
X128213694Y-84008391D01*
X128168993Y-83999500D01*
X128031007Y-83999500D01*
X127992642Y-84007131D01*
X127895677Y-84026418D01*
X127895667Y-84026421D01*
X127768191Y-84079223D01*
X127653461Y-84155883D01*
X127555883Y-84253461D01*
X127479223Y-84368191D01*
X127426421Y-84495667D01*
X127426418Y-84495677D01*
X127411995Y-84568189D01*
X127399500Y-84631007D01*
X127399500Y-84768993D01*
X127404806Y-84795667D01*
X127426418Y-84904322D01*
X127426421Y-84904332D01*
X127479223Y-85031808D01*
X127525121Y-85100500D01*
X127555886Y-85146542D01*
X127616647Y-85207303D01*
X127638321Y-85259628D01*
X127616647Y-85311954D01*
X127605434Y-85321156D01*
X127553463Y-85355881D01*
X127455883Y-85453461D01*
X127379224Y-85568189D01*
X127368367Y-85594402D01*
X127328318Y-85634450D01*
X127271681Y-85634450D01*
X127231633Y-85594402D01*
X127220775Y-85568189D01*
X127144116Y-85453461D01*
X127144114Y-85453458D01*
X127046542Y-85355886D01*
X127023322Y-85340371D01*
X126931808Y-85279223D01*
X126804332Y-85226421D01*
X126804322Y-85226418D01*
X126708216Y-85207302D01*
X126668993Y-85199500D01*
X126531007Y-85199500D01*
X126492642Y-85207131D01*
X126395677Y-85226418D01*
X126395667Y-85226421D01*
X126268191Y-85279223D01*
X126153461Y-85355883D01*
X126055883Y-85453461D01*
X125979223Y-85568191D01*
X125926421Y-85695667D01*
X125926418Y-85695677D01*
X125899500Y-85831008D01*
X124362529Y-85831008D01*
X124373580Y-85804328D01*
X124400500Y-85668993D01*
X124400500Y-85531007D01*
X124373580Y-85395672D01*
X124372348Y-85392697D01*
X124320776Y-85268191D01*
X124315054Y-85259628D01*
X124244114Y-85153458D01*
X124216980Y-85126324D01*
X124195307Y-85074000D01*
X124216981Y-85021674D01*
X124269307Y-85000000D01*
X124300000Y-85000000D01*
X126878326Y-82421674D01*
X126930652Y-82400000D01*
X134069348Y-82400000D01*
X134121674Y-82421674D01*
X134378326Y-82678326D01*
X134400000Y-82730652D01*
X134400000Y-84800000D01*
X135000000Y-85400000D01*
X135342743Y-85400000D01*
X135349990Y-85400356D01*
X135351453Y-85400500D01*
X135351459Y-85400500D01*
X135548547Y-85400500D01*
X135550010Y-85400356D01*
X135557257Y-85400000D01*
X141100000Y-85400000D01*
X142168992Y-84331008D01*
X145899500Y-84331008D01*
X145899500Y-84468991D01*
X145926418Y-84604322D01*
X145926421Y-84604332D01*
X145979223Y-84731808D01*
X146052723Y-84841809D01*
X146055886Y-84846542D01*
X146153458Y-84944114D01*
X146268189Y-85020775D01*
X146268190Y-85020775D01*
X146268191Y-85020776D01*
X146352955Y-85055886D01*
X146395672Y-85073580D01*
X146531007Y-85100500D01*
X146531009Y-85100500D01*
X146668991Y-85100500D01*
X146668993Y-85100500D01*
X146804328Y-85073580D01*
X146931811Y-85020775D01*
X147046542Y-84944114D01*
X147059649Y-84931007D01*
X151699500Y-84931007D01*
X151699500Y-85068993D01*
X151706529Y-85104328D01*
X151726418Y-85204322D01*
X151726421Y-85204332D01*
X151779223Y-85331808D01*
X151854263Y-85444114D01*
X151855886Y-85446542D01*
X151953458Y-85544114D01*
X152068189Y-85620775D01*
X152195672Y-85673580D01*
X152331007Y-85700500D01*
X152331009Y-85700500D01*
X152468991Y-85700500D01*
X152468993Y-85700500D01*
X152604328Y-85673580D01*
X152731811Y-85620775D01*
X152846542Y-85544114D01*
X152944114Y-85446542D01*
X153020775Y-85331811D01*
X153073580Y-85204328D01*
X153100500Y-85068993D01*
X153100500Y-84931007D01*
X153080609Y-84831007D01*
X154199500Y-84831007D01*
X154199500Y-84968993D01*
X154205668Y-85000000D01*
X154226418Y-85104322D01*
X154226421Y-85104332D01*
X154279223Y-85231808D01*
X154351762Y-85340371D01*
X154355886Y-85346542D01*
X154453458Y-85444114D01*
X154568189Y-85520775D01*
X154568190Y-85520775D01*
X154568191Y-85520776D01*
X154624539Y-85544116D01*
X154695672Y-85573580D01*
X154831007Y-85600500D01*
X154831009Y-85600500D01*
X154968991Y-85600500D01*
X154968993Y-85600500D01*
X155104328Y-85573580D01*
X155231811Y-85520775D01*
X155346542Y-85444114D01*
X155444114Y-85346542D01*
X155520775Y-85231811D01*
X155573580Y-85104328D01*
X155600500Y-84968993D01*
X155600500Y-84831007D01*
X155573580Y-84695672D01*
X155562196Y-84668189D01*
X155520776Y-84568191D01*
X155474237Y-84498541D01*
X155444114Y-84453458D01*
X155346542Y-84355886D01*
X155265086Y-84301459D01*
X155231808Y-84279223D01*
X155104332Y-84226421D01*
X155104322Y-84226418D01*
X155013694Y-84208391D01*
X154968993Y-84199500D01*
X154831007Y-84199500D01*
X154792642Y-84207131D01*
X154695677Y-84226418D01*
X154695667Y-84226421D01*
X154568191Y-84279223D01*
X154453461Y-84355883D01*
X154355883Y-84453461D01*
X154279223Y-84568191D01*
X154226421Y-84695667D01*
X154226418Y-84695677D01*
X154206529Y-84795672D01*
X154199500Y-84831007D01*
X153080609Y-84831007D01*
X153073580Y-84795672D01*
X153032157Y-84695667D01*
X153020776Y-84668191D01*
X152995930Y-84631007D01*
X152944114Y-84553458D01*
X152846542Y-84455886D01*
X152842908Y-84453458D01*
X152731808Y-84379223D01*
X152604332Y-84326421D01*
X152604322Y-84326418D01*
X152513694Y-84308391D01*
X152468993Y-84299500D01*
X152331007Y-84299500D01*
X152292642Y-84307131D01*
X152195677Y-84326418D01*
X152195667Y-84326421D01*
X152068191Y-84379223D01*
X151953461Y-84455883D01*
X151855883Y-84553461D01*
X151779223Y-84668191D01*
X151726421Y-84795667D01*
X151726418Y-84795677D01*
X151710631Y-84875046D01*
X151699500Y-84931007D01*
X147059649Y-84931007D01*
X147144114Y-84846542D01*
X147220775Y-84731811D01*
X147273580Y-84604328D01*
X147300500Y-84468993D01*
X147300500Y-84331007D01*
X147273580Y-84195672D01*
X147225346Y-84079225D01*
X147220776Y-84068191D01*
X147144116Y-83953461D01*
X147144114Y-83953458D01*
X147046542Y-83855886D01*
X146993996Y-83820776D01*
X146931808Y-83779223D01*
X146804332Y-83726421D01*
X146804322Y-83726418D01*
X146713694Y-83708391D01*
X146668993Y-83699500D01*
X146531007Y-83699500D01*
X146492642Y-83707131D01*
X146395677Y-83726418D01*
X146395667Y-83726421D01*
X146268191Y-83779223D01*
X146153461Y-83855883D01*
X146055883Y-83953461D01*
X145979223Y-84068191D01*
X145926421Y-84195667D01*
X145926418Y-84195677D01*
X145903945Y-84308656D01*
X145900413Y-84326420D01*
X145899500Y-84331008D01*
X142168992Y-84331008D01*
X143768993Y-82731007D01*
X145899500Y-82731007D01*
X145899500Y-82868993D01*
X145908391Y-82913694D01*
X145926418Y-83004322D01*
X145926421Y-83004332D01*
X145979223Y-83131808D01*
X146051019Y-83239259D01*
X146055886Y-83246542D01*
X146153458Y-83344114D01*
X146268189Y-83420775D01*
X146268190Y-83420775D01*
X146268191Y-83420776D01*
X146309651Y-83437949D01*
X146395672Y-83473580D01*
X146531007Y-83500500D01*
X146531009Y-83500500D01*
X146668991Y-83500500D01*
X146668993Y-83500500D01*
X146804328Y-83473580D01*
X146931811Y-83420775D01*
X147046542Y-83344114D01*
X147144114Y-83246542D01*
X147220775Y-83131811D01*
X147221108Y-83131008D01*
X151699500Y-83131008D01*
X151699500Y-83268991D01*
X151726418Y-83404322D01*
X151726421Y-83404332D01*
X151779223Y-83531808D01*
X151839209Y-83621584D01*
X151855886Y-83646542D01*
X151953458Y-83744114D01*
X152068189Y-83820775D01*
X152068190Y-83820775D01*
X152068191Y-83820776D01*
X152152955Y-83855886D01*
X152195672Y-83873580D01*
X152331007Y-83900500D01*
X152331009Y-83900500D01*
X152468991Y-83900500D01*
X152468993Y-83900500D01*
X152604328Y-83873580D01*
X152731811Y-83820775D01*
X152846542Y-83744114D01*
X152944114Y-83646542D01*
X153020775Y-83531811D01*
X153073580Y-83404328D01*
X153100500Y-83268993D01*
X153100500Y-83131007D01*
X153073580Y-82995672D01*
X153020775Y-82868189D01*
X152944114Y-82753458D01*
X152846542Y-82655886D01*
X152731811Y-82579225D01*
X152731810Y-82579224D01*
X152731808Y-82579223D01*
X152604332Y-82526421D01*
X152604322Y-82526418D01*
X152513694Y-82508391D01*
X152468993Y-82499500D01*
X152331007Y-82499500D01*
X152292642Y-82507131D01*
X152195677Y-82526418D01*
X152195667Y-82526421D01*
X152068191Y-82579223D01*
X151953461Y-82655883D01*
X151855883Y-82753461D01*
X151779223Y-82868191D01*
X151726421Y-82995667D01*
X151726418Y-82995677D01*
X151699500Y-83131008D01*
X147221108Y-83131008D01*
X147273580Y-83004328D01*
X147300500Y-82868993D01*
X147300500Y-82731007D01*
X147273580Y-82595672D01*
X147273578Y-82595667D01*
X147220776Y-82468191D01*
X147189694Y-82421674D01*
X147144114Y-82353458D01*
X147046542Y-82255886D01*
X146931811Y-82179225D01*
X146931810Y-82179224D01*
X146931808Y-82179223D01*
X146804332Y-82126421D01*
X146804322Y-82126418D01*
X146713694Y-82108391D01*
X146668993Y-82099500D01*
X146531007Y-82099500D01*
X146492642Y-82107131D01*
X146395677Y-82126418D01*
X146395667Y-82126421D01*
X146268191Y-82179223D01*
X146153461Y-82255883D01*
X146055883Y-82353461D01*
X145979223Y-82468191D01*
X145926421Y-82595667D01*
X145926418Y-82595677D01*
X145909979Y-82678326D01*
X145899500Y-82731007D01*
X143768993Y-82731007D01*
X145468992Y-81031008D01*
X145999500Y-81031008D01*
X145999500Y-81168991D01*
X146026418Y-81304322D01*
X146026421Y-81304332D01*
X146079223Y-81431808D01*
X146079224Y-81431810D01*
X146079225Y-81431811D01*
X146155886Y-81546542D01*
X146253458Y-81644114D01*
X146368189Y-81720775D01*
X146495672Y-81773580D01*
X146631007Y-81800500D01*
X146631009Y-81800500D01*
X146768991Y-81800500D01*
X146768993Y-81800500D01*
X146904328Y-81773580D01*
X147031811Y-81720775D01*
X147146542Y-81644114D01*
X147244114Y-81546542D01*
X147320775Y-81431811D01*
X147321108Y-81431007D01*
X151699500Y-81431007D01*
X151699500Y-81568993D01*
X151703314Y-81588165D01*
X151726418Y-81704322D01*
X151726421Y-81704332D01*
X151779223Y-81831808D01*
X151779224Y-81831810D01*
X151779225Y-81831811D01*
X151855886Y-81946542D01*
X151953458Y-82044114D01*
X152068189Y-82120775D01*
X152068190Y-82120775D01*
X152068191Y-82120776D01*
X152195667Y-82173578D01*
X152195672Y-82173580D01*
X152331007Y-82200500D01*
X152331009Y-82200500D01*
X152468991Y-82200500D01*
X152468993Y-82200500D01*
X152604328Y-82173580D01*
X152731811Y-82120775D01*
X152846542Y-82044114D01*
X152944114Y-81946542D01*
X153020775Y-81831811D01*
X153073580Y-81704328D01*
X153100500Y-81568993D01*
X153100500Y-81431007D01*
X153073580Y-81295672D01*
X153020775Y-81168189D01*
X152944114Y-81053458D01*
X152884135Y-80993479D01*
X153372956Y-80993479D01*
X153372956Y-81131850D01*
X153408766Y-81265496D01*
X153408768Y-81265501D01*
X153477951Y-81385330D01*
X153575791Y-81483170D01*
X153695620Y-81552353D01*
X153829270Y-81588164D01*
X153829271Y-81588165D01*
X153829273Y-81588165D01*
X153967641Y-81588165D01*
X153967641Y-81588164D01*
X154101292Y-81552353D01*
X154221121Y-81483170D01*
X154318961Y-81385330D01*
X154388144Y-81265501D01*
X154423955Y-81131850D01*
X154423956Y-81131850D01*
X154423956Y-80993480D01*
X154423955Y-80993479D01*
X154393340Y-80879223D01*
X154388144Y-80859829D01*
X154318961Y-80740000D01*
X154221121Y-80642160D01*
X154101292Y-80572977D01*
X154101287Y-80572975D01*
X153967641Y-80537165D01*
X153967639Y-80537165D01*
X153829273Y-80537165D01*
X153829271Y-80537165D01*
X153695624Y-80572975D01*
X153695619Y-80572977D01*
X153575790Y-80642160D01*
X153477951Y-80739999D01*
X153408768Y-80859828D01*
X153408766Y-80859833D01*
X153372956Y-80993479D01*
X152884135Y-80993479D01*
X152846542Y-80955886D01*
X152838481Y-80950500D01*
X152731808Y-80879223D01*
X152604332Y-80826421D01*
X152604322Y-80826418D01*
X152513694Y-80808391D01*
X152468993Y-80799500D01*
X152331007Y-80799500D01*
X152292642Y-80807131D01*
X152195677Y-80826418D01*
X152195667Y-80826421D01*
X152068191Y-80879223D01*
X151953461Y-80955883D01*
X151855883Y-81053461D01*
X151779223Y-81168191D01*
X151726421Y-81295667D01*
X151726418Y-81295677D01*
X151709961Y-81378416D01*
X151699500Y-81431007D01*
X147321108Y-81431007D01*
X147373580Y-81304328D01*
X147400500Y-81168993D01*
X147400500Y-81031007D01*
X147373580Y-80895672D01*
X147373578Y-80895667D01*
X147320776Y-80768191D01*
X147301939Y-80740000D01*
X147244114Y-80653458D01*
X147146542Y-80555886D01*
X147129509Y-80544505D01*
X147031808Y-80479223D01*
X146904332Y-80426421D01*
X146904322Y-80426418D01*
X146813694Y-80408391D01*
X146768993Y-80399500D01*
X146631007Y-80399500D01*
X146592642Y-80407131D01*
X146495677Y-80426418D01*
X146495667Y-80426421D01*
X146368191Y-80479223D01*
X146253461Y-80555883D01*
X146155883Y-80653461D01*
X146079223Y-80768191D01*
X146026421Y-80895667D01*
X146026418Y-80895677D01*
X145999500Y-81031008D01*
X145468992Y-81031008D01*
X146686327Y-79813673D01*
X151699500Y-79813673D01*
X151699500Y-79951656D01*
X151726418Y-80086987D01*
X151726421Y-80086997D01*
X151779223Y-80214473D01*
X151779224Y-80214475D01*
X151779225Y-80214476D01*
X151855886Y-80329207D01*
X151953458Y-80426779D01*
X152068189Y-80503440D01*
X152068190Y-80503440D01*
X152068191Y-80503441D01*
X152167329Y-80544505D01*
X152195672Y-80556245D01*
X152331007Y-80583165D01*
X152331009Y-80583165D01*
X152468991Y-80583165D01*
X152468993Y-80583165D01*
X152604328Y-80556245D01*
X152731811Y-80503440D01*
X152846542Y-80426779D01*
X152944114Y-80329207D01*
X153020775Y-80214476D01*
X153073580Y-80086993D01*
X153100500Y-79951658D01*
X153100500Y-79813672D01*
X153073580Y-79678337D01*
X153020775Y-79550854D01*
X152944114Y-79436123D01*
X152846542Y-79338551D01*
X152731811Y-79261890D01*
X152731810Y-79261889D01*
X152731808Y-79261888D01*
X152604332Y-79209086D01*
X152604322Y-79209083D01*
X152513694Y-79191056D01*
X152468993Y-79182165D01*
X152331007Y-79182165D01*
X152292642Y-79189796D01*
X152195677Y-79209083D01*
X152195667Y-79209086D01*
X152068191Y-79261888D01*
X151953461Y-79338548D01*
X151855883Y-79436126D01*
X151779223Y-79550856D01*
X151726421Y-79678332D01*
X151726418Y-79678342D01*
X151699500Y-79813673D01*
X146686327Y-79813673D01*
X149078326Y-77421674D01*
X149130652Y-77400000D01*
X151972730Y-77400000D01*
X152025056Y-77421674D01*
G37*
%TD.AperFunction*%
%TD*%
%TA.AperFunction,Conductor*%
%TO.N,/Block Diagram/ADC/RTD1_REF-*%
G36*
X177749047Y-92921674D02*
G01*
X177770721Y-92974000D01*
X177765088Y-93002318D01*
X177726421Y-93095667D01*
X177726418Y-93095677D01*
X177699500Y-93231008D01*
X177699500Y-93368991D01*
X177726418Y-93504322D01*
X177726421Y-93504332D01*
X177779223Y-93631808D01*
X177779224Y-93631810D01*
X177779225Y-93631811D01*
X177855886Y-93746542D01*
X177953458Y-93844114D01*
X178068189Y-93920775D01*
X178068190Y-93920775D01*
X178068191Y-93920776D01*
X178120481Y-93942435D01*
X178195672Y-93973580D01*
X178331007Y-94000500D01*
X178331009Y-94000500D01*
X178468991Y-94000500D01*
X178468993Y-94000500D01*
X178604328Y-93973580D01*
X178731811Y-93920775D01*
X178846542Y-93844114D01*
X178944114Y-93746542D01*
X179020775Y-93631811D01*
X179073580Y-93504328D01*
X179100500Y-93368993D01*
X179100500Y-93231007D01*
X179073580Y-93095672D01*
X179073578Y-93095667D01*
X179034912Y-93002318D01*
X179034912Y-92945681D01*
X179074961Y-92905633D01*
X179103279Y-92900000D01*
X182400412Y-92900000D01*
X182452738Y-92921674D01*
X182453054Y-92921992D01*
X187588088Y-98119649D01*
X187609445Y-98172105D01*
X187609443Y-98172353D01*
X187490121Y-110849498D01*
X190590754Y-114028372D01*
X190611777Y-114080703D01*
X190602971Y-115067034D01*
X190581300Y-115118699D01*
X189421674Y-116278326D01*
X189369348Y-116300000D01*
X177630652Y-116300000D01*
X177578326Y-116278326D01*
X177121674Y-115821674D01*
X177100000Y-115769348D01*
X177100000Y-114121844D01*
X182497498Y-114121844D01*
X182497498Y-114259827D01*
X182524416Y-114395158D01*
X182524419Y-114395168D01*
X182577221Y-114522644D01*
X182577222Y-114522646D01*
X182577223Y-114522647D01*
X182653884Y-114637378D01*
X182751456Y-114734950D01*
X182866187Y-114811611D01*
X182993670Y-114864416D01*
X183129005Y-114891336D01*
X183129007Y-114891336D01*
X183266989Y-114891336D01*
X183266991Y-114891336D01*
X183402326Y-114864416D01*
X183529809Y-114811611D01*
X183644540Y-114734950D01*
X183742112Y-114637378D01*
X183818773Y-114522647D01*
X183871578Y-114395164D01*
X183898498Y-114259829D01*
X183898498Y-114121843D01*
X183871578Y-113986508D01*
X183818773Y-113859025D01*
X183742112Y-113744294D01*
X183644540Y-113646722D01*
X183529809Y-113570061D01*
X183529808Y-113570060D01*
X183529806Y-113570059D01*
X183402330Y-113517257D01*
X183402320Y-113517254D01*
X183311692Y-113499227D01*
X183266991Y-113490336D01*
X183129005Y-113490336D01*
X183090640Y-113497967D01*
X182993675Y-113517254D01*
X182993665Y-113517257D01*
X182866189Y-113570059D01*
X182751459Y-113646719D01*
X182653881Y-113744297D01*
X182577221Y-113859027D01*
X182524419Y-113986503D01*
X182524416Y-113986513D01*
X182497498Y-114121844D01*
X177100000Y-114121844D01*
X177100000Y-112691356D01*
X177121674Y-112639030D01*
X177174000Y-112617356D01*
X177226326Y-112639030D01*
X177235526Y-112650241D01*
X177315047Y-112769252D01*
X177419582Y-112873787D01*
X177542503Y-112955920D01*
X177679085Y-113012494D01*
X177824080Y-113041336D01*
X177824082Y-113041336D01*
X177971914Y-113041336D01*
X177971916Y-113041336D01*
X178116911Y-113012494D01*
X178253493Y-112955920D01*
X178376414Y-112873787D01*
X178480949Y-112769252D01*
X178563082Y-112646331D01*
X178619656Y-112509749D01*
X178648498Y-112364754D01*
X178648498Y-112216918D01*
X178619656Y-112071923D01*
X178589657Y-111999500D01*
X178563082Y-111935341D01*
X178480949Y-111812420D01*
X178376413Y-111707884D01*
X178253492Y-111625751D01*
X178116915Y-111569179D01*
X178116905Y-111569176D01*
X178019809Y-111549862D01*
X177971916Y-111540336D01*
X177824080Y-111540336D01*
X177782975Y-111548512D01*
X177679090Y-111569176D01*
X177679080Y-111569179D01*
X177542503Y-111625751D01*
X177419582Y-111707884D01*
X177419581Y-111707886D01*
X177315048Y-111812419D01*
X177315046Y-111812420D01*
X177235529Y-111931427D01*
X177188437Y-111962893D01*
X177132888Y-111951844D01*
X177101422Y-111904752D01*
X177100000Y-111890315D01*
X177100000Y-111321844D01*
X181697498Y-111321844D01*
X181697498Y-111459827D01*
X181724416Y-111595158D01*
X181724419Y-111595168D01*
X181777221Y-111722644D01*
X181837207Y-111812420D01*
X181853884Y-111837378D01*
X181951456Y-111934950D01*
X182066187Y-112011611D01*
X182193670Y-112064416D01*
X182329005Y-112091336D01*
X182329007Y-112091336D01*
X182466989Y-112091336D01*
X182466991Y-112091336D01*
X182602326Y-112064416D01*
X182729809Y-112011611D01*
X182844540Y-111934950D01*
X182942112Y-111837378D01*
X183018773Y-111722647D01*
X183071578Y-111595164D01*
X183098498Y-111459829D01*
X183098498Y-111321843D01*
X183071578Y-111186508D01*
X183018773Y-111059025D01*
X182942112Y-110944294D01*
X182844540Y-110846722D01*
X182729809Y-110770061D01*
X182729808Y-110770060D01*
X182729806Y-110770059D01*
X182602330Y-110717257D01*
X182602320Y-110717254D01*
X182511692Y-110699227D01*
X182466991Y-110690336D01*
X182329005Y-110690336D01*
X182290640Y-110697967D01*
X182193675Y-110717254D01*
X182193665Y-110717257D01*
X182066189Y-110770059D01*
X181951459Y-110846719D01*
X181853881Y-110944297D01*
X181777221Y-111059027D01*
X181724419Y-111186503D01*
X181724416Y-111186513D01*
X181697498Y-111321844D01*
X177100000Y-111321844D01*
X177100000Y-108221844D01*
X180297498Y-108221844D01*
X180297498Y-108359827D01*
X180324416Y-108495158D01*
X180324419Y-108495168D01*
X180377221Y-108622644D01*
X180377222Y-108622646D01*
X180377223Y-108622647D01*
X180453884Y-108737378D01*
X180551456Y-108834950D01*
X180666187Y-108911611D01*
X180793670Y-108964416D01*
X180929005Y-108991336D01*
X180929007Y-108991336D01*
X181066989Y-108991336D01*
X181066991Y-108991336D01*
X181202326Y-108964416D01*
X181329809Y-108911611D01*
X181444540Y-108834950D01*
X181542112Y-108737378D01*
X181618773Y-108622647D01*
X181619106Y-108621843D01*
X184997498Y-108621843D01*
X184997498Y-108759829D01*
X185006389Y-108804530D01*
X185024416Y-108895158D01*
X185024419Y-108895168D01*
X185077221Y-109022644D01*
X185077222Y-109022646D01*
X185077223Y-109022647D01*
X185153884Y-109137378D01*
X185251456Y-109234950D01*
X185366187Y-109311611D01*
X185493670Y-109364416D01*
X185629005Y-109391336D01*
X185629007Y-109391336D01*
X185766989Y-109391336D01*
X185766991Y-109391336D01*
X185902326Y-109364416D01*
X186029809Y-109311611D01*
X186144540Y-109234950D01*
X186242112Y-109137378D01*
X186318773Y-109022647D01*
X186371578Y-108895164D01*
X186398498Y-108759829D01*
X186398498Y-108621843D01*
X186371578Y-108486508D01*
X186318773Y-108359025D01*
X186242112Y-108244294D01*
X186144540Y-108146722D01*
X186029809Y-108070061D01*
X186029808Y-108070060D01*
X186029806Y-108070059D01*
X185902330Y-108017257D01*
X185902320Y-108017254D01*
X185811692Y-107999227D01*
X185766991Y-107990336D01*
X185629005Y-107990336D01*
X185590640Y-107997967D01*
X185493675Y-108017254D01*
X185493665Y-108017257D01*
X185366189Y-108070059D01*
X185251459Y-108146719D01*
X185153881Y-108244297D01*
X185077221Y-108359027D01*
X185024419Y-108486503D01*
X185024416Y-108486513D01*
X185007974Y-108569178D01*
X184997498Y-108621843D01*
X181619106Y-108621843D01*
X181671578Y-108495164D01*
X181698498Y-108359829D01*
X181698498Y-108221843D01*
X181671578Y-108086508D01*
X181671576Y-108086503D01*
X181618774Y-107959027D01*
X181542114Y-107844297D01*
X181542112Y-107844294D01*
X181444540Y-107746722D01*
X181329809Y-107670061D01*
X181329808Y-107670060D01*
X181329806Y-107670059D01*
X181202330Y-107617257D01*
X181202320Y-107617254D01*
X181111692Y-107599227D01*
X181066991Y-107590336D01*
X180929005Y-107590336D01*
X180890640Y-107597967D01*
X180793675Y-107617254D01*
X180793665Y-107617257D01*
X180666189Y-107670059D01*
X180551459Y-107746719D01*
X180453881Y-107844297D01*
X180377221Y-107959027D01*
X180324419Y-108086503D01*
X180324416Y-108086513D01*
X180297498Y-108221844D01*
X177100000Y-108221844D01*
X177100000Y-107420496D01*
X177117631Y-107372553D01*
X178683956Y-105531007D01*
X180899500Y-105531007D01*
X180899500Y-105668993D01*
X180905767Y-105700500D01*
X180926418Y-105804322D01*
X180926421Y-105804332D01*
X180979223Y-105931808D01*
X180979224Y-105931810D01*
X180979225Y-105931811D01*
X181055886Y-106046542D01*
X181153458Y-106144114D01*
X181268189Y-106220775D01*
X181395672Y-106273580D01*
X181531007Y-106300500D01*
X181531009Y-106300500D01*
X181668991Y-106300500D01*
X181668993Y-106300500D01*
X181804328Y-106273580D01*
X181931811Y-106220775D01*
X182046542Y-106144114D01*
X182144114Y-106046542D01*
X182220775Y-105931811D01*
X182273580Y-105804328D01*
X182300500Y-105668993D01*
X182300500Y-105531007D01*
X182273580Y-105395672D01*
X182220775Y-105268189D01*
X182144114Y-105153458D01*
X182121664Y-105131008D01*
X185599500Y-105131008D01*
X185599500Y-105268991D01*
X185626418Y-105404322D01*
X185626421Y-105404332D01*
X185679223Y-105531808D01*
X185733939Y-105613697D01*
X185755886Y-105646542D01*
X185853458Y-105744114D01*
X185968189Y-105820775D01*
X186095672Y-105873580D01*
X186231007Y-105900500D01*
X186231009Y-105900500D01*
X186368991Y-105900500D01*
X186368993Y-105900500D01*
X186504328Y-105873580D01*
X186631811Y-105820775D01*
X186746542Y-105744114D01*
X186844114Y-105646542D01*
X186920775Y-105531811D01*
X186973580Y-105404328D01*
X187000500Y-105268993D01*
X187000500Y-105131007D01*
X186973580Y-104995672D01*
X186971709Y-104991156D01*
X186920776Y-104868191D01*
X186872320Y-104795672D01*
X186844114Y-104753458D01*
X186746542Y-104655886D01*
X186631811Y-104579225D01*
X186631810Y-104579224D01*
X186631808Y-104579223D01*
X186504332Y-104526421D01*
X186504322Y-104526418D01*
X186413694Y-104508391D01*
X186368993Y-104499500D01*
X186231007Y-104499500D01*
X186192642Y-104507131D01*
X186095677Y-104526418D01*
X186095667Y-104526421D01*
X185968191Y-104579223D01*
X185853461Y-104655883D01*
X185755883Y-104753461D01*
X185679223Y-104868191D01*
X185626421Y-104995667D01*
X185626418Y-104995677D01*
X185599500Y-105131008D01*
X182121664Y-105131008D01*
X182046542Y-105055886D01*
X181995512Y-105021789D01*
X181931808Y-104979223D01*
X181804332Y-104926421D01*
X181804322Y-104926418D01*
X181713694Y-104908391D01*
X181668993Y-104899500D01*
X181531007Y-104899500D01*
X181492642Y-104907131D01*
X181395677Y-104926418D01*
X181395667Y-104926421D01*
X181268191Y-104979223D01*
X181153461Y-105055883D01*
X181055883Y-105153461D01*
X180979223Y-105268191D01*
X180926421Y-105395667D01*
X180926418Y-105395677D01*
X180919833Y-105428785D01*
X180899500Y-105531007D01*
X178683956Y-105531007D01*
X179974677Y-104013491D01*
X179979693Y-103476007D01*
X181999500Y-103476007D01*
X181999500Y-103613993D01*
X182003044Y-103631811D01*
X182026418Y-103749322D01*
X182026421Y-103749332D01*
X182079223Y-103876808D01*
X182087844Y-103889711D01*
X182155886Y-103991542D01*
X182253458Y-104089114D01*
X182368189Y-104165775D01*
X182368190Y-104165775D01*
X182368191Y-104165776D01*
X182374017Y-104168189D01*
X182495672Y-104218580D01*
X182631007Y-104245500D01*
X182631009Y-104245500D01*
X182768991Y-104245500D01*
X182768993Y-104245500D01*
X182904328Y-104218580D01*
X183031811Y-104165775D01*
X183146542Y-104089114D01*
X183244114Y-103991542D01*
X183320775Y-103876811D01*
X183373580Y-103749328D01*
X183400500Y-103613993D01*
X183400500Y-103476007D01*
X183373580Y-103340672D01*
X183329187Y-103233497D01*
X183320776Y-103213191D01*
X183300570Y-103182951D01*
X183244114Y-103098458D01*
X183146542Y-103000886D01*
X183031811Y-102924225D01*
X183031810Y-102924224D01*
X183031808Y-102924223D01*
X182904332Y-102871421D01*
X182904322Y-102871418D01*
X182813694Y-102853391D01*
X182768993Y-102844500D01*
X182631007Y-102844500D01*
X182592642Y-102852131D01*
X182495677Y-102871418D01*
X182495667Y-102871421D01*
X182368191Y-102924223D01*
X182253461Y-103000883D01*
X182155883Y-103098461D01*
X182079223Y-103213191D01*
X182026421Y-103340667D01*
X182026418Y-103340677D01*
X182018760Y-103379179D01*
X181999500Y-103476007D01*
X179979693Y-103476007D01*
X180019310Y-99230814D01*
X182374500Y-99230814D01*
X182374500Y-99369185D01*
X182410310Y-99502831D01*
X182410312Y-99502836D01*
X182479495Y-99622665D01*
X182577335Y-99720505D01*
X182697164Y-99789688D01*
X182830814Y-99825499D01*
X182830815Y-99825500D01*
X182830817Y-99825500D01*
X182969185Y-99825500D01*
X182969185Y-99825499D01*
X183102836Y-99789688D01*
X183222665Y-99720505D01*
X183320505Y-99622665D01*
X183389688Y-99502836D01*
X183425499Y-99369185D01*
X183425500Y-99369185D01*
X183425500Y-99230815D01*
X183425499Y-99230814D01*
X183389689Y-99097168D01*
X183389688Y-99097164D01*
X183320505Y-98977335D01*
X183222665Y-98879495D01*
X183102836Y-98810312D01*
X183102831Y-98810310D01*
X182969185Y-98774500D01*
X182969183Y-98774500D01*
X182830817Y-98774500D01*
X182830815Y-98774500D01*
X182697168Y-98810310D01*
X182697163Y-98810312D01*
X182577334Y-98879495D01*
X182479495Y-98977334D01*
X182410312Y-99097163D01*
X182410310Y-99097168D01*
X182374500Y-99230814D01*
X180019310Y-99230814D01*
X180044381Y-96544381D01*
X179543043Y-96043043D01*
X173926996Y-95996949D01*
X173875277Y-95975277D01*
X173721674Y-95821674D01*
X173700000Y-95769348D01*
X173700000Y-94530814D01*
X175574500Y-94530814D01*
X175574500Y-94669185D01*
X175610310Y-94802831D01*
X175610312Y-94802836D01*
X175679495Y-94922665D01*
X175777335Y-95020505D01*
X175897164Y-95089688D01*
X176030814Y-95125499D01*
X176030815Y-95125500D01*
X176030817Y-95125500D01*
X176169185Y-95125500D01*
X176169185Y-95125499D01*
X176302836Y-95089688D01*
X176422665Y-95020505D01*
X176520505Y-94922665D01*
X176589688Y-94802836D01*
X176625499Y-94669185D01*
X176625500Y-94669185D01*
X176625500Y-94530815D01*
X176625499Y-94530814D01*
X176589689Y-94397168D01*
X176589688Y-94397164D01*
X176520505Y-94277335D01*
X176422665Y-94179495D01*
X176302836Y-94110312D01*
X176302831Y-94110310D01*
X176169185Y-94074500D01*
X176169183Y-94074500D01*
X176030817Y-94074500D01*
X176030815Y-94074500D01*
X175897168Y-94110310D01*
X175897163Y-94110312D01*
X175777334Y-94179495D01*
X175679495Y-94277334D01*
X175610312Y-94397163D01*
X175610310Y-94397168D01*
X175574500Y-94530814D01*
X173700000Y-94530814D01*
X173700000Y-94530652D01*
X173721674Y-94478326D01*
X175278326Y-92921674D01*
X175330652Y-92900000D01*
X177696721Y-92900000D01*
X177749047Y-92921674D01*
G37*
%TD.AperFunction*%
%TD*%
%TA.AperFunction,Conductor*%
%TO.N,/Block Diagram/Controller/VDD*%
G36*
X144840354Y-58805583D02*
G01*
X144850767Y-58809897D01*
X144850769Y-58809898D01*
X144850770Y-58809898D01*
X144850776Y-58809900D01*
X144872613Y-58831739D01*
X144890815Y-58849938D01*
X144895131Y-58860356D01*
X144900762Y-58888673D01*
X144900140Y-79754489D01*
X144894507Y-79782806D01*
X144884099Y-79807933D01*
X144868058Y-79831940D01*
X139932081Y-84767918D01*
X139908075Y-84783958D01*
X139882945Y-84794367D01*
X139854629Y-84800000D01*
X135345371Y-84800000D01*
X135317053Y-84794367D01*
X135291924Y-84783958D01*
X135267918Y-84767918D01*
X135032081Y-84532081D01*
X135016041Y-84508075D01*
X135005631Y-84482943D01*
X135000000Y-84454629D01*
X135000000Y-81900000D01*
X134800000Y-81700000D01*
X124300000Y-81700000D01*
X124100000Y-81900000D01*
X124100000Y-84153670D01*
X124094406Y-84181894D01*
X124084066Y-84206955D01*
X124068134Y-84230909D01*
X123732696Y-84568251D01*
X123708734Y-84584360D01*
X123683802Y-84594770D01*
X123655149Y-84600483D01*
X123345060Y-84599894D01*
X123316819Y-84594235D01*
X123307637Y-84590421D01*
X123291753Y-84583824D01*
X123267811Y-84567811D01*
X119026083Y-80326083D01*
X124949500Y-80326083D01*
X124949500Y-80473916D01*
X124953587Y-80494466D01*
X124978338Y-80618903D01*
X124978342Y-80618915D01*
X125004096Y-80681092D01*
X125034915Y-80755494D01*
X125082080Y-80826082D01*
X125108140Y-80865084D01*
X125117048Y-80878415D01*
X125221584Y-80982951D01*
X125344505Y-81065084D01*
X125409487Y-81092000D01*
X125474466Y-81118916D01*
X125474467Y-81118916D01*
X125474469Y-81118917D01*
X125481087Y-81121658D01*
X125626082Y-81150500D01*
X125626084Y-81150500D01*
X125773916Y-81150500D01*
X125773918Y-81150500D01*
X125918913Y-81121658D01*
X126055495Y-81065084D01*
X126178416Y-80982951D01*
X126282951Y-80878416D01*
X126365084Y-80755495D01*
X126421658Y-80618913D01*
X126450500Y-80473918D01*
X126450500Y-80326082D01*
X126421658Y-80181087D01*
X126398874Y-80126082D01*
X134749500Y-80126082D01*
X134749500Y-80273917D01*
X134759026Y-80321810D01*
X134778339Y-80418905D01*
X134778342Y-80418915D01*
X134834914Y-80555493D01*
X134900372Y-80653457D01*
X134917048Y-80678415D01*
X135021584Y-80782951D01*
X135144505Y-80865084D01*
X135176686Y-80878414D01*
X135281087Y-80921658D01*
X135426082Y-80950500D01*
X135426084Y-80950500D01*
X135573916Y-80950500D01*
X135573918Y-80950500D01*
X135718913Y-80921658D01*
X135855495Y-80865084D01*
X135978416Y-80782951D01*
X136082951Y-80678416D01*
X136165084Y-80555495D01*
X136221658Y-80418913D01*
X136250500Y-80273918D01*
X136250500Y-80126082D01*
X139049500Y-80126082D01*
X139049500Y-80273917D01*
X139059026Y-80321810D01*
X139078339Y-80418905D01*
X139078342Y-80418915D01*
X139134914Y-80555493D01*
X139200372Y-80653457D01*
X139217048Y-80678415D01*
X139321584Y-80782951D01*
X139444505Y-80865084D01*
X139476686Y-80878414D01*
X139581087Y-80921658D01*
X139726082Y-80950500D01*
X139726084Y-80950500D01*
X139873916Y-80950500D01*
X139873918Y-80950500D01*
X139951326Y-80935102D01*
X139980193Y-80935102D01*
X139991247Y-80937300D01*
X140038335Y-80968765D01*
X140044594Y-80978132D01*
X140055644Y-81004808D01*
X140078339Y-81118905D01*
X140078342Y-81118915D01*
X140134914Y-81255493D01*
X140134916Y-81255495D01*
X140201734Y-81355495D01*
X140217049Y-81378416D01*
X140321584Y-81482951D01*
X140444505Y-81565084D01*
X140581087Y-81621658D01*
X140726082Y-81650500D01*
X140726084Y-81650500D01*
X140873916Y-81650500D01*
X140873918Y-81650500D01*
X141018913Y-81621658D01*
X141155495Y-81565084D01*
X141278416Y-81482951D01*
X141382951Y-81378416D01*
X141465084Y-81255495D01*
X141520522Y-81121656D01*
X141521657Y-81118916D01*
X141521659Y-81118907D01*
X141550500Y-80973918D01*
X141550500Y-80826082D01*
X141521658Y-80681087D01*
X141465084Y-80544505D01*
X141382951Y-80421584D01*
X141278416Y-80317049D01*
X141198204Y-80263453D01*
X141190996Y-80252666D01*
X141155490Y-80234913D01*
X141018915Y-80178342D01*
X141018903Y-80178338D01*
X141018904Y-80178338D01*
X140910204Y-80156718D01*
X140880277Y-80150765D01*
X140873918Y-80149500D01*
X140873917Y-80149500D01*
X140726082Y-80149500D01*
X140648677Y-80164896D01*
X140619804Y-80164896D01*
X140608754Y-80162698D01*
X140561662Y-80131232D01*
X140561661Y-80131230D01*
X140555404Y-80121865D01*
X140544355Y-80095191D01*
X140534273Y-80044508D01*
X140521658Y-79981087D01*
X140465084Y-79844505D01*
X140382951Y-79721584D01*
X140278416Y-79617049D01*
X140198204Y-79563453D01*
X140190996Y-79552666D01*
X140155490Y-79534913D01*
X140018915Y-79478342D01*
X140018905Y-79478339D01*
X139945919Y-79463821D01*
X139921811Y-79459026D01*
X139921810Y-79459025D01*
X139873918Y-79449500D01*
X139726082Y-79449500D01*
X139684977Y-79457676D01*
X139581095Y-79478338D01*
X139581083Y-79478342D01*
X139444508Y-79534913D01*
X139321314Y-79617227D01*
X139319933Y-79618699D01*
X139218699Y-79719933D01*
X139217227Y-79721314D01*
X139134913Y-79844508D01*
X139078342Y-79981083D01*
X139078338Y-79981095D01*
X139054263Y-80102135D01*
X139049500Y-80126082D01*
X136250500Y-80126082D01*
X136221658Y-79981087D01*
X136165084Y-79844505D01*
X136082951Y-79721584D01*
X135978416Y-79617049D01*
X135898204Y-79563453D01*
X135890996Y-79552666D01*
X135855490Y-79534913D01*
X135718915Y-79478342D01*
X135718905Y-79478339D01*
X135645919Y-79463821D01*
X135621811Y-79459026D01*
X135621810Y-79459025D01*
X135573918Y-79449500D01*
X135426082Y-79449500D01*
X135384977Y-79457676D01*
X135281095Y-79478338D01*
X135281083Y-79478342D01*
X135144508Y-79534913D01*
X135021314Y-79617227D01*
X135019933Y-79618699D01*
X134918699Y-79719933D01*
X134917227Y-79721314D01*
X134834913Y-79844508D01*
X134778342Y-79981083D01*
X134778338Y-79981095D01*
X134754263Y-80102135D01*
X134749500Y-80126082D01*
X126398874Y-80126082D01*
X126365084Y-80044505D01*
X126282951Y-79921584D01*
X126178416Y-79817049D01*
X126106819Y-79769209D01*
X126055494Y-79734915D01*
X125918917Y-79678343D01*
X125918918Y-79678343D01*
X125918915Y-79678342D01*
X125918905Y-79678339D01*
X125845919Y-79663821D01*
X125821811Y-79659026D01*
X125821810Y-79659025D01*
X125773918Y-79649500D01*
X125626082Y-79649500D01*
X125584977Y-79657676D01*
X125481095Y-79678338D01*
X125481083Y-79678342D01*
X125344508Y-79734913D01*
X125221314Y-79817227D01*
X125219933Y-79818699D01*
X125118699Y-79919933D01*
X125117227Y-79921314D01*
X125034913Y-80044508D01*
X124978342Y-80181083D01*
X124978338Y-80181095D01*
X124964103Y-80252666D01*
X124949500Y-80326083D01*
X119026083Y-80326083D01*
X115026083Y-76326083D01*
X116149500Y-76326083D01*
X116149500Y-76473916D01*
X116153587Y-76494466D01*
X116178338Y-76618903D01*
X116178342Y-76618915D01*
X116178343Y-76618917D01*
X116234915Y-76755494D01*
X116234916Y-76755495D01*
X116317049Y-76878416D01*
X116421584Y-76982951D01*
X116544505Y-77065084D01*
X116681087Y-77121658D01*
X116826082Y-77150500D01*
X116826084Y-77150500D01*
X116973916Y-77150500D01*
X116973918Y-77150500D01*
X117118913Y-77121658D01*
X117255495Y-77065084D01*
X117378416Y-76982951D01*
X117482951Y-76878416D01*
X117565084Y-76755495D01*
X117621658Y-76618913D01*
X117650500Y-76473918D01*
X117650500Y-76326082D01*
X117621658Y-76181087D01*
X117611057Y-76155495D01*
X117565084Y-76044505D01*
X117482951Y-75921584D01*
X117378415Y-75817048D01*
X117328919Y-75783976D01*
X117255494Y-75734915D01*
X117255491Y-75734913D01*
X117255490Y-75734913D01*
X117234172Y-75726083D01*
X123549500Y-75726083D01*
X123549500Y-75873916D01*
X123553587Y-75894466D01*
X123578338Y-76018903D01*
X123578342Y-76018916D01*
X123578344Y-76018921D01*
X123634911Y-76155488D01*
X123634914Y-76155493D01*
X123634915Y-76155494D01*
X123652013Y-76181082D01*
X123717049Y-76278416D01*
X123821584Y-76382951D01*
X123944505Y-76465084D01*
X124081087Y-76521658D01*
X124226082Y-76550500D01*
X124226084Y-76550500D01*
X124373916Y-76550500D01*
X124373918Y-76550500D01*
X124518913Y-76521658D01*
X124655495Y-76465084D01*
X124778416Y-76382951D01*
X124882951Y-76278416D01*
X124965084Y-76155495D01*
X125021658Y-76018913D01*
X125050500Y-75873918D01*
X125050500Y-75726082D01*
X125021658Y-75581087D01*
X124965084Y-75444505D01*
X124882951Y-75321584D01*
X124778416Y-75217049D01*
X124698204Y-75163453D01*
X124690996Y-75152666D01*
X124655496Y-75134916D01*
X124655480Y-75134909D01*
X124549023Y-75090814D01*
X124549022Y-75090813D01*
X124518925Y-75078347D01*
X124518913Y-75078342D01*
X124518907Y-75078340D01*
X124421811Y-75059026D01*
X124421810Y-75059025D01*
X124373918Y-75049500D01*
X124226082Y-75049500D01*
X124184977Y-75057676D01*
X124081095Y-75078338D01*
X124081083Y-75078342D01*
X123944508Y-75134913D01*
X123821314Y-75217227D01*
X123819933Y-75218699D01*
X123718699Y-75319933D01*
X123717227Y-75321314D01*
X123634913Y-75444508D01*
X123578342Y-75581083D01*
X123578338Y-75581095D01*
X123558079Y-75682951D01*
X123549500Y-75726083D01*
X117234172Y-75726083D01*
X117118915Y-75678342D01*
X117118905Y-75678339D01*
X117045919Y-75663821D01*
X117021811Y-75659026D01*
X117021810Y-75659025D01*
X116973918Y-75649500D01*
X116826082Y-75649500D01*
X116784977Y-75657676D01*
X116681095Y-75678338D01*
X116681083Y-75678342D01*
X116544508Y-75734913D01*
X116421314Y-75817227D01*
X116419933Y-75818699D01*
X116318699Y-75919933D01*
X116317227Y-75921314D01*
X116234913Y-76044508D01*
X116178344Y-76181079D01*
X116178338Y-76181095D01*
X116158981Y-76278416D01*
X116149500Y-76326083D01*
X115026083Y-76326083D01*
X113832081Y-75132081D01*
X113816041Y-75108075D01*
X113805631Y-75082943D01*
X113800000Y-75054629D01*
X113800000Y-75026082D01*
X139249500Y-75026082D01*
X139249500Y-75173917D01*
X139258080Y-75217051D01*
X139258080Y-75217052D01*
X139278339Y-75318905D01*
X139278342Y-75318915D01*
X139334915Y-75455494D01*
X139334916Y-75455495D01*
X139417048Y-75578415D01*
X139521584Y-75682951D01*
X139644505Y-75765084D01*
X139770389Y-75817227D01*
X139781087Y-75821658D01*
X139926082Y-75850500D01*
X139926084Y-75850500D01*
X140073916Y-75850500D01*
X140073918Y-75850500D01*
X140218913Y-75821658D01*
X140355495Y-75765084D01*
X140478416Y-75682951D01*
X140582951Y-75578416D01*
X140665084Y-75455495D01*
X140721658Y-75318913D01*
X140750500Y-75173918D01*
X140750500Y-75026082D01*
X140721658Y-74881087D01*
X140665084Y-74744505D01*
X140582951Y-74621584D01*
X140478416Y-74517049D01*
X140398204Y-74463453D01*
X140390996Y-74452666D01*
X140355490Y-74434913D01*
X140218915Y-74378342D01*
X140218905Y-74378339D01*
X140145919Y-74363821D01*
X140121811Y-74359026D01*
X140121810Y-74359025D01*
X140073918Y-74349500D01*
X139926082Y-74349500D01*
X139884977Y-74357676D01*
X139781095Y-74378338D01*
X139781083Y-74378342D01*
X139644508Y-74434913D01*
X139521314Y-74517227D01*
X139519933Y-74518699D01*
X139418699Y-74619933D01*
X139417227Y-74621314D01*
X139334913Y-74744508D01*
X139278342Y-74881083D01*
X139278338Y-74881095D01*
X139257347Y-74986631D01*
X139249500Y-75026082D01*
X113800000Y-75026082D01*
X113800000Y-70326082D01*
X114649500Y-70326082D01*
X114649500Y-70473917D01*
X114658080Y-70517051D01*
X114658080Y-70517052D01*
X114678339Y-70618905D01*
X114678342Y-70618913D01*
X114678343Y-70618917D01*
X114734915Y-70755494D01*
X114734916Y-70755495D01*
X114817049Y-70878416D01*
X114921584Y-70982951D01*
X115044505Y-71065084D01*
X115181087Y-71121658D01*
X115326082Y-71150500D01*
X115326084Y-71150500D01*
X115473916Y-71150500D01*
X115473918Y-71150500D01*
X115618913Y-71121658D01*
X115755495Y-71065084D01*
X115813864Y-71026083D01*
X122649500Y-71026083D01*
X122649500Y-71173916D01*
X122653587Y-71194466D01*
X122678338Y-71318903D01*
X122678342Y-71318915D01*
X122678343Y-71318917D01*
X122734915Y-71455494D01*
X122734916Y-71455495D01*
X122817049Y-71578416D01*
X122921584Y-71682951D01*
X123044505Y-71765084D01*
X123181087Y-71821658D01*
X123326082Y-71850500D01*
X123326084Y-71850500D01*
X123473916Y-71850500D01*
X123473918Y-71850500D01*
X123618913Y-71821658D01*
X123755495Y-71765084D01*
X123878416Y-71682951D01*
X123982951Y-71578416D01*
X124065084Y-71455495D01*
X124121658Y-71318913D01*
X124150500Y-71173918D01*
X124150500Y-71026082D01*
X124121658Y-70881087D01*
X124065084Y-70744505D01*
X123982951Y-70621584D01*
X123878416Y-70517049D01*
X123798204Y-70463453D01*
X123790996Y-70452666D01*
X123755490Y-70434913D01*
X123618915Y-70378342D01*
X123618905Y-70378339D01*
X123545919Y-70363821D01*
X123521811Y-70359026D01*
X123521810Y-70359025D01*
X123473918Y-70349500D01*
X123326082Y-70349500D01*
X123284977Y-70357676D01*
X123181095Y-70378338D01*
X123181083Y-70378342D01*
X123044508Y-70434913D01*
X122921314Y-70517227D01*
X122919933Y-70518699D01*
X122818699Y-70619933D01*
X122817227Y-70621314D01*
X122734913Y-70744508D01*
X122678342Y-70881083D01*
X122678338Y-70881095D01*
X122658079Y-70982951D01*
X122649500Y-71026083D01*
X115813864Y-71026083D01*
X115878416Y-70982951D01*
X115982951Y-70878416D01*
X116065084Y-70755495D01*
X116121658Y-70618913D01*
X116150500Y-70473918D01*
X116150500Y-70326082D01*
X116121658Y-70181087D01*
X116065084Y-70044505D01*
X115982951Y-69921584D01*
X115878416Y-69817049D01*
X115798204Y-69763453D01*
X115790996Y-69752666D01*
X115755490Y-69734913D01*
X115618915Y-69678342D01*
X115618905Y-69678339D01*
X115545919Y-69663821D01*
X115521811Y-69659026D01*
X115521810Y-69659025D01*
X115473918Y-69649500D01*
X115326082Y-69649500D01*
X115284977Y-69657676D01*
X115181095Y-69678338D01*
X115181083Y-69678342D01*
X115044508Y-69734913D01*
X114921314Y-69817227D01*
X114919933Y-69818699D01*
X114818699Y-69919933D01*
X114817227Y-69921314D01*
X114734913Y-70044508D01*
X114678342Y-70181083D01*
X114678338Y-70181095D01*
X114654263Y-70302135D01*
X114649500Y-70326082D01*
X113800000Y-70326082D01*
X113800000Y-69054347D01*
X113805630Y-69026035D01*
X113809284Y-69017214D01*
X113849328Y-68977166D01*
X113902582Y-68975857D01*
X113912042Y-68979242D01*
X113928222Y-68987386D01*
X114044505Y-69065084D01*
X114181087Y-69121658D01*
X114326082Y-69150500D01*
X114326084Y-69150500D01*
X114473916Y-69150500D01*
X114473918Y-69150500D01*
X114618913Y-69121658D01*
X114755495Y-69065084D01*
X114878416Y-68982951D01*
X114982951Y-68878416D01*
X115065084Y-68755495D01*
X115121658Y-68618913D01*
X115150500Y-68473918D01*
X115150500Y-68326082D01*
X115121658Y-68181087D01*
X115065084Y-68044505D01*
X114982951Y-67921584D01*
X114878416Y-67817049D01*
X114870198Y-67811558D01*
X114798205Y-67763454D01*
X114790996Y-67752666D01*
X114755490Y-67734913D01*
X114618915Y-67678342D01*
X114618905Y-67678339D01*
X114545919Y-67663821D01*
X114521811Y-67659026D01*
X114521810Y-67659025D01*
X114473918Y-67649500D01*
X114326082Y-67649500D01*
X114284977Y-67657676D01*
X114181095Y-67678338D01*
X114181083Y-67678342D01*
X114044505Y-67734914D01*
X113929800Y-67811558D01*
X113910163Y-67820844D01*
X113897718Y-67824618D01*
X113841354Y-67819062D01*
X113806567Y-67778726D01*
X113804322Y-67772453D01*
X113800000Y-67747532D01*
X113800000Y-65844848D01*
X113805633Y-65816530D01*
X113816039Y-65791407D01*
X113832082Y-65767396D01*
X113973418Y-65626082D01*
X122649500Y-65626082D01*
X122649500Y-65773918D01*
X122650273Y-65777805D01*
X122678338Y-65918903D01*
X122678342Y-65918915D01*
X122678343Y-65918917D01*
X122734915Y-66055494D01*
X122734916Y-66055495D01*
X122817049Y-66178416D01*
X122921584Y-66282951D01*
X123044505Y-66365084D01*
X123181087Y-66421658D01*
X123326082Y-66450500D01*
X123326084Y-66450500D01*
X123473916Y-66450500D01*
X123473918Y-66450500D01*
X123618913Y-66421658D01*
X123755495Y-66365084D01*
X123878416Y-66282951D01*
X123982951Y-66178416D01*
X124065084Y-66055495D01*
X124121658Y-65918913D01*
X124150500Y-65773918D01*
X124150500Y-65626082D01*
X124121658Y-65481087D01*
X124065084Y-65344505D01*
X123982951Y-65221584D01*
X123878416Y-65117049D01*
X123798204Y-65063453D01*
X123790996Y-65052666D01*
X123755490Y-65034913D01*
X123618915Y-64978342D01*
X123618905Y-64978339D01*
X123545919Y-64963821D01*
X123521811Y-64959026D01*
X123521810Y-64959025D01*
X123473918Y-64949500D01*
X123326082Y-64949500D01*
X123284977Y-64957676D01*
X123181095Y-64978338D01*
X123181083Y-64978342D01*
X123044508Y-65034913D01*
X122921314Y-65117227D01*
X122919933Y-65118699D01*
X122818699Y-65219933D01*
X122817227Y-65221314D01*
X122734913Y-65344508D01*
X122678342Y-65481083D01*
X122678338Y-65481095D01*
X122660632Y-65570116D01*
X122649500Y-65626082D01*
X113973418Y-65626082D01*
X114029392Y-65570117D01*
X116273763Y-63326082D01*
X122849500Y-63326082D01*
X122849500Y-63473918D01*
X122850380Y-63478339D01*
X122859026Y-63521810D01*
X122878339Y-63618905D01*
X122878342Y-63618913D01*
X122878343Y-63618917D01*
X122934915Y-63755494D01*
X122934916Y-63755495D01*
X123017049Y-63878416D01*
X123121584Y-63982951D01*
X123244505Y-64065084D01*
X123381087Y-64121658D01*
X123526082Y-64150500D01*
X123526084Y-64150500D01*
X123673916Y-64150500D01*
X123673918Y-64150500D01*
X123818913Y-64121658D01*
X123955495Y-64065084D01*
X124078416Y-63982951D01*
X124182951Y-63878416D01*
X124265084Y-63755495D01*
X124321658Y-63618913D01*
X124340123Y-63526083D01*
X128749500Y-63526083D01*
X128749500Y-63673916D01*
X128753587Y-63694466D01*
X128778338Y-63818903D01*
X128778342Y-63818915D01*
X128778343Y-63818917D01*
X128834915Y-63955494D01*
X128853261Y-63982950D01*
X128917049Y-64078416D01*
X129021584Y-64182951D01*
X129144505Y-64265084D01*
X129281087Y-64321658D01*
X129426082Y-64350500D01*
X129426084Y-64350500D01*
X129573916Y-64350500D01*
X129573918Y-64350500D01*
X129718913Y-64321658D01*
X129855495Y-64265084D01*
X129978416Y-64182951D01*
X130035284Y-64126083D01*
X139249500Y-64126083D01*
X139249500Y-64273916D01*
X139253587Y-64294466D01*
X139278338Y-64418903D01*
X139278342Y-64418915D01*
X139278343Y-64418917D01*
X139334915Y-64555494D01*
X139334916Y-64555495D01*
X139417049Y-64678416D01*
X139521584Y-64782951D01*
X139644505Y-64865084D01*
X139781087Y-64921658D01*
X139926082Y-64950500D01*
X139926084Y-64950500D01*
X140073916Y-64950500D01*
X140073918Y-64950500D01*
X140218913Y-64921658D01*
X140355495Y-64865084D01*
X140478416Y-64782951D01*
X140582951Y-64678416D01*
X140665084Y-64555495D01*
X140721658Y-64418913D01*
X140750500Y-64273918D01*
X140750500Y-64126082D01*
X140721658Y-63981087D01*
X140711057Y-63955495D01*
X140665084Y-63844505D01*
X140582951Y-63721584D01*
X140478415Y-63617048D01*
X140355494Y-63534915D01*
X140355491Y-63534913D01*
X140355490Y-63534913D01*
X140218915Y-63478342D01*
X140218905Y-63478339D01*
X140145919Y-63463821D01*
X140121811Y-63459026D01*
X140121810Y-63459025D01*
X140073918Y-63449500D01*
X139926082Y-63449500D01*
X139884977Y-63457676D01*
X139781095Y-63478338D01*
X139781083Y-63478342D01*
X139644508Y-63534913D01*
X139521314Y-63617227D01*
X139519933Y-63618699D01*
X139418699Y-63719933D01*
X139417227Y-63721314D01*
X139334913Y-63844508D01*
X139278342Y-63981083D01*
X139278338Y-63981095D01*
X139258981Y-64078417D01*
X139250717Y-64119961D01*
X139250713Y-64119984D01*
X139250381Y-64121656D01*
X139249500Y-64126083D01*
X130035284Y-64126083D01*
X130082951Y-64078416D01*
X130165084Y-63955495D01*
X130221658Y-63818913D01*
X130250500Y-63673918D01*
X130250500Y-63526082D01*
X130221658Y-63381087D01*
X130165084Y-63244505D01*
X130082951Y-63121584D01*
X129978416Y-63017049D01*
X129898204Y-62963453D01*
X129890996Y-62952666D01*
X129855490Y-62934913D01*
X129718915Y-62878342D01*
X129718905Y-62878339D01*
X129645919Y-62863821D01*
X129621811Y-62859026D01*
X129621810Y-62859025D01*
X129573918Y-62849500D01*
X129426082Y-62849500D01*
X129384977Y-62857676D01*
X129281095Y-62878338D01*
X129281083Y-62878342D01*
X129144508Y-62934913D01*
X129021314Y-63017227D01*
X129019933Y-63018699D01*
X128918699Y-63119933D01*
X128917227Y-63121314D01*
X128834913Y-63244508D01*
X128778342Y-63381083D01*
X128778338Y-63381095D01*
X128753095Y-63508011D01*
X128749500Y-63526083D01*
X124340123Y-63526083D01*
X124350500Y-63473918D01*
X124350500Y-63326082D01*
X124321658Y-63181087D01*
X124265084Y-63044505D01*
X124182951Y-62921584D01*
X124078416Y-62817049D01*
X123998204Y-62763453D01*
X123990996Y-62752666D01*
X123955490Y-62734913D01*
X123818915Y-62678342D01*
X123818905Y-62678339D01*
X123745919Y-62663821D01*
X123721811Y-62659026D01*
X123721810Y-62659025D01*
X123673918Y-62649500D01*
X123526082Y-62649500D01*
X123484977Y-62657676D01*
X123381095Y-62678338D01*
X123381083Y-62678342D01*
X123244508Y-62734913D01*
X123121314Y-62817227D01*
X123119933Y-62818699D01*
X123018699Y-62919933D01*
X123017227Y-62921314D01*
X122934913Y-63044508D01*
X122878342Y-63181083D01*
X122878339Y-63181093D01*
X122865780Y-63244234D01*
X122865758Y-63244348D01*
X122865727Y-63244505D01*
X122849500Y-63326082D01*
X116273763Y-63326082D01*
X120768412Y-58832106D01*
X120792409Y-58816074D01*
X120817539Y-58805665D01*
X120845845Y-58800035D01*
X137120289Y-58799980D01*
X137123900Y-58800068D01*
X137127562Y-58800248D01*
X137130857Y-58800493D01*
X137130993Y-58800500D01*
X137268993Y-58800500D01*
X137269667Y-58800500D01*
X137272796Y-58800230D01*
X137276074Y-58800068D01*
X137279651Y-58799979D01*
X142343317Y-58799962D01*
X142371636Y-58805595D01*
X142392205Y-58814115D01*
X142420674Y-58836208D01*
X142421144Y-58835802D01*
X142422858Y-58837778D01*
X142422861Y-58837782D01*
X142562218Y-58977139D01*
X142726086Y-59086632D01*
X142908165Y-59162051D01*
X143101459Y-59200500D01*
X143101461Y-59200500D01*
X143298539Y-59200500D01*
X143298541Y-59200500D01*
X143491835Y-59162051D01*
X143673914Y-59086632D01*
X143837782Y-58977139D01*
X143977139Y-58837782D01*
X143979711Y-58835210D01*
X143980170Y-58835669D01*
X143991214Y-58825645D01*
X144010984Y-58812430D01*
X144052097Y-58799955D01*
X144812044Y-58799954D01*
X144840354Y-58805583D01*
G37*
%TD.AperFunction*%
%TD*%
M02*
